<?xml version="1.0" encoding="utf-8"?>
<!-- Generator: Adobe Illustrator 19.0.1, SVG Export Plug-In . SVG Version: 6.00 Build 0)  -->
<svg version="1.1" id="Camada_1" xmlns="http://www.w3.org/2000/svg" xmlns:xlink="http://www.w3.org/1999/xlink" x="0px" y="0px"
	 viewBox="0 0 758 511" style="enable-background:new 0 0 758 511;" xml:space="preserve">
<style type="text/css">
	.st0{fill:#FAF9ED;}
	.st1{fill:#59266C;}
	.st2{fill:#A0CBDA;}
	.st3{fill:#3D8D8B;}
	.st4{fill:none;stroke:#3D8D8B;stroke-width:2;}
	.st5{fill:#FFFFFF;}
</style>
<rect class="st0" width="758" height="511"/>
<path class="st1" d="M22.3,317.7c0,0-12,0-12,12v25.4c0,0,0,12,12,12h127.2c0,0,12,0,12-12v-25.4c0,0,0-12-12-12H22.3z"/>
<path class="st2" d="M406.3,65.7c51.1,0,92.5-11.1,92.5-24.7c0-13.6-41.4-24.7-92.5-24.7S313.8,27.3,313.8,41
	C313.8,54.6,355.3,65.7,406.3,65.7"/>
<path class="st2" d="M406.3,159.1c51.1,0,92.5-11.1,92.5-24.7c0-13.6-41.4-24.7-92.5-24.7s-92.5,11.1-92.5,24.7
	C313.8,148,355.3,159.1,406.3,159.1"/>
<path class="st2" d="M394.3,275.9c51.1,0,92.5-11.1,92.5-24.7c0-13.6-41.4-24.7-92.5-24.7s-92.5,11.1-92.5,24.7
	C301.8,264.9,343.3,275.9,394.3,275.9"/>
<path class="st2" d="M394.3,325.3c51.1,0,92.5-11.1,92.5-24.7c0-13.6-41.4-24.7-92.5-24.7s-92.5,11.1-92.5,24.7
	C301.8,314.3,343.3,325.3,394.3,325.3"/>
<path class="st2" d="M394.3,374.7c51.1,0,92.5-11.1,92.5-24.7c0-13.6-41.4-24.7-92.5-24.7s-92.5,11.1-92.5,24.7
	C301.8,363.7,343.3,374.7,394.3,374.7"/>
<path class="st2" d="M313,218.5c51.1,0,92.5-11.1,92.5-24.7c0-13.6-41.4-24.7-92.5-24.7s-92.5,11.1-92.5,24.7
	C220.5,207.5,262,218.5,313,218.5"/>
<path class="st2" d="M653.5,217.5c51.9,0,94-11.1,94-24.7c0-13.6-42.1-24.7-94-24.7c-51.9,0-94,11.1-94,24.7
	C559.5,206.5,601.6,217.5,653.5,217.5"/>
<path class="st2" d="M118.1,218.5c51.1,0,92.5-11.1,92.5-24.7c0-13.6-41.4-24.7-92.5-24.7s-92.5,11.1-92.5,24.7
	C25.6,207.5,67,218.5,118.1,218.5"/>
<path class="st2" d="M118.1,467.3c51.1,0,92.5-11.1,92.5-24.7c0-13.6-41.4-24.7-92.5-24.7S25.6,429,25.6,442.6
	C25.6,456.3,67,467.3,118.1,467.3"/>
<path class="st2" d="M606.7,466.3c51.1,0,92.5-11.1,92.5-24.7c0-13.6-41.4-24.7-92.5-24.7c-51.1,0-92.5,11.1-92.5,24.7
	C514.2,455.3,555.6,466.3,606.7,466.3"/>
<path class="st3" d="M206,116.1c51.1,0,92.5-11.1,92.5-24.7c0-13.6-41.4-24.7-92.5-24.7s-92.5,11.1-92.5,24.7
	C113.5,105,154.9,116.1,206,116.1"/>
<path class="st3" d="M586,115.1c51.1,0,92.5-11.1,92.5-24.7c0-13.6-41.4-24.7-92.5-24.7c-51.1,0-92.5,11.1-92.5,24.7
	C493.5,104,534.9,115.1,586,115.1"/>
<path class="st3" d="M655.5,325.3c49.7,0,90-11.1,90-24.7c0-13.6-40.3-24.7-90-24.7c-49.7,0-90,11.1-90,24.7
	C565.5,314.3,605.8,325.3,655.5,325.3"/>
<g>
	<path d="M362.8,40.7c0-1.1,0-2-0.1-2.9h1.5l0.1,1.8h0.1c0.4-1.2,1.4-2,2.5-2c0.2,0,0.3,0,0.5,0.1v1.6c-0.2,0-0.3-0.1-0.6-0.1
		c-1.2,0-2,0.9-2.2,2.1c0,0.2-0.1,0.5-0.1,0.8V47h-1.7V40.7z"/>
	<path d="M377.4,33.5v11.1c0,0.8,0,1.7,0.1,2.4H376l-0.1-1.6h0c-0.5,1-1.6,1.8-3.1,1.8c-2.2,0-3.9-1.9-3.9-4.7
		c0-3.1,1.9-4.9,4.1-4.9c1.4,0,2.4,0.7,2.8,1.4h0v-5.5H377.4z M375.7,41.6c0-0.2,0-0.5-0.1-0.7c-0.2-1.1-1.2-1.9-2.4-1.9
		c-1.7,0-2.8,1.5-2.8,3.6c0,1.9,0.9,3.4,2.7,3.4c1.1,0,2.1-0.7,2.5-2c0.1-0.2,0.1-0.5,0.1-0.7V41.6z"/>
	<path d="M380.8,47v-7.9h-1.3v-1.3h1.3v-0.4c0-1.3,0.3-2.5,1.1-3.2c0.6-0.6,1.5-0.9,2.2-0.9c0.6,0,1.1,0.1,1.4,0.3l-0.2,1.3
		c-0.2-0.1-0.6-0.2-1.1-0.2c-1.4,0-1.8,1.3-1.8,2.7v0.5h2.2v1.3h-2.2V47H380.8z"/>
	<path d="M386.4,45.3c0.5,0.3,1.4,0.7,2.2,0.7c1.2,0,1.8-0.6,1.8-1.4c0-0.8-0.5-1.2-1.7-1.7c-1.7-0.6-2.4-1.5-2.4-2.6
		c0-1.5,1.2-2.7,3.2-2.7c0.9,0,1.7,0.3,2.3,0.6l-0.4,1.2c-0.4-0.2-1-0.5-1.9-0.5c-1,0-1.5,0.6-1.5,1.3c0,0.8,0.6,1.1,1.7,1.6
		c1.6,0.6,2.4,1.4,2.4,2.8c0,1.6-1.3,2.8-3.4,2.8c-1,0-1.9-0.2-2.6-0.6L386.4,45.3z"/>
	<path d="M394.3,39.4c0-0.7,0.5-1.2,1.1-1.2s1.1,0.5,1.1,1.2c0,0.7-0.4,1.2-1.1,1.2C394.7,40.5,394.3,40,394.3,39.4z M394.3,46.1
		c0-0.7,0.5-1.2,1.1-1.2s1.1,0.5,1.1,1.2c0,0.7-0.4,1.2-1.1,1.2C394.7,47.2,394.3,46.7,394.3,46.1z"/>
	<path d="M399.1,40.7c0-1.1,0-2-0.1-2.9h1.5l0.1,1.8h0.1c0.4-1.2,1.4-2,2.5-2c0.2,0,0.3,0,0.5,0.1v1.6c-0.2,0-0.3-0.1-0.6-0.1
		c-1.2,0-2,0.9-2.2,2.1c0,0.2-0.1,0.5-0.1,0.8V47h-1.7V40.7z"/>
	<path d="M410.8,47l-0.1-1.2h-0.1c-0.5,0.7-1.5,1.4-2.8,1.4c-1.9,0-2.8-1.3-2.8-2.6c0-2.2,2-3.4,5.5-3.4V41c0-0.8-0.2-2.1-2.1-2.1
		c-0.9,0-1.7,0.3-2.4,0.7l-0.4-1.1c0.8-0.5,1.9-0.8,3-0.8c2.8,0,3.5,1.9,3.5,3.8v3.4c0,0.8,0,1.6,0.2,2.2H410.8z M410.6,42.3
		c-1.8,0-3.9,0.3-3.9,2.1c0,1.1,0.7,1.6,1.6,1.6c1.2,0,2-0.8,2.2-1.5c0.1-0.2,0.1-0.4,0.1-0.5V42.3z"/>
	<path d="M415.4,40.3c0-0.9,0-1.7-0.1-2.5h1.5l0.1,1.5h0c0.5-0.9,1.5-1.7,3-1.7c1.3,0,3.2,0.8,3.2,3.9V47h-1.7v-5.3
		c0-1.5-0.6-2.7-2.1-2.7c-1.1,0-2,0.8-2.2,1.7c-0.1,0.2-0.1,0.5-0.1,0.8V47h-1.7V40.3z"/>
	<path d="M434.3,37.8c0,0.7-0.1,1.4-0.1,2.5v5.3c0,2.1-0.4,3.4-1.3,4.2c-0.9,0.8-2.2,1.1-3.3,1.1c-1.1,0-2.3-0.3-3.1-0.8L427,49
		c0.6,0.4,1.6,0.7,2.7,0.7c1.7,0,3-0.9,3-3.2v-1h0c-0.5,0.9-1.5,1.5-2.9,1.5c-2.3,0-3.9-1.9-3.9-4.5c0-3.1,2-4.9,4.1-4.9
		c1.6,0,2.5,0.8,2.9,1.6h0l0.1-1.4H434.3z M432.6,41.5c0-0.3,0-0.5-0.1-0.8c-0.3-1-1.1-1.8-2.3-1.8c-1.6,0-2.7,1.3-2.7,3.5
		c0,1.8,0.9,3.3,2.7,3.3c1,0,2-0.6,2.3-1.7c0.1-0.3,0.1-0.6,0.1-0.9V41.5z"/>
	<path d="M438.4,42.7c0,2.3,1.5,3.2,3.2,3.2c1.2,0,1.9-0.2,2.5-0.5l0.3,1.2c-0.6,0.3-1.6,0.6-3.1,0.6c-2.8,0-4.5-1.9-4.5-4.6
		s1.6-5,4.3-5c3,0,3.8,2.6,3.8,4.3c0,0.3,0,0.6-0.1,0.8H438.4z M443.3,41.5c0-1.1-0.4-2.7-2.3-2.7c-1.7,0-2.4,1.6-2.6,2.7H443.3z"/>
</g>
<g>
	<path d="M356.2,134.2c0-1.1,0-2-0.1-2.9h1.5l0.1,1.8h0.1c0.4-1.2,1.4-2,2.5-2c0.2,0,0.3,0,0.5,0.1v1.6c-0.2,0-0.3-0.1-0.6-0.1
		c-1.2,0-2,0.9-2.2,2.1c0,0.2-0.1,0.5-0.1,0.8v4.9h-1.7V134.2z"/>
	<path d="M370.8,127v11.1c0,0.8,0,1.7,0.1,2.4h-1.5l-0.1-1.6h0c-0.5,1-1.6,1.8-3.1,1.8c-2.2,0-3.9-1.9-3.9-4.7
		c0-3.1,1.9-4.9,4.1-4.9c1.4,0,2.4,0.7,2.8,1.4h0V127H370.8z M369.1,135c0-0.2,0-0.5-0.1-0.7c-0.2-1.1-1.2-1.9-2.4-1.9
		c-1.7,0-2.8,1.5-2.8,3.6c0,1.9,0.9,3.4,2.7,3.4c1.1,0,2.1-0.7,2.5-2c0.1-0.2,0.1-0.5,0.1-0.7V135z"/>
	<path d="M374.2,140.5v-7.9h-1.3v-1.3h1.3v-0.4c0-1.3,0.3-2.5,1.1-3.2c0.6-0.6,1.5-0.9,2.2-0.9c0.6,0,1.1,0.1,1.4,0.3l-0.2,1.3
		c-0.2-0.1-0.6-0.2-1.1-0.2c-1.4,0-1.8,1.3-1.8,2.7v0.5h2.2v1.3h-2.2v7.9H374.2z"/>
	<path d="M379.9,138.8c0.5,0.3,1.4,0.7,2.2,0.7c1.2,0,1.8-0.6,1.8-1.4c0-0.8-0.5-1.2-1.7-1.7c-1.7-0.6-2.4-1.5-2.4-2.6
		c0-1.5,1.2-2.7,3.2-2.7c0.9,0,1.7,0.3,2.3,0.6l-0.4,1.2c-0.4-0.2-1-0.5-1.9-0.5c-1,0-1.5,0.6-1.5,1.3c0,0.8,0.6,1.1,1.7,1.6
		c1.6,0.6,2.4,1.4,2.4,2.8c0,1.6-1.3,2.8-3.4,2.8c-1,0-1.9-0.2-2.6-0.6L379.9,138.8z"/>
	<path d="M387.7,132.8c0-0.7,0.5-1.2,1.1-1.2c0.7,0,1.1,0.5,1.1,1.2c0,0.7-0.4,1.2-1.1,1.2C388.1,134,387.7,133.5,387.7,132.8z
		 M387.7,139.5c0-0.7,0.5-1.2,1.1-1.2c0.7,0,1.1,0.5,1.1,1.2c0,0.7-0.4,1.2-1.1,1.2C388.1,140.7,387.7,140.2,387.7,139.5z"/>
	<path d="M400.4,127v11.1c0,0.8,0,1.7,0.1,2.4H399l-0.1-1.6h0c-0.5,1-1.6,1.8-3.1,1.8c-2.2,0-3.9-1.9-3.9-4.7c0-3.1,1.9-4.9,4.1-4.9
		c1.4,0,2.4,0.7,2.8,1.4h0V127H400.4z M398.8,135c0-0.2,0-0.5-0.1-0.7c-0.2-1.1-1.2-1.9-2.4-1.9c-1.7,0-2.8,1.5-2.8,3.6
		c0,1.9,0.9,3.4,2.7,3.4c1.1,0,2.1-0.7,2.5-2c0.1-0.2,0.1-0.5,0.1-0.7V135z"/>
	<path d="M412,135.8c0,3.4-2.4,4.9-4.6,4.9c-2.5,0-4.4-1.8-4.4-4.7c0-3.1,2-4.9,4.6-4.9C410.2,131.1,412,133,412,135.8z
		 M404.7,135.9c0,2,1.2,3.5,2.8,3.5c1.6,0,2.8-1.5,2.8-3.6c0-1.6-0.8-3.5-2.8-3.5S404.7,134.2,404.7,135.9z"/>
	<path d="M414.6,133.8c0-0.9,0-1.7-0.1-2.5h1.5l0.1,1.5h0.1c0.5-0.9,1.4-1.7,2.9-1.7c1.3,0,2.2,0.8,2.6,1.8h0c0.3-0.5,0.6-0.9,1-1.2
		c0.6-0.4,1.2-0.6,2-0.6c1.2,0,3,0.8,3,4v5.4h-1.6v-5.2c0-1.8-0.6-2.8-2-2.8c-1,0-1.7,0.7-2,1.5c-0.1,0.2-0.1,0.5-0.1,0.8v5.7h-1.6
		V135c0-1.5-0.6-2.5-1.9-2.5c-1,0-1.8,0.8-2.1,1.7c-0.1,0.2-0.1,0.5-0.1,0.8v5.5h-1.6V133.8z"/>
	<path d="M436,140.5l-0.1-1.2h-0.1c-0.5,0.7-1.5,1.4-2.8,1.4c-1.9,0-2.8-1.3-2.8-2.6c0-2.2,2-3.4,5.5-3.4v-0.2
		c0-0.8-0.2-2.1-2.1-2.1c-0.9,0-1.7,0.3-2.4,0.7l-0.4-1.1c0.8-0.5,1.9-0.8,3-0.8c2.8,0,3.5,1.9,3.5,3.8v3.4c0,0.8,0,1.6,0.2,2.2H436
		z M435.7,135.8c-1.8,0-3.9,0.3-3.9,2.1c0,1.1,0.7,1.6,1.6,1.6c1.2,0,2-0.8,2.2-1.5c0.1-0.2,0.1-0.4,0.1-0.5V135.8z"/>
	<path d="M442.4,128.7c0,0.6-0.4,1-1.1,1c-0.6,0-1-0.5-1-1c0-0.6,0.4-1,1-1C442,127.7,442.4,128.1,442.4,128.7z M440.5,140.5v-9.2
		h1.7v9.2H440.5z"/>
	<path d="M445.5,133.8c0-0.9,0-1.7-0.1-2.5h1.5l0.1,1.5h0c0.5-0.9,1.5-1.7,3-1.7c1.3,0,3.2,0.8,3.2,3.9v5.5h-1.7v-5.3
		c0-1.5-0.6-2.7-2.1-2.7c-1.1,0-2,0.8-2.2,1.7c-0.1,0.2-0.1,0.5-0.1,0.8v5.5h-1.7V133.8z"/>
</g>
<g>
	<path d="M334.5,251c0-1.1,0-2-0.1-2.9h1.5l0.1,1.8h0.1c0.4-1.2,1.4-2,2.5-2c0.2,0,0.3,0,0.5,0.1v1.6c-0.2,0-0.3-0.1-0.6-0.1
		c-1.2,0-2,0.9-2.2,2.1c0,0.2-0.1,0.5-0.1,0.8v4.9h-1.7V251z"/>
	<path d="M349.1,243.8v11.1c0,0.8,0,1.7,0.1,2.4h-1.5l-0.1-1.6h0c-0.5,1-1.6,1.8-3.1,1.8c-2.2,0-3.9-1.9-3.9-4.7
		c0-3.1,1.9-4.9,4.1-4.9c1.4,0,2.4,0.7,2.8,1.4h0v-5.5H349.1z M347.5,251.9c0-0.2,0-0.5-0.1-0.7c-0.2-1.1-1.2-1.9-2.4-1.9
		c-1.7,0-2.8,1.5-2.8,3.6c0,1.9,0.9,3.4,2.7,3.4c1.1,0,2.1-0.7,2.5-2c0.1-0.2,0.1-0.5,0.1-0.7V251.9z"/>
	<path d="M352.5,257.3v-7.9h-1.3v-1.3h1.3v-0.4c0-1.3,0.3-2.5,1.1-3.2c0.6-0.6,1.5-0.9,2.2-0.9c0.6,0,1.1,0.1,1.4,0.3l-0.2,1.3
		c-0.2-0.1-0.6-0.2-1.1-0.2c-1.4,0-1.8,1.3-1.8,2.7v0.5h2.2v1.3h-2.2v7.9H352.5z"/>
	<path d="M358.2,255.6c0.5,0.3,1.4,0.7,2.2,0.7c1.2,0,1.8-0.6,1.8-1.4c0-0.8-0.5-1.2-1.7-1.7c-1.7-0.6-2.4-1.5-2.4-2.6
		c0-1.5,1.2-2.7,3.2-2.7c0.9,0,1.7,0.3,2.3,0.6l-0.4,1.2c-0.4-0.2-1-0.5-1.9-0.5c-1,0-1.5,0.6-1.5,1.3c0,0.8,0.6,1.1,1.7,1.6
		c1.6,0.6,2.4,1.4,2.4,2.8c0,1.6-1.3,2.8-3.4,2.8c-1,0-1.9-0.2-2.6-0.6L358.2,255.6z"/>
	<path d="M366,249.6c0-0.7,0.5-1.2,1.1-1.2c0.7,0,1.1,0.5,1.1,1.2c0,0.7-0.4,1.2-1.1,1.2C366.4,250.8,366,250.3,366,249.6z
		 M366,256.3c0-0.7,0.5-1.2,1.1-1.2c0.7,0,1.1,0.5,1.1,1.2c0,0.7-0.4,1.2-1.1,1.2C366.4,257.5,366,257,366,256.3z"/>
	<path d="M370.8,251.1c0-1.2,0-2.1-0.1-3h1.5l0.1,1.6h0c0.7-1.1,1.8-1.8,3.3-1.8c2.2,0,3.9,1.9,3.9,4.7c0,3.3-2,4.9-4.2,4.9
		c-1.2,0-2.3-0.5-2.8-1.4h0v5h-1.7V251.1z M372.4,253.6c0,0.2,0,0.5,0.1,0.7c0.3,1.2,1.3,2,2.5,2c1.8,0,2.8-1.4,2.8-3.6
		c0-1.8-1-3.4-2.7-3.4c-1.1,0-2.2,0.8-2.5,2.1c-0.1,0.2-0.1,0.5-0.1,0.7V253.6z"/>
	<path d="M382.1,251c0-1.1,0-2-0.1-2.9h1.5l0.1,1.8h0.1c0.4-1.2,1.4-2,2.5-2c0.2,0,0.3,0,0.5,0.1v1.6c-0.2,0-0.3-0.1-0.6-0.1
		c-1.2,0-2,0.9-2.2,2.1c0,0.2-0.1,0.5-0.1,0.8v4.9h-1.7V251z"/>
	<path d="M389.7,253c0,2.3,1.5,3.2,3.2,3.2c1.2,0,1.9-0.2,2.5-0.5l0.3,1.2c-0.6,0.3-1.6,0.6-3.1,0.6c-2.8,0-4.5-1.9-4.5-4.6
		s1.6-5,4.3-5c3,0,3.8,2.6,3.8,4.3c0,0.3,0,0.6-0.1,0.8H389.7z M394.6,251.8c0-1.1-0.4-2.7-2.3-2.7c-1.7,0-2.4,1.6-2.6,2.7H394.6z"
		/>
	<path d="M406.7,243.8v11.1c0,0.8,0,1.7,0.1,2.4h-1.5l-0.1-1.6h0c-0.5,1-1.6,1.8-3.1,1.8c-2.2,0-3.9-1.9-3.9-4.7
		c0-3.1,1.9-4.9,4.1-4.9c1.4,0,2.4,0.7,2.8,1.4h0v-5.5H406.7z M405,251.9c0-0.2,0-0.5-0.1-0.7c-0.2-1.1-1.2-1.9-2.4-1.9
		c-1.7,0-2.8,1.5-2.8,3.6c0,1.9,0.9,3.4,2.7,3.4c1.1,0,2.1-0.7,2.5-2c0.1-0.2,0.1-0.5,0.1-0.7V251.9z"/>
	<path d="M411.8,245.5c0,0.6-0.4,1-1.1,1c-0.6,0-1-0.5-1-1c0-0.6,0.4-1,1-1C411.4,244.5,411.8,244.9,411.8,245.5z M409.9,257.3v-9.2
		h1.7v9.2H409.9z"/>
	<path d="M421.4,257c-0.4,0.2-1.4,0.5-2.6,0.5c-2.8,0-4.6-1.9-4.6-4.7c0-2.8,1.9-4.9,4.9-4.9c1,0,1.9,0.2,2.3,0.5l-0.4,1.3
		c-0.4-0.2-1-0.4-1.9-0.4c-2.1,0-3.2,1.6-3.2,3.5c0,2.1,1.4,3.4,3.2,3.4c0.9,0,1.6-0.2,2.1-0.5L421.4,257z"/>
	<path d="M428.9,257.3l-0.1-1.2h-0.1c-0.5,0.7-1.5,1.4-2.8,1.4c-1.9,0-2.8-1.3-2.8-2.6c0-2.2,2-3.4,5.5-3.4v-0.2
		c0-0.8-0.2-2.1-2.1-2.1c-0.9,0-1.7,0.3-2.4,0.7l-0.4-1.1c0.8-0.5,1.9-0.8,3-0.8c2.8,0,3.5,1.9,3.5,3.8v3.4c0,0.8,0,1.6,0.2,2.2
		H428.9z M428.7,252.6c-1.8,0-3.9,0.3-3.9,2.1c0,1.1,0.7,1.6,1.6,1.6c1.2,0,2-0.8,2.2-1.5c0.1-0.2,0.1-0.4,0.1-0.5V252.6z"/>
	<path d="M435.5,245.5v2.6h2.4v1.3h-2.4v5c0,1.1,0.3,1.8,1.3,1.8c0.4,0,0.8-0.1,1-0.1l0.1,1.3c-0.3,0.1-0.8,0.2-1.5,0.2
		c-0.8,0-1.4-0.2-1.8-0.7c-0.5-0.5-0.6-1.3-0.6-2.4v-5h-1.4v-1.3h1.4v-2.2L435.5,245.5z"/>
	<path d="M441.2,253c0,2.3,1.5,3.2,3.2,3.2c1.2,0,1.9-0.2,2.5-0.5l0.3,1.2c-0.6,0.3-1.6,0.6-3.1,0.6c-2.8,0-4.5-1.9-4.5-4.6
		s1.6-5,4.3-5c3,0,3.8,2.6,3.8,4.3c0,0.3,0,0.6-0.1,0.8H441.2z M446.1,251.8c0-1.1-0.4-2.7-2.3-2.7c-1.7,0-2.4,1.6-2.6,2.7H446.1z"
		/>
</g>
<g>
	<path d="M343.9,300.4c0-1.1,0-2-0.1-2.9h1.5l0.1,1.8h0.1c0.4-1.2,1.4-2,2.5-2c0.2,0,0.3,0,0.5,0.1v1.6c-0.2,0-0.3-0.1-0.6-0.1
		c-1.2,0-2,0.9-2.2,2.1c0,0.2-0.1,0.5-0.1,0.8v4.9h-1.7V300.4z"/>
	<path d="M358.5,293.2v11.1c0,0.8,0,1.7,0.1,2.4h-1.5l-0.1-1.6h0c-0.5,1-1.6,1.8-3.1,1.8c-2.2,0-3.9-1.9-3.9-4.7
		c0-3.1,1.9-4.9,4.1-4.9c1.4,0,2.4,0.7,2.8,1.4h0v-5.5H358.5z M356.8,301.3c0-0.2,0-0.5-0.1-0.7c-0.2-1.1-1.2-1.9-2.4-1.9
		c-1.7,0-2.8,1.5-2.8,3.6c0,1.9,0.9,3.4,2.7,3.4c1.1,0,2.1-0.7,2.5-2c0.1-0.2,0.1-0.5,0.1-0.7V301.3z"/>
	<path d="M361.9,306.7v-7.9h-1.3v-1.3h1.3v-0.4c0-1.3,0.3-2.5,1.1-3.2c0.6-0.6,1.5-0.9,2.2-0.9c0.6,0,1.1,0.1,1.4,0.3l-0.2,1.3
		c-0.2-0.1-0.6-0.2-1.1-0.2c-1.4,0-1.8,1.3-1.8,2.7v0.5h2.2v1.3h-2.2v7.9H361.9z"/>
	<path d="M367.5,305c0.5,0.3,1.4,0.7,2.2,0.7c1.2,0,1.8-0.6,1.8-1.4c0-0.8-0.5-1.2-1.7-1.7c-1.7-0.6-2.4-1.5-2.4-2.6
		c0-1.5,1.2-2.7,3.2-2.7c0.9,0,1.7,0.3,2.3,0.6l-0.4,1.2c-0.4-0.2-1-0.5-1.9-0.5c-1,0-1.5,0.6-1.5,1.3c0,0.8,0.6,1.1,1.7,1.6
		c1.6,0.6,2.4,1.4,2.4,2.8c0,1.6-1.3,2.8-3.4,2.8c-1,0-1.9-0.2-2.6-0.6L367.5,305z"/>
	<path d="M375.3,299c0-0.7,0.5-1.2,1.1-1.2c0.7,0,1.1,0.5,1.1,1.2c0,0.7-0.4,1.2-1.1,1.2C375.8,300.2,375.3,299.7,375.3,299z
		 M375.3,305.7c0-0.7,0.5-1.2,1.1-1.2c0.7,0,1.1,0.5,1.1,1.2c0,0.7-0.4,1.2-1.1,1.2C375.8,306.9,375.3,306.4,375.3,305.7z"/>
	<path d="M379.9,305c0.5,0.3,1.4,0.7,2.2,0.7c1.2,0,1.8-0.6,1.8-1.4c0-0.8-0.5-1.2-1.7-1.7c-1.7-0.6-2.4-1.5-2.4-2.6
		c0-1.5,1.2-2.7,3.2-2.7c0.9,0,1.7,0.3,2.3,0.6l-0.4,1.2c-0.4-0.2-1-0.5-1.9-0.5c-1,0-1.5,0.6-1.5,1.3c0,0.8,0.6,1.1,1.7,1.6
		c1.6,0.6,2.4,1.4,2.4,2.8c0,1.6-1.3,2.8-3.4,2.8c-1,0-1.9-0.2-2.6-0.6L379.9,305z"/>
	<path d="M395.8,304.2c0,1,0,1.8,0.1,2.5h-1.5l-0.1-1.5h0c-0.4,0.7-1.4,1.7-3,1.7c-1.4,0-3.2-0.8-3.2-4v-5.4h1.7v5.1
		c0,1.7,0.5,2.9,2.1,2.9c1.1,0,1.9-0.8,2.2-1.5c0.1-0.2,0.2-0.6,0.2-0.9v-5.6h1.7V304.2z"/>
	<path d="M399,306.7c0-0.6,0.1-1.6,0.1-2.4v-11.1h1.7v5.8h0c0.6-1,1.7-1.7,3.1-1.7c2.3,0,3.9,1.9,3.9,4.7c0,3.3-2.1,4.9-4.1,4.9
		c-1.3,0-2.4-0.5-3.1-1.7h-0.1l-0.1,1.5H399z M400.7,303c0,0.2,0,0.4,0.1,0.6c0.3,1.2,1.3,2,2.5,2c1.7,0,2.8-1.4,2.8-3.5
		c0-1.8-1-3.4-2.7-3.4c-1.1,0-2.2,0.8-2.5,2.1c0,0.2-0.1,0.4-0.1,0.7V303z"/>
	<path d="M408.1,309.4c0.8-0.1,1.4-0.3,1.8-0.7c0.5-0.5,0.6-1.3,0.6-3.5v-7.7h1.7v8.3c0,1.8-0.3,2.9-1.1,3.8c-0.7,0.7-2,1-2.8,1
		L408.1,309.4z M412.4,294.9c0,0.6-0.4,1-1,1c-0.6,0-1-0.5-1-1c0-0.6,0.4-1,1.1-1C412,293.9,412.4,294.3,412.4,294.9z"/>
	<path d="M416.4,302.4c0,2.3,1.5,3.2,3.2,3.2c1.2,0,1.9-0.2,2.5-0.5l0.3,1.2c-0.6,0.3-1.6,0.6-3.1,0.6c-2.8,0-4.5-1.9-4.5-4.6
		s1.6-5,4.3-5c3,0,3.8,2.6,3.8,4.3c0,0.3,0,0.6-0.1,0.8H416.4z M421.3,301.2c0-1.1-0.4-2.7-2.3-2.7c-1.7,0-2.4,1.6-2.6,2.7H421.3z"
		/>
	<path d="M432,306.4c-0.4,0.2-1.4,0.5-2.6,0.5c-2.8,0-4.6-1.9-4.6-4.7c0-2.8,1.9-4.9,4.9-4.9c1,0,1.9,0.2,2.3,0.5l-0.4,1.3
		c-0.4-0.2-1-0.4-1.9-0.4c-2.1,0-3.2,1.6-3.2,3.5c0,2.1,1.4,3.4,3.2,3.4c0.9,0,1.6-0.2,2.1-0.5L432,306.4z"/>
	<path d="M436.5,294.9v2.6h2.4v1.3h-2.4v5c0,1.1,0.3,1.8,1.3,1.8c0.4,0,0.8-0.1,1-0.1l0.1,1.3c-0.3,0.1-0.8,0.2-1.5,0.2
		c-0.8,0-1.4-0.2-1.8-0.7c-0.5-0.5-0.6-1.3-0.6-2.4v-5h-1.4v-1.3h1.4v-2.2L436.5,294.9z"/>
</g>
<g>
	<path d="M348.9,349.8c0-1.1,0-2-0.1-2.9h1.5l0.1,1.8h0.1c0.4-1.2,1.4-2,2.5-2c0.2,0,0.3,0,0.5,0.1v1.6c-0.2,0-0.3-0.1-0.6-0.1
		c-1.2,0-2,0.9-2.2,2.1c0,0.2-0.1,0.5-0.1,0.8v4.9h-1.7V349.8z"/>
	<path d="M363.6,342.6v11.1c0,0.8,0,1.7,0.1,2.4h-1.5l-0.1-1.6h0c-0.5,1-1.6,1.8-3.1,1.8c-2.2,0-3.9-1.9-3.9-4.7
		c0-3.1,1.9-4.9,4.1-4.9c1.4,0,2.4,0.7,2.8,1.4h0v-5.5H363.6z M361.9,350.7c0-0.2,0-0.5-0.1-0.7c-0.2-1.1-1.2-1.9-2.4-1.9
		c-1.7,0-2.8,1.5-2.8,3.6c0,1.9,0.9,3.4,2.7,3.4c1.1,0,2.1-0.7,2.5-2c0.1-0.2,0.1-0.5,0.1-0.7V350.7z"/>
	<path d="M367,356.1v-7.9h-1.3v-1.3h1.3v-0.4c0-1.3,0.3-2.5,1.1-3.2c0.6-0.6,1.5-0.9,2.2-0.9c0.6,0,1.1,0.1,1.4,0.3l-0.2,1.3
		c-0.2-0.1-0.6-0.2-1.1-0.2c-1.4,0-1.8,1.3-1.8,2.7v0.5h2.2v1.3h-2.2v7.9H367z"/>
	<path d="M372.6,354.4c0.5,0.3,1.4,0.7,2.2,0.7c1.2,0,1.8-0.6,1.8-1.4c0-0.8-0.5-1.2-1.7-1.7c-1.7-0.6-2.4-1.5-2.4-2.6
		c0-1.5,1.2-2.7,3.2-2.7c0.9,0,1.7,0.3,2.3,0.6l-0.4,1.2c-0.4-0.2-1-0.5-1.9-0.5c-1,0-1.5,0.6-1.5,1.3c0,0.8,0.6,1.1,1.7,1.6
		c1.6,0.6,2.4,1.4,2.4,2.8c0,1.6-1.3,2.8-3.4,2.8c-1,0-1.9-0.2-2.6-0.6L372.6,354.4z"/>
	<path d="M380.4,348.4c0-0.7,0.5-1.2,1.1-1.2s1.1,0.5,1.1,1.2c0,0.7-0.4,1.2-1.1,1.2C380.9,349.6,380.4,349.1,380.4,348.4z
		 M380.4,355.1c0-0.7,0.5-1.2,1.1-1.2s1.1,0.5,1.1,1.2c0,0.7-0.4,1.2-1.1,1.2C380.9,356.3,380.4,355.8,380.4,355.1z"/>
	<path d="M393.5,351.4c0,3.4-2.4,4.9-4.6,4.9c-2.5,0-4.4-1.8-4.4-4.7c0-3.1,2-4.9,4.6-4.9C391.7,346.7,393.5,348.6,393.5,351.4z
		 M386.2,351.5c0,2,1.2,3.5,2.8,3.5c1.6,0,2.8-1.5,2.8-3.6c0-1.6-0.8-3.5-2.8-3.5S386.2,349.8,386.2,351.5z"/>
	<path d="M396,356.1c0-0.6,0.1-1.6,0.1-2.4v-11.1h1.7v5.8h0c0.6-1,1.7-1.7,3.1-1.7c2.3,0,3.9,1.9,3.9,4.7c0,3.3-2.1,4.9-4.1,4.9
		c-1.3,0-2.4-0.5-3.1-1.7h-0.1l-0.1,1.5H396z M397.8,352.4c0,0.2,0,0.4,0.1,0.6c0.3,1.2,1.3,2,2.5,2c1.7,0,2.8-1.4,2.8-3.5
		c0-1.8-1-3.4-2.7-3.4c-1.1,0-2.2,0.8-2.5,2.1c0,0.2-0.1,0.4-0.1,0.7V352.4z"/>
	<path d="M405.2,358.8c0.8-0.1,1.4-0.3,1.8-0.7c0.5-0.5,0.6-1.3,0.6-3.5v-7.7h1.7v8.3c0,1.8-0.3,2.9-1.1,3.8c-0.7,0.7-2,1-2.8,1
		L405.2,358.8z M409.5,344.3c0,0.6-0.4,1-1,1c-0.6,0-1-0.5-1-1c0-0.6,0.4-1,1.1-1C409.1,343.3,409.5,343.7,409.5,344.3z"/>
	<path d="M413.4,351.8c0,2.3,1.5,3.2,3.2,3.2c1.2,0,1.9-0.2,2.5-0.5l0.3,1.2c-0.6,0.3-1.6,0.6-3.1,0.6c-2.8,0-4.5-1.9-4.5-4.6
		s1.6-5,4.3-5c3,0,3.8,2.6,3.8,4.3c0,0.3,0,0.6-0.1,0.8H413.4z M418.3,350.6c0-1.1-0.4-2.7-2.3-2.7c-1.7,0-2.4,1.6-2.6,2.7H418.3z"
		/>
	<path d="M429,355.8c-0.4,0.2-1.4,0.5-2.6,0.5c-2.8,0-4.6-1.9-4.6-4.7c0-2.8,1.9-4.9,4.9-4.9c1,0,1.9,0.2,2.3,0.5l-0.4,1.3
		c-0.4-0.2-1-0.4-1.9-0.4c-2.1,0-3.2,1.6-3.2,3.5c0,2.1,1.4,3.4,3.2,3.4c0.9,0,1.6-0.2,2.1-0.5L429,355.8z"/>
	<path d="M433.5,344.3v2.6h2.4v1.3h-2.4v5c0,1.1,0.3,1.8,1.3,1.8c0.4,0,0.8-0.1,1-0.1l0.1,1.3c-0.3,0.1-0.8,0.2-1.5,0.2
		c-0.8,0-1.4-0.2-1.8-0.7c-0.5-0.5-0.6-1.3-0.6-2.4v-5h-1.4v-1.3h1.4v-2.2L433.5,344.3z"/>
</g>
<g>
	<path d="M245.2,193.6c0-1.1,0-2-0.1-2.9h1.5l0.1,1.8h0.1c0.4-1.2,1.4-2,2.5-2c0.2,0,0.3,0,0.5,0.1v1.6c-0.2,0-0.3-0.1-0.6-0.1
		c-1.2,0-2,0.9-2.2,2.1c0,0.2-0.1,0.5-0.1,0.8v4.9h-1.7V193.6z"/>
	<path d="M259.9,186.4v11.1c0,0.8,0,1.7,0.1,2.4h-1.5l-0.1-1.6h0c-0.5,1-1.6,1.8-3.1,1.8c-2.2,0-3.9-1.9-3.9-4.7
		c0-3.1,1.9-4.9,4.1-4.9c1.4,0,2.4,0.7,2.8,1.4h0v-5.5H259.9z M258.2,194.4c0-0.2,0-0.5-0.1-0.7c-0.2-1.1-1.2-1.9-2.4-1.9
		c-1.7,0-2.8,1.5-2.8,3.6c0,1.9,0.9,3.4,2.7,3.4c1.1,0,2.1-0.7,2.5-2c0.1-0.2,0.1-0.5,0.1-0.7V194.4z"/>
	<path d="M263.3,199.9V192H262v-1.3h1.3v-0.4c0-1.3,0.3-2.5,1.1-3.2c0.6-0.6,1.5-0.9,2.2-0.9c0.6,0,1.1,0.1,1.4,0.3l-0.2,1.3
		c-0.2-0.1-0.6-0.2-1.1-0.2c-1.4,0-1.8,1.3-1.8,2.7v0.5h2.2v1.3h-2.2v7.9H263.3z"/>
	<path d="M268.9,198.2c0.5,0.3,1.4,0.7,2.2,0.7c1.2,0,1.8-0.6,1.8-1.4c0-0.8-0.5-1.2-1.7-1.7c-1.7-0.6-2.4-1.5-2.4-2.6
		c0-1.5,1.2-2.7,3.2-2.7c0.9,0,1.7,0.3,2.3,0.6l-0.4,1.2c-0.4-0.2-1-0.5-1.9-0.5c-1,0-1.5,0.6-1.5,1.3c0,0.8,0.6,1.1,1.7,1.6
		c1.6,0.6,2.4,1.4,2.4,2.8c0,1.6-1.3,2.8-3.4,2.8c-1,0-1.9-0.2-2.6-0.6L268.9,198.2z"/>
	<path d="M276.7,192.2c0-0.7,0.5-1.2,1.1-1.2c0.7,0,1.1,0.5,1.1,1.2c0,0.7-0.4,1.2-1.1,1.2C277.1,193.4,276.7,192.9,276.7,192.2z
		 M276.7,198.9c0-0.7,0.5-1.2,1.1-1.2c0.7,0,1.1,0.5,1.1,1.2c0,0.7-0.4,1.2-1.1,1.2C277.1,200.1,276.7,199.6,276.7,198.9z"/>
	<path d="M281.3,198.2c0.5,0.3,1.4,0.7,2.2,0.7c1.2,0,1.8-0.6,1.8-1.4c0-0.8-0.5-1.2-1.7-1.7c-1.7-0.6-2.4-1.5-2.4-2.6
		c0-1.5,1.2-2.7,3.2-2.7c0.9,0,1.7,0.3,2.3,0.6l-0.4,1.2c-0.4-0.2-1-0.5-1.9-0.5c-1,0-1.5,0.6-1.5,1.3c0,0.8,0.6,1.1,1.7,1.6
		c1.6,0.6,2.4,1.4,2.4,2.8c0,1.6-1.3,2.8-3.4,2.8c-1,0-1.9-0.2-2.6-0.6L281.3,198.2z"/>
	<path d="M297.2,197.4c0,1,0,1.8,0.1,2.5h-1.5l-0.1-1.5h0c-0.4,0.7-1.4,1.7-3,1.7c-1.4,0-3.2-0.8-3.2-4v-5.4h1.7v5.1
		c0,1.7,0.5,2.9,2.1,2.9c1.1,0,1.9-0.8,2.2-1.5c0.1-0.2,0.2-0.6,0.2-0.9v-5.6h1.7V197.4z"/>
	<path d="M300.4,199.9c0-0.6,0.1-1.6,0.1-2.4v-11.1h1.7v5.8h0c0.6-1,1.7-1.7,3.1-1.7c2.3,0,3.9,1.9,3.9,4.7c0,3.3-2.1,4.9-4.1,4.9
		c-1.3,0-2.4-0.5-3.1-1.7h-0.1l-0.1,1.5H300.4z M302.1,196.2c0,0.2,0,0.4,0.1,0.6c0.3,1.2,1.3,2,2.5,2c1.7,0,2.8-1.4,2.8-3.5
		c0-1.8-0.9-3.4-2.7-3.4c-1.1,0-2.2,0.8-2.5,2.1c0,0.2-0.1,0.4-0.1,0.7V196.2z"/>
	<path d="M320.7,199.5c-0.6,0.3-1.8,0.6-3.4,0.6c-3.6,0-6.3-2.3-6.3-6.5c0-4,2.7-6.7,6.7-6.7c1.6,0,2.6,0.3,3,0.6l-0.4,1.3
		c-0.6-0.3-1.5-0.5-2.6-0.5c-3,0-5,1.9-5,5.3c0,3.1,1.8,5.1,4.9,5.1c1,0,2-0.2,2.7-0.5L320.7,199.5z"/>
	<path d="M323.2,186.4h1.7v13.5h-1.7V186.4z"/>
	<path d="M333.3,199.9l-0.1-1.2h-0.1c-0.5,0.7-1.5,1.4-2.8,1.4c-1.9,0-2.8-1.3-2.8-2.6c0-2.2,2-3.4,5.5-3.4v-0.2
		c0-0.8-0.2-2.1-2.1-2.1c-0.9,0-1.7,0.3-2.4,0.7l-0.4-1.1c0.8-0.5,1.9-0.8,3-0.8c2.8,0,3.5,1.9,3.5,3.8v3.4c0,0.8,0,1.6,0.2,2.2
		H333.3z M333,195.2c-1.8,0-3.9,0.3-3.9,2.1c0,1.1,0.7,1.6,1.6,1.6c1.2,0,2-0.8,2.2-1.5c0.1-0.2,0.1-0.4,0.1-0.5V195.2z"/>
	<path d="M337.6,198.2c0.5,0.3,1.4,0.7,2.2,0.7c1.2,0,1.8-0.6,1.8-1.4c0-0.8-0.5-1.2-1.7-1.7c-1.7-0.6-2.4-1.5-2.4-2.6
		c0-1.5,1.2-2.7,3.2-2.7c0.9,0,1.7,0.3,2.3,0.6l-0.4,1.2c-0.4-0.2-1-0.5-1.9-0.5c-1,0-1.5,0.6-1.5,1.3c0,0.8,0.6,1.1,1.7,1.6
		c1.6,0.6,2.4,1.4,2.4,2.8c0,1.6-1.3,2.8-3.4,2.8c-1,0-1.9-0.2-2.6-0.6L337.6,198.2z"/>
	<path d="M345.6,198.2c0.5,0.3,1.4,0.7,2.2,0.7c1.2,0,1.8-0.6,1.8-1.4c0-0.8-0.5-1.2-1.7-1.7c-1.7-0.6-2.4-1.5-2.4-2.6
		c0-1.5,1.2-2.7,3.2-2.7c0.9,0,1.7,0.3,2.3,0.6l-0.4,1.2c-0.4-0.2-1-0.5-1.9-0.5c-1,0-1.5,0.6-1.5,1.3c0,0.8,0.6,1.1,1.7,1.6
		c1.6,0.6,2.4,1.4,2.4,2.8c0,1.6-1.3,2.8-3.4,2.8c-1,0-1.9-0.2-2.6-0.6L345.6,198.2z"/>
	<path d="M364.8,193.4c0,4.4-2.7,6.7-5.9,6.7c-3.4,0-5.8-2.6-5.8-6.5c0-4.1,2.5-6.7,5.9-6.7C362.5,186.9,364.8,189.6,364.8,193.4z
		 M354.9,193.6c0,2.7,1.5,5.2,4.1,5.2c2.6,0,4.1-2.4,4.1-5.3c0-2.5-1.3-5.2-4.1-5.2C356.2,188.2,354.9,190.8,354.9,193.6z"/>
	<path d="M367.5,199.9V192h-1.3v-1.3h1.3v-0.4c0-1.3,0.3-2.5,1.1-3.2c0.6-0.6,1.5-0.9,2.2-0.9c0.6,0,1.1,0.1,1.4,0.3l-0.2,1.3
		c-0.2-0.1-0.6-0.2-1.1-0.2c-1.4,0-1.8,1.3-1.8,2.7v0.5h2.2v1.3h-2.2v7.9H367.5z"/>
</g>
<g>
	<path d="M575.6,192.6c0-1.1,0-2-0.1-2.9h1.5l0.1,1.8h0.1c0.4-1.2,1.4-2,2.5-2c0.2,0,0.3,0,0.5,0.1v1.6c-0.2,0-0.3-0.1-0.6-0.1
		c-1.2,0-2,0.9-2.2,2.1c0,0.2-0.1,0.5-0.1,0.8v4.9h-1.7V192.6z"/>
	<path d="M590.2,185.4v11.1c0,0.8,0,1.7,0.1,2.4h-1.5l-0.1-1.6h0c-0.5,1-1.6,1.8-3.1,1.8c-2.2,0-3.9-1.9-3.9-4.7
		c0-3.1,1.9-4.9,4.1-4.9c1.4,0,2.4,0.7,2.8,1.4h0v-5.5H590.2z M588.5,193.4c0-0.2,0-0.5-0.1-0.7c-0.2-1.1-1.2-1.9-2.4-1.9
		c-1.7,0-2.8,1.5-2.8,3.6c0,1.9,0.9,3.4,2.7,3.4c1.1,0,2.1-0.7,2.5-2c0.1-0.2,0.1-0.5,0.1-0.7V193.4z"/>
	<path d="M593.6,198.9V191h-1.3v-1.3h1.3v-0.4c0-1.3,0.3-2.5,1.1-3.2c0.6-0.6,1.5-0.9,2.2-0.9c0.6,0,1.1,0.1,1.4,0.3l-0.2,1.3
		c-0.2-0.1-0.6-0.2-1.1-0.2c-1.4,0-1.8,1.3-1.8,2.7v0.5h2.2v1.3h-2.2v7.9H593.6z"/>
	<path d="M599.2,197.2c0.5,0.3,1.4,0.7,2.2,0.7c1.2,0,1.8-0.6,1.8-1.4c0-0.8-0.5-1.2-1.7-1.7c-1.7-0.6-2.4-1.5-2.4-2.6
		c0-1.5,1.2-2.7,3.2-2.7c0.9,0,1.7,0.3,2.3,0.6l-0.4,1.2c-0.4-0.2-1-0.5-1.9-0.5c-1,0-1.5,0.6-1.5,1.3c0,0.8,0.6,1.1,1.7,1.6
		c1.6,0.6,2.4,1.4,2.4,2.8c0,1.6-1.3,2.8-3.4,2.8c-1,0-1.9-0.2-2.6-0.6L599.2,197.2z"/>
	<path d="M607,191.2c0-0.7,0.5-1.2,1.1-1.2s1.1,0.5,1.1,1.2c0,0.7-0.4,1.2-1.1,1.2C607.5,192.4,607,191.9,607,191.2z M607,197.9
		c0-0.7,0.5-1.2,1.1-1.2s1.1,0.5,1.1,1.2c0,0.7-0.4,1.2-1.1,1.2C607.5,199.1,607,198.6,607,197.9z"/>
	<path d="M611.6,197.2c0.5,0.3,1.4,0.7,2.2,0.7c1.2,0,1.8-0.6,1.8-1.4c0-0.8-0.5-1.2-1.7-1.7c-1.7-0.6-2.4-1.5-2.4-2.6
		c0-1.5,1.2-2.7,3.2-2.7c0.9,0,1.7,0.3,2.3,0.6l-0.4,1.2c-0.4-0.2-1-0.5-1.9-0.5c-1,0-1.5,0.6-1.5,1.3c0,0.8,0.6,1.1,1.7,1.6
		c1.6,0.6,2.4,1.4,2.4,2.8c0,1.6-1.3,2.8-3.4,2.8c-1,0-1.9-0.2-2.6-0.6L611.6,197.2z"/>
	<path d="M627.5,196.4c0,1,0,1.8,0.1,2.5h-1.5l-0.1-1.5h0c-0.4,0.7-1.4,1.7-3,1.7c-1.4,0-3.2-0.8-3.2-4v-5.4h1.7v5.1
		c0,1.7,0.5,2.9,2.1,2.9c1.1,0,1.9-0.8,2.2-1.5c0.1-0.2,0.2-0.6,0.2-0.9v-5.6h1.7V196.4z"/>
	<path d="M630.7,198.9c0-0.6,0.1-1.6,0.1-2.4v-11.1h1.7v5.8h0c0.6-1,1.7-1.7,3.1-1.7c2.3,0,3.9,1.9,3.9,4.7c0,3.3-2.1,4.9-4.1,4.9
		c-1.3,0-2.4-0.5-3.1-1.7h-0.1l-0.1,1.5H630.7z M632.4,195.2c0,0.2,0,0.4,0.1,0.6c0.3,1.2,1.3,2,2.5,2c1.7,0,2.8-1.4,2.8-3.5
		c0-1.8-1-3.4-2.7-3.4c-1.1,0-2.2,0.8-2.5,2.1c0,0.2-0.1,0.4-0.1,0.7V195.2z"/>
	<path d="M642.1,186.2c0.8-0.1,1.8-0.2,3.2-0.2c1.6,0,2.8,0.4,3.6,1.1c0.7,0.6,1.1,1.5,1.1,2.7c0,1.2-0.3,2.1-1,2.7
		c-0.9,0.9-2.3,1.4-3.9,1.4c-0.5,0-1,0-1.3-0.1v5.1h-1.7V186.2z M643.8,192.4c0.4,0.1,0.8,0.1,1.4,0.1c2,0,3.2-1,3.2-2.7
		c0-1.7-1.2-2.5-3-2.5c-0.7,0-1.3,0.1-1.6,0.1V192.4z"/>
	<path d="M652.6,192.6c0-1.1,0-2-0.1-2.9h1.5l0.1,1.8h0.1c0.4-1.2,1.4-2,2.5-2c0.2,0,0.3,0,0.5,0.1v1.6c-0.2,0-0.3-0.1-0.6-0.1
		c-1.2,0-2,0.9-2.2,2.1c0,0.2-0.1,0.5-0.1,0.8v4.9h-1.7V192.6z"/>
	<path d="M667.6,194.2c0,3.4-2.4,4.9-4.6,4.9c-2.5,0-4.4-1.8-4.4-4.7c0-3.1,2-4.9,4.6-4.9C665.9,189.5,667.6,191.4,667.6,194.2z
		 M660.4,194.3c0,2,1.2,3.5,2.8,3.5c1.6,0,2.8-1.5,2.8-3.6c0-1.6-0.8-3.5-2.8-3.5S660.4,192.6,660.4,194.3z"/>
	<path d="M670.2,192.7c0-1.2,0-2.1-0.1-3h1.5l0.1,1.6h0c0.7-1.1,1.8-1.8,3.3-1.8c2.2,0,3.9,1.9,3.9,4.7c0,3.3-2,4.9-4.2,4.9
		c-1.2,0-2.3-0.5-2.8-1.4h0v5h-1.7V192.7z M671.9,195.1c0,0.2,0,0.5,0.1,0.7c0.3,1.2,1.3,2,2.5,2c1.8,0,2.8-1.4,2.8-3.6
		c0-1.8-1-3.4-2.7-3.4c-1.1,0-2.2,0.8-2.5,2.1c-0.1,0.2-0.1,0.5-0.1,0.7V195.1z"/>
	<path d="M682.4,194.6c0,2.3,1.5,3.2,3.2,3.2c1.2,0,1.9-0.2,2.5-0.5l0.3,1.2c-0.6,0.3-1.6,0.6-3.1,0.6c-2.8,0-4.5-1.9-4.5-4.6
		s1.6-5,4.3-5c3,0,3.8,2.6,3.8,4.3c0,0.3,0,0.6-0.1,0.8H682.4z M687.3,193.4c0-1.1-0.4-2.7-2.3-2.7c-1.7,0-2.4,1.6-2.6,2.7H687.3z"
		/>
	<path d="M691.5,192.6c0-1.1,0-2-0.1-2.9h1.5l0.1,1.8h0.1c0.4-1.2,1.4-2,2.5-2c0.2,0,0.3,0,0.5,0.1v1.6c-0.2,0-0.3-0.1-0.6-0.1
		c-1.2,0-2,0.9-2.2,2.1c0,0.2-0.1,0.5-0.1,0.8v4.9h-1.7V192.6z"/>
	<path d="M700.2,187.1v2.6h2.4v1.3h-2.4v5c0,1.1,0.3,1.8,1.3,1.8c0.4,0,0.8-0.1,1-0.1l0.1,1.3c-0.3,0.1-0.8,0.2-1.5,0.2
		c-0.8,0-1.4-0.2-1.8-0.7c-0.5-0.5-0.6-1.3-0.6-2.4v-5h-1.4v-1.3h1.4v-2.2L700.2,187.1z"/>
	<path d="M705.6,189.7l2,5.4c0.2,0.6,0.4,1.3,0.6,1.9h0c0.2-0.6,0.4-1.3,0.6-1.9l1.8-5.4h1.8l-2.5,6.6c-1.2,3.2-2,4.8-3.2,5.8
		c-0.8,0.7-1.6,1-2.1,1.1l-0.4-1.4c0.4-0.1,1-0.4,1.5-0.8c0.5-0.4,1-1,1.4-1.9c0.1-0.2,0.1-0.3,0.1-0.4c0-0.1,0-0.2-0.1-0.4
		l-3.4-8.5H705.6z"/>
	<path d="M725.4,192.4c0,4.4-2.7,6.7-5.9,6.7c-3.4,0-5.8-2.6-5.8-6.5c0-4.1,2.5-6.7,5.9-6.7C723.1,185.9,725.4,188.6,725.4,192.4z
		 M715.4,192.6c0,2.7,1.5,5.2,4.1,5.2c2.6,0,4.1-2.4,4.1-5.3c0-2.5-1.3-5.2-4.1-5.2C716.8,187.2,715.4,189.8,715.4,192.6z"/>
	<path d="M728.1,198.9V191h-1.3v-1.3h1.3v-0.4c0-1.3,0.3-2.5,1.1-3.2c0.6-0.6,1.5-0.9,2.2-0.9c0.6,0,1.1,0.1,1.4,0.3l-0.2,1.3
		c-0.2-0.1-0.6-0.2-1.1-0.2c-1.4,0-1.8,1.3-1.8,2.7v0.5h2.2v1.3h-2.2v7.9H728.1z"/>
</g>
<g>
	<path d="M85,193.6c0-1.1,0-2-0.1-2.9h1.5l0.1,1.8h0.1c0.4-1.2,1.4-2,2.5-2c0.2,0,0.3,0,0.5,0.1v1.6c-0.2,0-0.3-0.1-0.6-0.1
		c-1.2,0-2,0.9-2.2,2.1c0,0.2-0.1,0.5-0.1,0.8v4.9H85V193.6z"/>
	<path d="M99.6,186.4v11.1c0,0.8,0,1.7,0.1,2.4h-1.5l-0.1-1.6h0c-0.5,1-1.6,1.8-3.1,1.8c-2.2,0-3.9-1.9-3.9-4.7
		c0-3.1,1.9-4.9,4.1-4.9c1.4,0,2.4,0.7,2.8,1.4h0v-5.5H99.6z M97.9,194.4c0-0.2,0-0.5-0.1-0.7c-0.2-1.1-1.2-1.9-2.4-1.9
		c-1.7,0-2.8,1.5-2.8,3.6c0,1.9,0.9,3.4,2.7,3.4c1.1,0,2.1-0.7,2.5-2c0.1-0.2,0.1-0.5,0.1-0.7V194.4z"/>
	<path d="M103,199.9V192h-1.3v-1.3h1.3v-0.4c0-1.3,0.3-2.5,1.1-3.2c0.6-0.6,1.5-0.9,2.2-0.9c0.6,0,1.1,0.1,1.4,0.3l-0.2,1.3
		c-0.2-0.1-0.6-0.2-1.1-0.2c-1.4,0-1.8,1.3-1.8,2.7v0.5h2.2v1.3h-2.2v7.9H103z"/>
	<path d="M108.5,192.2c0-0.7,0.5-1.2,1.1-1.2c0.7,0,1.1,0.5,1.1,1.2c0,0.7-0.4,1.2-1.1,1.2C108.9,193.4,108.5,192.9,108.5,192.2z
		 M108.5,198.9c0-0.7,0.5-1.2,1.1-1.2c0.7,0,1.1,0.5,1.1,1.2c0,0.7-0.4,1.2-1.1,1.2C108.9,200.1,108.5,199.6,108.5,198.9z"/>
	<path d="M115.3,188.1v2.6h2.4v1.3h-2.4v5c0,1.1,0.3,1.8,1.3,1.8c0.4,0,0.8-0.1,1-0.1l0.1,1.3c-0.3,0.1-0.8,0.2-1.5,0.2
		c-0.8,0-1.4-0.2-1.8-0.7c-0.5-0.5-0.6-1.3-0.6-2.4v-5h-1.4v-1.3h1.4v-2.2L115.3,188.1z"/>
	<path d="M120.7,190.7l2,5.4c0.2,0.6,0.4,1.3,0.6,1.9h0c0.2-0.6,0.4-1.3,0.6-1.9l1.8-5.4h1.8l-2.5,6.6c-1.2,3.2-2,4.8-3.2,5.8
		c-0.8,0.7-1.6,1-2.1,1.1l-0.4-1.4c0.4-0.1,1-0.4,1.5-0.8c0.5-0.4,1-1,1.4-1.9c0.1-0.2,0.1-0.3,0.1-0.4c0-0.1,0-0.2-0.1-0.4
		l-3.4-8.5H120.7z"/>
	<path d="M129.5,193.7c0-1.2,0-2.1-0.1-3h1.5l0.1,1.6h0c0.7-1.1,1.8-1.8,3.3-1.8c2.2,0,3.9,1.9,3.9,4.7c0,3.3-2,4.9-4.2,4.9
		c-1.2,0-2.3-0.5-2.8-1.4h0v5h-1.7V193.7z M131.1,196.1c0,0.2,0,0.5,0.1,0.7c0.3,1.2,1.3,2,2.5,2c1.8,0,2.8-1.4,2.8-3.6
		c0-1.8-1-3.4-2.7-3.4c-1.1,0-2.2,0.8-2.5,2.1c-0.1,0.2-0.1,0.5-0.1,0.7V196.1z"/>
	<path d="M141.7,195.6c0,2.3,1.5,3.2,3.2,3.2c1.2,0,1.9-0.2,2.5-0.5l0.3,1.2c-0.6,0.3-1.6,0.6-3.1,0.6c-2.8,0-4.5-1.9-4.5-4.6
		s1.6-5,4.3-5c3,0,3.8,2.6,3.8,4.3c0,0.3,0,0.6-0.1,0.8H141.7z M146.6,194.4c0-1.1-0.4-2.7-2.3-2.7c-1.7,0-2.4,1.6-2.6,2.7H146.6z"
		/>
</g>
<g>
	<path d="M128.2,132c0-1.1,0-2-0.1-2.9h1.5l0.1,1.8h0.1c0.4-1.2,1.4-2,2.5-2c0.2,0,0.3,0,0.5,0.1v1.6c-0.2,0-0.3-0.1-0.6-0.1
		c-1.2,0-2,0.9-2.2,2.1c0,0.2-0.1,0.5-0.1,0.8v4.9h-1.7V132z"/>
</g>
<g>
	<path d="M268,35.6c0-1.1,0-2-0.1-2.9h1.5l0.1,1.8h0.1c0.4-1.2,1.4-2,2.5-2c0.2,0,0.3,0,0.5,0.1v1.6c-0.2,0-0.3-0.1-0.6-0.1
		c-1.2,0-2,0.9-2.2,2.1c0,0.2-0.1,0.5-0.1,0.8V42H268V35.6z"/>
</g>
<g>
	<path d="M517,170.8c0-1.1,0-2-0.1-2.9h1.5l0.1,1.8h0.1c0.4-1.2,1.4-2,2.5-2c0.2,0,0.3,0,0.5,0.1v1.6c-0.2,0-0.3-0.1-0.6-0.1
		c-1.2,0-2,0.9-2.2,2.1c0,0.2-0.1,0.5-0.1,0.8v4.9H517V170.8z"/>
</g>
<g>
	<path d="M498,484.6c0-1.1,0-2-0.1-2.9h1.5l0.1,1.8h0.1c0.4-1.2,1.4-2,2.5-2c0.2,0,0.3,0,0.5,0.1v1.6c-0.2,0-0.3-0.1-0.6-0.1
		c-1.2,0-2,0.9-2.2,2.1c0,0.2-0.1,0.5-0.1,0.8v4.9H498V484.6z"/>
</g>
<g>
	<path d="M220.9,485.6c0-1.1,0-2-0.1-2.9h1.5l0.1,1.8h0.1c0.4-1.2,1.4-2,2.5-2c0.2,0,0.3,0,0.5,0.1v1.6c-0.2,0-0.3-0.1-0.6-0.1
		c-1.2,0-2,0.9-2.2,2.1c0,0.2-0.1,0.5-0.1,0.8v4.9h-1.7V485.6z"/>
</g>
<g>
	<path d="M264.7,330.6c0-1.1,0-2-0.1-2.9h1.5l0.1,1.8h0.1c0.4-1.2,1.4-2,2.5-2c0.2,0,0.3,0,0.5,0.1v1.6c-0.2,0-0.3-0.1-0.6-0.1
		c-1.2,0-2,0.9-2.2,2.1c0,0.2-0.1,0.5-0.1,0.8v4.9h-1.7V330.6z"/>
</g>
<g>
	<path d="M195.4,288.1v11.1c0,0.8,0,1.7,0.1,2.4h-1.5l-0.1-1.6h0c-0.5,1-1.6,1.8-3.1,1.8c-2.2,0-3.9-1.9-3.9-4.7
		c0-3.1,1.9-4.9,4.1-4.9c1.4,0,2.4,0.7,2.8,1.4h0v-5.5H195.4z M193.7,296.2c0-0.2,0-0.5-0.1-0.7c-0.2-1.1-1.2-1.9-2.4-1.9
		c-1.7,0-2.8,1.5-2.8,3.6c0,1.9,0.9,3.4,2.7,3.4c1.1,0,2.1-0.7,2.5-2c0.1-0.2,0.1-0.5,0.1-0.7V296.2z"/>
</g>
<g>
	<path d="M227,416.6v11.1c0,0.8,0,1.7,0.1,2.4h-1.5l-0.1-1.6h0c-0.5,1-1.6,1.8-3.1,1.8c-2.2,0-3.9-1.9-3.9-4.7
		c0-3.1,1.9-4.9,4.1-4.9c1.4,0,2.4,0.7,2.8,1.4h0v-5.5H227z M225.3,424.6c0-0.2,0-0.5-0.1-0.7c-0.2-1.1-1.2-1.9-2.4-1.9
		c-1.7,0-2.8,1.5-2.8,3.6c0,1.9,0.9,3.4,2.7,3.4c1.1,0,2.1-0.7,2.5-2c0.1-0.2,0.1-0.5,0.1-0.7V424.6z"/>
</g>
<g>
	<path d="M496.6,415.6v11.1c0,0.8,0,1.7,0.1,2.4h-1.5l-0.1-1.6h0c-0.5,1-1.6,1.8-3.1,1.8c-2.2,0-3.9-1.9-3.9-4.7
		c0-3.1,1.9-4.9,4.1-4.9c1.4,0,2.4,0.7,2.8,1.4h0v-5.5H496.6z M495,423.6c0-0.2,0-0.5-0.1-0.7c-0.2-1.1-1.2-1.9-2.4-1.9
		c-1.7,0-2.8,1.5-2.8,3.6c0,1.9,0.9,3.4,2.7,3.4c1.1,0,2.1-0.7,2.5-2c0.1-0.2,0.1-0.5,0.1-0.7V423.6z"/>
</g>
<g>
	<path d="M588.8,333.6v11.1c0,0.8,0,1.7,0.1,2.4h-1.5l-0.1-1.6h0c-0.5,1-1.6,1.8-3.1,1.8c-2.2,0-3.9-1.9-3.9-4.7
		c0-3.1,1.9-4.9,4.1-4.9c1.4,0,2.4,0.7,2.8,1.4h0v-5.5H588.8z M587.1,341.7c0-0.2,0-0.5-0.1-0.7c-0.2-1.1-1.2-1.9-2.4-1.9
		c-1.7,0-2.8,1.5-2.8,3.6c0,1.9,0.9,3.4,2.7,3.4c1.1,0,2.1-0.7,2.5-2c0.1-0.2,0.1-0.5,0.1-0.7V341.7z"/>
</g>
<g>
	<path d="M550.4,302.7v11.1c0,0.8,0,1.7,0.1,2.4H549l-0.1-1.6h0c-0.5,1-1.6,1.8-3.1,1.8c-2.2,0-3.9-1.9-3.9-4.7
		c0-3.1,1.9-4.9,4.1-4.9c1.4,0,2.4,0.7,2.8,1.4h0v-5.5H550.4z M548.7,310.7c0-0.2,0-0.5-0.1-0.7c-0.2-1.1-1.2-1.9-2.4-1.9
		c-1.7,0-2.8,1.5-2.8,3.6c0,1.9,0.9,3.4,2.7,3.4c1.1,0,2.1-0.7,2.5-2c0.1-0.2,0.1-0.5,0.1-0.7V310.7z"/>
</g>
<g>
	<path d="M580.5,249.3v11.1c0,0.8,0,1.7,0.1,2.4h-1.5l-0.1-1.6h0c-0.5,1-1.6,1.8-3.1,1.8c-2.2,0-3.9-1.9-3.9-4.7
		c0-3.1,1.9-4.9,4.1-4.9c1.4,0,2.4,0.7,2.8,1.4h0v-5.5H580.5z M578.9,257.3c0-0.2,0-0.5-0.1-0.7c-0.2-1.1-1.2-1.9-2.4-1.9
		c-1.7,0-2.8,1.5-2.8,3.6c0,1.9,0.9,3.4,2.7,3.4c1.1,0,2.1-0.7,2.5-2c0.1-0.2,0.1-0.5,0.1-0.7V257.3z"/>
</g>
<g>
	<path d="M703.1,122.2v11.1c0,0.8,0,1.7,0.1,2.4h-1.5l-0.1-1.6h0c-0.5,1-1.6,1.8-3.1,1.8c-2.2,0-3.9-1.9-3.9-4.7
		c0-3.1,1.9-4.9,4.1-4.9c1.4,0,2.4,0.7,2.8,1.4h0v-5.5H703.1z M701.5,130.2c0-0.2,0-0.5-0.1-0.7c-0.2-1.1-1.2-1.9-2.4-1.9
		c-1.7,0-2.8,1.5-2.8,3.6c0,1.9,0.9,3.4,2.7,3.4c1.1,0,2.1-0.7,2.5-2c0.1-0.2,0.1-0.5,0.1-0.7V130.2z"/>
</g>
<g>
	<path d="M538.2,27.5v11.1c0,0.8,0,1.7,0.1,2.4h-1.5l-0.1-1.6h0c-0.5,1-1.6,1.8-3.1,1.8c-2.2,0-3.9-1.9-3.9-4.7
		c0-3.1,1.9-4.9,4.1-4.9c1.4,0,2.4,0.7,2.8,1.4h0v-5.5H538.2z M536.6,35.5c0-0.2,0-0.5-0.1-0.7c-0.2-1.1-1.2-1.9-2.4-1.9
		c-1.7,0-2.8,1.5-2.8,3.6c0,1.9,0.9,3.4,2.7,3.4c1.1,0,2.1-0.7,2.5-2c0.1-0.2,0.1-0.5,0.1-0.7V35.5z"/>
</g>
<g>
	<path d="M485.1,96.2v11.1c0,0.8,0,1.7,0.1,2.4h-1.5l-0.1-1.6h0c-0.5,1-1.6,1.8-3.1,1.8c-2.2,0-3.9-1.9-3.9-4.7
		c0-3.1,1.9-4.9,4.1-4.9c1.4,0,2.4,0.7,2.8,1.4h0v-5.5H485.1z M483.5,104.2c0-0.2,0-0.5-0.1-0.7c-0.2-1.1-1.2-1.9-2.4-1.9
		c-1.7,0-2.8,1.5-2.8,3.6c0,1.9,0.9,3.4,2.7,3.4c1.1,0,2.1-0.7,2.5-2c0.1-0.2,0.1-0.5,0.1-0.7V104.2z"/>
</g>
<g>
	<path d="M275.8,139.4v11.1c0,0.8,0,1.7,0.1,2.4h-1.5l-0.1-1.6h0c-0.5,1-1.6,1.8-3.1,1.8c-2.2,0-3.9-1.9-3.9-4.7
		c0-3.1,1.9-4.9,4.1-4.9c1.4,0,2.4,0.7,2.8,1.4h0v-5.5H275.8z M274.1,147.4c0-0.2,0-0.5-0.1-0.7c-0.2-1.1-1.2-1.9-2.4-1.9
		c-1.7,0-2.8,1.5-2.8,3.6c0,1.9,0.9,3.4,2.7,3.4c1.1,0,2.1-0.7,2.5-2c0.1-0.2,0.1-0.5,0.1-0.7V147.4z"/>
</g>
<g>
	<path d="M211.3,153.8c0-1.1,0-2-0.1-2.9h1.5l0.1,1.8h0.1c0.4-1.2,1.4-2,2.5-2c0.2,0,0.3,0,0.5,0.1v1.6c-0.2,0-0.3-0.1-0.6-0.1
		c-1.2,0-2,0.9-2.2,2.1c0,0.2-0.1,0.5-0.1,0.8v4.9h-1.7V153.8z"/>
</g>
<g>
	<path d="M316.7,107.2c0-1.1,0-2-0.1-2.9h1.5l0.1,1.8h0.1c0.4-1.2,1.4-2,2.5-2c0.2,0,0.3,0,0.5,0.1v1.6c-0.2,0-0.3-0.1-0.6-0.1
		c-1.2,0-2,0.9-2.2,2.1c0,0.2-0.1,0.5-0.1,0.8v4.9h-1.7V107.2z"/>
</g>
<g>
	<path d="M604.9,153.5c0-1.1,0-2-0.1-2.9h1.5l0.1,1.8h0.1c0.4-1.2,1.4-2,2.5-2c0.2,0,0.3,0,0.5,0.1v1.6c-0.2,0-0.3-0.1-0.6-0.1
		c-1.2,0-2,0.9-2.2,2.1c0,0.2-0.1,0.5-0.1,0.8v4.9h-1.7V153.5z"/>
</g>
<g>
	<path d="M59.4,442.4c0-1.1,0-2-0.1-2.9h1.5l0.1,1.8H61c0.4-1.2,1.4-2,2.5-2c0.2,0,0.3,0,0.5,0.1v1.6c-0.2,0-0.3-0.1-0.6-0.1
		c-1.2,0-2,0.9-2.2,2.1c0,0.2-0.1,0.5-0.1,0.8v4.9h-1.7V442.4z"/>
	<path d="M74.1,435.2v11.1c0,0.8,0,1.7,0.1,2.4h-1.5l-0.1-1.6h0c-0.5,1-1.6,1.8-3.1,1.8c-2.2,0-3.9-1.9-3.9-4.7
		c0-3.1,1.9-4.9,4.1-4.9c1.4,0,2.4,0.7,2.8,1.4h0v-5.5H74.1z M72.4,443.2c0-0.2,0-0.5-0.1-0.7c-0.2-1.1-1.2-1.9-2.4-1.9
		c-1.7,0-2.8,1.5-2.8,3.6c0,1.9,0.9,3.4,2.7,3.4c1.1,0,2.1-0.7,2.5-2c0.1-0.2,0.1-0.5,0.1-0.7V443.2z"/>
	<path d="M77.5,448.7v-7.9h-1.3v-1.3h1.3v-0.4c0-1.3,0.3-2.5,1.1-3.2c0.6-0.6,1.5-0.9,2.2-0.9c0.6,0,1.1,0.1,1.4,0.3l-0.2,1.3
		c-0.2-0.1-0.6-0.2-1.1-0.2c-1.4,0-1.8,1.3-1.8,2.7v0.5h2.2v1.3h-2.2v7.9H77.5z"/>
	<path d="M83.1,447c0.5,0.3,1.4,0.7,2.2,0.7c1.2,0,1.8-0.6,1.8-1.4c0-0.8-0.5-1.2-1.7-1.7c-1.7-0.6-2.4-1.5-2.4-2.6
		c0-1.5,1.2-2.7,3.2-2.7c0.9,0,1.7,0.3,2.3,0.6l-0.4,1.2c-0.4-0.2-1-0.5-1.9-0.5c-1,0-1.5,0.6-1.5,1.3c0,0.8,0.6,1.1,1.7,1.6
		c1.6,0.6,2.4,1.4,2.4,2.8c0,1.6-1.3,2.8-3.4,2.8c-1,0-1.9-0.2-2.6-0.6L83.1,447z"/>
	<path d="M90.9,441c0-0.7,0.5-1.2,1.1-1.2c0.7,0,1.1,0.5,1.1,1.2c0,0.7-0.4,1.2-1.1,1.2C91.4,442.2,90.9,441.7,90.9,441z
		 M90.9,447.7c0-0.7,0.5-1.2,1.1-1.2c0.7,0,1.1,0.5,1.1,1.2c0,0.7-0.4,1.2-1.1,1.2C91.4,448.9,90.9,448.4,90.9,447.7z"/>
	<path d="M102.3,448.3c-0.4,0.2-1.4,0.5-2.6,0.5c-2.8,0-4.6-1.9-4.6-4.7c0-2.8,1.9-4.9,4.9-4.9c1,0,1.9,0.2,2.3,0.5l-0.4,1.3
		c-0.4-0.2-1-0.4-1.9-0.4c-2.1,0-3.2,1.6-3.2,3.5c0,2.1,1.4,3.4,3.2,3.4c1,0,1.6-0.2,2.1-0.5L102.3,448.3z"/>
	<path d="M113.1,444c0,3.4-2.4,4.9-4.6,4.9c-2.5,0-4.4-1.8-4.4-4.7c0-3.1,2-4.9,4.6-4.9C111.3,439.3,113.1,441.2,113.1,444z
		 M105.8,444.1c0,2,1.2,3.5,2.8,3.5c1.6,0,2.8-1.5,2.8-3.6c0-1.6-0.8-3.5-2.8-3.5S105.8,442.4,105.8,444.1z"/>
	<path d="M115.6,442c0-1,0-1.7-0.1-2.5h1.5l0.1,1.5h0.1c0.5-0.9,1.4-1.7,2.9-1.7c1.3,0,2.2,0.8,2.6,1.8h0c0.3-0.5,0.6-0.9,1-1.2
		c0.6-0.4,1.2-0.6,2-0.6c1.2,0,3,0.8,3,4v5.4h-1.6v-5.2c0-1.8-0.6-2.8-2-2.8c-0.9,0-1.7,0.7-2,1.5c-0.1,0.2-0.1,0.5-0.1,0.8v5.7
		h-1.6v-5.5c0-1.5-0.6-2.5-1.9-2.5c-1,0-1.8,0.8-2.1,1.7c-0.1,0.2-0.1,0.5-0.1,0.8v5.5h-1.6V442z"/>
	<path d="M132,442c0-1,0-1.7-0.1-2.5h1.5l0.1,1.5h0.1c0.5-0.9,1.4-1.7,2.9-1.7c1.3,0,2.2,0.8,2.6,1.8h0c0.3-0.5,0.6-0.9,1-1.2
		c0.6-0.4,1.2-0.6,2-0.6c1.2,0,3,0.8,3,4v5.4h-1.6v-5.2c0-1.8-0.6-2.8-2-2.8c-0.9,0-1.7,0.7-2,1.5c-0.1,0.2-0.1,0.5-0.1,0.8v5.7
		h-1.6v-5.5c0-1.5-0.6-2.5-1.9-2.5c-1,0-1.8,0.8-2.1,1.7c-0.1,0.2-0.1,0.5-0.1,0.8v5.5H132V442z"/>
	<path d="M149.2,444.4c0,2.3,1.5,3.2,3.2,3.2c1.2,0,1.9-0.2,2.5-0.5l0.3,1.2c-0.6,0.3-1.6,0.6-3.1,0.6c-2.8,0-4.5-1.9-4.5-4.6
		s1.6-5,4.3-5c3,0,3.8,2.6,3.8,4.3c0,0.3,0,0.6-0.1,0.8H149.2z M154.1,443.2c0-1.1-0.4-2.7-2.3-2.7c-1.7,0-2.4,1.6-2.6,2.7H154.1z"
		/>
	<path d="M158.3,442c0-1,0-1.7-0.1-2.5h1.5l0.1,1.5h0c0.5-0.9,1.5-1.7,3-1.7c1.3,0,3.2,0.8,3.2,3.9v5.5h-1.7v-5.3
		c0-1.5-0.6-2.7-2.1-2.7c-1.1,0-2,0.8-2.2,1.7c-0.1,0.2-0.1,0.5-0.1,0.8v5.5h-1.7V442z"/>
	<path d="M171.3,436.9v2.6h2.4v1.3h-2.4v5c0,1.1,0.3,1.8,1.3,1.8c0.4,0,0.8-0.1,1-0.1l0.1,1.3c-0.3,0.1-0.8,0.2-1.5,0.2
		c-0.8,0-1.4-0.2-1.8-0.7c-0.5-0.5-0.6-1.3-0.6-2.4v-5h-1.4v-1.3h1.4v-2.2L171.3,436.9z"/>
</g>
<g>
	<path d="M567.7,441.4c0-1.1,0-2-0.1-2.9h1.5l0.1,1.8h0.1c0.4-1.2,1.4-2,2.5-2c0.2,0,0.3,0,0.5,0.1v1.6c-0.2,0-0.3-0.1-0.6-0.1
		c-1.2,0-2,0.9-2.2,2.1c0,0.2-0.1,0.5-0.1,0.8v4.9h-1.7V441.4z"/>
	<path d="M582.3,434.2v11.1c0,0.8,0,1.7,0.1,2.4h-1.5l-0.1-1.6h0c-0.5,1-1.6,1.8-3.1,1.8c-2.2,0-3.9-1.9-3.9-4.7
		c0-3.1,1.9-4.9,4.1-4.9c1.4,0,2.4,0.7,2.8,1.4h0v-5.5H582.3z M580.7,442.2c0-0.2,0-0.5-0.1-0.7c-0.2-1.1-1.2-1.9-2.4-1.9
		c-1.7,0-2.8,1.5-2.8,3.6c0,1.9,0.9,3.4,2.7,3.4c1.1,0,2.1-0.7,2.5-2c0.1-0.2,0.1-0.5,0.1-0.7V442.2z"/>
	<path d="M585.7,447.7v-7.9h-1.3v-1.3h1.3v-0.4c0-1.3,0.3-2.5,1.1-3.2c0.6-0.6,1.5-0.9,2.2-0.9c0.6,0,1.1,0.1,1.4,0.3l-0.2,1.3
		c-0.2-0.1-0.6-0.2-1.1-0.2c-1.4,0-1.8,1.3-1.8,2.7v0.5h2.2v1.3h-2.2v7.9H585.7z"/>
	<path d="M591.4,446c0.5,0.3,1.4,0.7,2.2,0.7c1.2,0,1.8-0.6,1.8-1.4c0-0.8-0.5-1.2-1.7-1.7c-1.7-0.6-2.4-1.5-2.4-2.6
		c0-1.5,1.2-2.7,3.2-2.7c0.9,0,1.7,0.3,2.3,0.6l-0.4,1.2c-0.4-0.2-1-0.5-1.9-0.5c-1,0-1.5,0.6-1.5,1.3c0,0.8,0.6,1.1,1.7,1.6
		c1.6,0.6,2.4,1.4,2.4,2.8c0,1.6-1.3,2.8-3.4,2.8c-1,0-1.9-0.2-2.6-0.6L591.4,446z"/>
	<path d="M599.2,440c0-0.7,0.5-1.2,1.1-1.2s1.1,0.5,1.1,1.2c0,0.7-0.4,1.2-1.1,1.2C599.6,441.2,599.2,440.7,599.2,440z M599.2,446.7
		c0-0.7,0.5-1.2,1.1-1.2s1.1,0.5,1.1,1.2c0,0.7-0.4,1.2-1.1,1.2C599.6,447.9,599.2,447.4,599.2,446.7z"/>
	<path d="M604,434.2h1.7v13.5H604V434.2z"/>
	<path d="M614,447.7l-0.1-1.2h-0.1c-0.5,0.7-1.5,1.4-2.8,1.4c-1.9,0-2.8-1.3-2.8-2.6c0-2.2,2-3.4,5.5-3.4v-0.2
		c0-0.8-0.2-2.1-2.1-2.1c-0.9,0-1.7,0.3-2.4,0.7l-0.4-1.1c0.8-0.5,1.9-0.8,3-0.8c2.8,0,3.5,1.9,3.5,3.8v3.4c0,0.8,0,1.6,0.2,2.2H614
		z M613.8,443c-1.8,0-3.9,0.3-3.9,2.1c0,1.1,0.7,1.6,1.6,1.6c1.2,0,2-0.8,2.2-1.5c0.1-0.2,0.1-0.4,0.1-0.5V443z"/>
	<path d="M618.5,447.7c0-0.6,0.1-1.6,0.1-2.4v-11.1h1.7v5.8h0c0.6-1,1.7-1.7,3.1-1.7c2.3,0,3.9,1.9,3.9,4.7c0,3.3-2.1,4.9-4.1,4.9
		c-1.3,0-2.4-0.5-3.1-1.7H620l-0.1,1.5H618.5z M620.2,444c0,0.2,0,0.4,0.1,0.6c0.3,1.2,1.3,2,2.5,2c1.7,0,2.8-1.4,2.8-3.5
		c0-1.8-1-3.4-2.7-3.4c-1.1,0-2.2,0.8-2.5,2.1c0,0.2-0.1,0.4-0.1,0.7V444z"/>
	<path d="M630.8,443.4c0,2.3,1.5,3.2,3.2,3.2c1.2,0,1.9-0.2,2.5-0.5l0.3,1.2c-0.6,0.3-1.6,0.6-3.1,0.6c-2.8,0-4.5-1.9-4.5-4.6
		s1.6-5,4.3-5c3,0,3.8,2.6,3.8,4.3c0,0.3,0,0.6-0.1,0.8H630.8z M635.7,442.2c0-1.1-0.4-2.7-2.3-2.7c-1.7,0-2.4,1.6-2.6,2.7H635.7z"
		/>
	<path d="M639.8,434.2h1.7v13.5h-1.7V434.2z"/>
</g>
<g>
	<path d="M169.3,91.1c0-1.1,0-2-0.1-2.9h1.5l0.1,1.8h0.1c0.4-1.2,1.4-2,2.5-2c0.2,0,0.3,0,0.5,0.1v1.6c-0.2,0-0.3-0.1-0.6-0.1
		c-1.2,0-2,0.9-2.2,2.1c0,0.2-0.1,0.5-0.1,0.8v4.9h-1.7V91.1z"/>
	<path d="M183.9,83.9v11.1c0,0.8,0,1.7,0.1,2.4h-1.5l-0.1-1.6h0c-0.5,1-1.6,1.8-3.1,1.8c-2.2,0-3.9-1.9-3.9-4.7
		c0-3.1,1.9-4.9,4.1-4.9c1.4,0,2.4,0.7,2.8,1.4h0v-5.5H183.9z M182.2,92c0-0.2,0-0.5-0.1-0.7c-0.2-1.1-1.2-1.9-2.4-1.9
		c-1.7,0-2.8,1.5-2.8,3.6c0,1.9,0.9,3.4,2.7,3.4c1.1,0,2.1-0.7,2.5-2c0.1-0.2,0.1-0.5,0.1-0.7V92z"/>
	<path d="M187.3,97.4v-7.9H186v-1.3h1.3v-0.4c0-1.3,0.3-2.5,1.1-3.2c0.6-0.6,1.5-0.9,2.2-0.9c0.6,0,1.1,0.1,1.4,0.3l-0.2,1.3
		c-0.2-0.1-0.6-0.2-1.1-0.2c-1.4,0-1.8,1.3-1.8,2.7v0.5h2.2v1.3H189v7.9H187.3z"/>
	<path d="M192.8,89.8c0-0.7,0.5-1.2,1.1-1.2c0.7,0,1.1,0.5,1.1,1.2c0,0.7-0.4,1.2-1.1,1.2C193.2,90.9,192.8,90.4,192.8,89.8z
		 M192.8,96.5c0-0.7,0.5-1.2,1.1-1.2c0.7,0,1.1,0.5,1.1,1.2c0,0.7-0.4,1.2-1.1,1.2C193.2,97.6,192.8,97.1,192.8,96.5z"/>
	<path d="M206.6,97c-0.6,0.3-1.8,0.6-3.4,0.6c-3.6,0-6.3-2.3-6.3-6.5c0-4,2.7-6.7,6.7-6.7c1.6,0,2.6,0.3,3,0.6l-0.4,1.3
		c-0.6-0.3-1.5-0.5-2.6-0.5c-3,0-5,1.9-5,5.3c0,3.1,1.8,5.1,4.9,5.1c1,0,2-0.2,2.7-0.5L206.6,97z"/>
	<path d="M209.1,83.9h1.7v13.5h-1.7V83.9z"/>
	<path d="M219.1,97.4l-0.1-1.2h-0.1c-0.5,0.7-1.5,1.4-2.8,1.4c-1.9,0-2.8-1.3-2.8-2.6c0-2.2,2-3.4,5.5-3.4v-0.2
		c0-0.8-0.2-2.1-2.1-2.1c-0.9,0-1.7,0.3-2.4,0.7l-0.4-1.1c0.8-0.5,1.9-0.8,3-0.8c2.8,0,3.5,1.9,3.5,3.8v3.4c0,0.8,0,1.6,0.2,2.2
		H219.1z M218.9,92.7c-1.8,0-3.9,0.3-3.9,2.1c0,1.1,0.7,1.6,1.6,1.6c1.2,0,2-0.8,2.2-1.5c0.1-0.2,0.1-0.4,0.1-0.5V92.7z"/>
	<path d="M223.4,95.7c0.5,0.3,1.4,0.7,2.2,0.7c1.2,0,1.8-0.6,1.8-1.4c0-0.8-0.5-1.2-1.7-1.7c-1.7-0.6-2.4-1.5-2.4-2.6
		c0-1.5,1.2-2.7,3.2-2.7c0.9,0,1.7,0.3,2.3,0.6l-0.4,1.2c-0.4-0.2-1-0.5-1.9-0.5c-1,0-1.5,0.6-1.5,1.3c0,0.8,0.6,1.1,1.7,1.6
		c1.6,0.6,2.4,1.4,2.4,2.8c0,1.6-1.3,2.8-3.4,2.8c-1,0-1.9-0.2-2.6-0.6L223.4,95.7z"/>
	<path d="M231.4,95.7c0.5,0.3,1.4,0.7,2.2,0.7c1.2,0,1.8-0.6,1.8-1.4c0-0.8-0.5-1.2-1.7-1.7c-1.7-0.6-2.4-1.5-2.4-2.6
		c0-1.5,1.2-2.7,3.2-2.7c0.9,0,1.7,0.3,2.3,0.6l-0.4,1.2c-0.4-0.2-1-0.5-1.9-0.5c-1,0-1.5,0.6-1.5,1.3c0,0.8,0.6,1.1,1.7,1.6
		c1.6,0.6,2.4,1.4,2.4,2.8c0,1.6-1.3,2.8-3.4,2.8c-1,0-1.9-0.2-2.6-0.6L231.4,95.7z"/>
</g>
<g>
	<path d="M534.7,90.1c0-1.1,0-2-0.1-2.9h1.5l0.1,1.8h0.1c0.4-1.2,1.4-2,2.5-2c0.2,0,0.3,0,0.5,0.1v1.6c-0.2,0-0.3-0.1-0.6-0.1
		c-1.2,0-2,0.9-2.2,2.1c0,0.2-0.1,0.5-0.1,0.8v4.9h-1.7V90.1z"/>
	<path d="M549.3,82.9v11.1c0,0.8,0,1.7,0.1,2.4h-1.5l-0.1-1.6h0c-0.5,1-1.6,1.8-3.1,1.8c-2.2,0-3.9-1.9-3.9-4.7
		c0-3.1,1.9-4.9,4.1-4.9c1.4,0,2.4,0.7,2.8,1.4h0v-5.5H549.3z M547.6,91c0-0.2,0-0.5-0.1-0.7c-0.2-1.1-1.2-1.9-2.4-1.9
		c-1.7,0-2.8,1.5-2.8,3.6c0,1.9,0.9,3.4,2.7,3.4c1.1,0,2.1-0.7,2.5-2c0.1-0.2,0.1-0.5,0.1-0.7V91z"/>
	<path d="M552.7,96.4v-7.9h-1.3v-1.3h1.3v-0.4c0-1.3,0.3-2.5,1.1-3.2c0.6-0.6,1.5-0.9,2.2-0.9c0.6,0,1.1,0.1,1.4,0.3l-0.2,1.3
		c-0.2-0.1-0.6-0.2-1.1-0.2c-1.4,0-1.8,1.3-1.8,2.7v0.5h2.2v1.3h-2.2v7.9H552.7z"/>
	<path d="M558.2,88.8c0-0.7,0.5-1.2,1.1-1.2s1.1,0.5,1.1,1.2c0,0.7-0.4,1.2-1.1,1.2C558.6,89.9,558.2,89.4,558.2,88.8z M558.2,95.5
		c0-0.7,0.5-1.2,1.1-1.2s1.1,0.5,1.1,1.2c0,0.7-0.4,1.2-1.1,1.2C558.6,96.6,558.2,96.1,558.2,95.5z"/>
	<path d="M563,83.8c0.8-0.1,1.8-0.2,3.2-0.2c1.6,0,2.8,0.4,3.6,1.1c0.7,0.6,1.1,1.5,1.1,2.7c0,1.2-0.3,2.1-1,2.7
		c-0.9,0.9-2.3,1.4-3.9,1.4c-0.5,0-1,0-1.3-0.1v5.1H563V83.8z M564.7,90c0.4,0.1,0.8,0.1,1.4,0.1c2,0,3.2-1,3.2-2.7
		c0-1.7-1.2-2.5-3-2.5c-0.7,0-1.3,0.1-1.6,0.1V90z"/>
	<path d="M573.6,90.1c0-1.1,0-2-0.1-2.9h1.5L575,89h0.1c0.4-1.2,1.4-2,2.5-2c0.2,0,0.3,0,0.5,0.1v1.6c-0.2,0-0.3-0.1-0.6-0.1
		c-1.2,0-2,0.9-2.2,2.1c0,0.2-0.1,0.5-0.1,0.8v4.9h-1.7V90.1z"/>
	<path d="M588.6,91.8c0,3.4-2.4,4.9-4.6,4.9c-2.5,0-4.4-1.8-4.4-4.7c0-3.1,2-4.9,4.6-4.9C586.8,87,588.6,88.9,588.6,91.8z
		 M581.3,91.9c0,2,1.2,3.5,2.8,3.5c1.6,0,2.8-1.5,2.8-3.6c0-1.6-0.8-3.5-2.8-3.5S581.3,90.1,581.3,91.9z"/>
	<path d="M591.2,90.2c0-1.2,0-2.1-0.1-3h1.5l0.1,1.6h0c0.7-1.1,1.8-1.8,3.3-1.8c2.2,0,3.9,1.9,3.9,4.7c0,3.3-2,4.9-4.2,4.9
		c-1.2,0-2.3-0.5-2.8-1.4h0v5h-1.7V90.2z M592.8,92.7c0,0.2,0,0.5,0.1,0.7c0.3,1.2,1.3,2,2.5,2c1.8,0,2.8-1.4,2.8-3.6
		c0-1.8-1-3.4-2.7-3.4c-1.1,0-2.2,0.8-2.5,2.1c-0.1,0.2-0.1,0.5-0.1,0.7V92.7z"/>
	<path d="M603.4,92.1c0,2.3,1.5,3.2,3.2,3.2c1.2,0,1.9-0.2,2.5-0.5l0.3,1.2c-0.6,0.3-1.6,0.6-3.1,0.6c-2.8,0-4.5-1.9-4.5-4.6
		s1.6-5,4.3-5c3,0,3.8,2.6,3.8,4.3c0,0.3,0,0.6-0.1,0.8H603.4z M608.3,90.9c0-1.1-0.4-2.7-2.3-2.7c-1.7,0-2.4,1.6-2.6,2.7H608.3z"/>
	<path d="M612.4,90.1c0-1.1,0-2-0.1-2.9h1.5l0.1,1.8h0.1c0.4-1.2,1.4-2,2.5-2c0.2,0,0.3,0,0.5,0.1v1.6c-0.2,0-0.3-0.1-0.6-0.1
		c-1.2,0-2,0.9-2.2,2.1c0,0.2-0.1,0.5-0.1,0.8v4.9h-1.7V90.1z"/>
	<path d="M621.1,84.6v2.6h2.4v1.3h-2.4v5c0,1.1,0.3,1.8,1.3,1.8c0.4,0,0.8-0.1,1-0.1l0.1,1.3c-0.3,0.1-0.8,0.2-1.5,0.2
		c-0.8,0-1.4-0.2-1.8-0.7c-0.5-0.5-0.6-1.3-0.6-2.4v-5h-1.4v-1.3h1.4V85L621.1,84.6z"/>
	<path d="M626.5,87.2l2,5.4c0.2,0.6,0.4,1.3,0.6,1.9h0c0.2-0.6,0.4-1.3,0.6-1.9l1.8-5.4h1.8l-2.5,6.6c-1.2,3.2-2,4.8-3.2,5.8
		c-0.8,0.7-1.6,1-2.1,1.1l-0.4-1.4c0.4-0.1,1-0.4,1.5-0.8c0.5-0.4,1-1,1.4-1.9c0.1-0.2,0.1-0.3,0.1-0.4c0-0.1,0-0.2-0.1-0.4
		l-3.4-8.5H626.5z"/>
</g>
<g>
	<path d="M595.6,300.4c0-1.1,0-2-0.1-2.9h1.5l0.1,1.8h0.1c0.4-1.2,1.4-2,2.5-2c0.2,0,0.3,0,0.5,0.1v1.6c-0.2,0-0.3-0.1-0.6-0.1
		c-1.2,0-2,0.9-2.2,2.1c0,0.2-0.1,0.5-0.1,0.8v4.9h-1.7V300.4z"/>
	<path d="M610.2,293.2v11.1c0,0.8,0,1.7,0.1,2.4h-1.5l-0.1-1.6h0c-0.5,1-1.6,1.8-3.1,1.8c-2.2,0-3.9-1.9-3.9-4.7
		c0-3.1,1.9-4.9,4.1-4.9c1.4,0,2.4,0.7,2.8,1.4h0v-5.5H610.2z M608.6,301.3c0-0.2,0-0.5-0.1-0.7c-0.2-1.1-1.2-1.9-2.4-1.9
		c-1.7,0-2.8,1.5-2.8,3.6c0,1.9,0.9,3.4,2.7,3.4c1.1,0,2.1-0.7,2.5-2c0.1-0.2,0.1-0.5,0.1-0.7V301.3z"/>
	<path d="M613.6,306.7v-7.9h-1.3v-1.3h1.3v-0.4c0-1.3,0.3-2.5,1.1-3.2c0.6-0.6,1.5-0.9,2.2-0.9c0.6,0,1.1,0.1,1.4,0.3l-0.2,1.3
		c-0.2-0.1-0.6-0.2-1.1-0.2c-1.4,0-1.8,1.3-1.8,2.7v0.5h2.2v1.3h-2.2v7.9H613.6z"/>
	<path d="M619.1,299c0-0.7,0.5-1.2,1.1-1.2s1.1,0.5,1.1,1.2c0,0.7-0.4,1.2-1.1,1.2C619.5,300.2,619.1,299.7,619.1,299z M619.1,305.7
		c0-0.7,0.5-1.2,1.1-1.2s1.1,0.5,1.1,1.2c0,0.7-0.4,1.2-1.1,1.2C619.5,306.9,619.1,306.4,619.1,305.7z"/>
	<path d="M623.7,304.7c0.7,0.5,1.8,0.8,3,0.8c1.7,0,2.7-0.9,2.7-2.2c0-1.2-0.7-1.9-2.4-2.5c-2.1-0.7-3.4-1.8-3.4-3.6
		c0-2,1.7-3.5,4.1-3.5c1.3,0,2.3,0.3,2.8,0.6l-0.5,1.3c-0.4-0.2-1.3-0.6-2.4-0.6c-1.7,0-2.4,1-2.4,1.9c0,1.2,0.8,1.8,2.5,2.5
		c2.2,0.8,3.3,1.9,3.3,3.8c0,2-1.5,3.7-4.5,3.7c-1.2,0-2.6-0.4-3.3-0.8L623.7,304.7z"/>
	<path d="M635.7,294.9v2.6h2.4v1.3h-2.4v5c0,1.1,0.3,1.8,1.3,1.8c0.4,0,0.8-0.1,1-0.1l0.1,1.3c-0.3,0.1-0.8,0.2-1.5,0.2
		c-0.8,0-1.4-0.2-1.8-0.7c-0.5-0.5-0.6-1.3-0.6-2.4v-5h-1.4v-1.3h1.4v-2.2L635.7,294.9z"/>
	<path d="M645.6,306.7l-0.1-1.2h-0.1c-0.5,0.7-1.5,1.4-2.8,1.4c-1.9,0-2.8-1.3-2.8-2.6c0-2.2,2-3.4,5.5-3.4v-0.2
		c0-0.8-0.2-2.1-2.1-2.1c-0.9,0-1.7,0.3-2.4,0.7l-0.4-1.1c0.8-0.5,1.9-0.8,3-0.8c2.8,0,3.5,1.9,3.5,3.8v3.4c0,0.8,0,1.6,0.2,2.2
		H645.6z M645.3,302c-1.8,0-3.9,0.3-3.9,2.1c0,1.1,0.7,1.6,1.6,1.6c1.2,0,2-0.8,2.2-1.5c0.1-0.2,0.1-0.4,0.1-0.5V302z"/>
	<path d="M652.1,294.9v2.6h2.4v1.3h-2.4v5c0,1.1,0.3,1.8,1.3,1.8c0.4,0,0.8-0.1,1-0.1l0.1,1.3c-0.3,0.1-0.8,0.2-1.5,0.2
		c-0.8,0-1.4-0.2-1.8-0.7c-0.5-0.5-0.6-1.3-0.6-2.4v-5h-1.4v-1.3h1.4v-2.2L652.1,294.9z"/>
	<path d="M657.8,302.4c0,2.3,1.5,3.2,3.2,3.2c1.2,0,1.9-0.2,2.5-0.5l0.3,1.2c-0.6,0.3-1.6,0.6-3.1,0.6c-2.8,0-4.5-1.9-4.5-4.6
		s1.6-5,4.3-5c3,0,3.8,2.6,3.8,4.3c0,0.3,0,0.6-0.1,0.8H657.8z M662.7,301.2c0-1.1-0.4-2.7-2.3-2.7c-1.7,0-2.4,1.6-2.6,2.7H662.7z"
		/>
	<path d="M666.9,300c0-1,0-1.7-0.1-2.5h1.5l0.1,1.5h0.1c0.5-0.9,1.4-1.7,2.9-1.7c1.3,0,2.2,0.8,2.6,1.8h0c0.3-0.5,0.6-0.9,1-1.2
		c0.6-0.4,1.2-0.6,2-0.6c1.2,0,3,0.8,3,4v5.4h-1.6v-5.2c0-1.8-0.6-2.8-2-2.8c-1,0-1.7,0.7-2,1.5c-0.1,0.2-0.1,0.5-0.1,0.8v5.7h-1.6
		v-5.5c0-1.5-0.6-2.5-1.9-2.5c-1,0-1.8,0.8-2.1,1.7c-0.1,0.2-0.1,0.5-0.1,0.8v5.5h-1.6V300z"/>
	<path d="M684.1,302.4c0,2.3,1.5,3.2,3.2,3.2c1.2,0,1.9-0.2,2.5-0.5l0.3,1.2c-0.6,0.3-1.6,0.6-3.1,0.6c-2.8,0-4.5-1.9-4.5-4.6
		s1.6-5,4.3-5c3,0,3.8,2.6,3.8,4.3c0,0.3,0,0.6-0.1,0.8H684.1z M689,301.2c0-1.1-0.4-2.7-2.3-2.7c-1.7,0-2.4,1.6-2.6,2.7H689z"/>
	<path d="M693.2,300c0-1,0-1.7-0.1-2.5h1.5l0.1,1.5h0c0.5-0.9,1.5-1.7,3-1.7c1.3,0,3.2,0.8,3.2,3.9v5.5h-1.7v-5.3
		c0-1.5-0.6-2.7-2.1-2.7c-1.1,0-2,0.8-2.2,1.7c-0.1,0.2-0.1,0.5-0.1,0.8v5.5h-1.7V300z"/>
	<path d="M706.2,294.9v2.6h2.4v1.3h-2.4v5c0,1.1,0.3,1.8,1.3,1.8c0.4,0,0.8-0.1,1-0.1l0.1,1.3c-0.3,0.1-0.8,0.2-1.5,0.2
		c-0.8,0-1.4-0.2-1.8-0.7c-0.5-0.5-0.6-1.3-0.6-2.4v-5h-1.4v-1.3h1.4v-2.2L706.2,294.9z"/>
</g>
<path class="st3" d="M362.8,435.8c51.1,0,92.5-11.1,92.5-24.7c0-13.6-41.4-24.7-92.5-24.7s-92.5,11.1-92.5,24.7
	C270.3,424.7,311.7,435.8,362.8,435.8"/>
<path class="st3" d="M362.8,496.8c51.1,0,92.5-11.1,92.5-24.7c0-13.6-41.4-24.7-92.5-24.7s-92.5,11.1-92.5,24.7
	C270.3,485.8,311.7,496.8,362.8,496.8"/>
<g>
	<path d="M303.5,410.8c0-1.1,0-2-0.1-2.9h1.5l0.1,1.8h0.1c0.4-1.2,1.4-2,2.5-2c0.2,0,0.3,0,0.5,0.1v1.6c-0.2,0-0.3-0.1-0.6-0.1
		c-1.2,0-2,0.9-2.2,2.1c0,0.2-0.1,0.5-0.1,0.8v4.9h-1.7V410.8z"/>
	<path d="M318.1,403.7v11.1c0,0.8,0,1.7,0.1,2.4h-1.5l-0.1-1.6h0c-0.5,1-1.6,1.8-3.1,1.8c-2.2,0-3.9-1.9-3.9-4.7
		c0-3.1,1.9-4.9,4.1-4.9c1.4,0,2.4,0.7,2.8,1.4h0v-5.5H318.1z M316.4,411.7c0-0.2,0-0.5-0.1-0.7c-0.2-1.1-1.2-1.9-2.4-1.9
		c-1.7,0-2.8,1.5-2.8,3.6c0,1.9,0.9,3.4,2.7,3.4c1.1,0,2.1-0.7,2.5-2c0.1-0.2,0.1-0.5,0.1-0.7V411.7z"/>
	<path d="M321.5,417.2v-7.9h-1.3V408h1.3v-0.4c0-1.3,0.3-2.5,1.1-3.2c0.6-0.6,1.5-0.9,2.2-0.9c0.6,0,1.1,0.1,1.4,0.3L326,405
		c-0.2-0.1-0.6-0.2-1.1-0.2c-1.4,0-1.8,1.3-1.8,2.7v0.5h2.2v1.3h-2.2v7.9H321.5z"/>
	<path d="M327.1,415.5c0.5,0.3,1.4,0.7,2.2,0.7c1.2,0,1.8-0.6,1.8-1.4c0-0.8-0.5-1.2-1.7-1.7c-1.7-0.6-2.4-1.5-2.4-2.6
		c0-1.5,1.2-2.7,3.2-2.7c0.9,0,1.7,0.3,2.3,0.6l-0.4,1.2c-0.4-0.2-1-0.5-1.9-0.5c-1,0-1.5,0.6-1.5,1.3c0,0.8,0.6,1.1,1.7,1.6
		c1.6,0.6,2.4,1.4,2.4,2.8c0,1.6-1.3,2.8-3.4,2.8c-1,0-1.9-0.2-2.6-0.6L327.1,415.5z"/>
	<path d="M335,409.5c0-0.7,0.5-1.2,1.1-1.2c0.7,0,1.1,0.5,1.1,1.2c0,0.7-0.4,1.2-1.1,1.2C335.4,410.7,335,410.2,335,409.5z
		 M335,416.2c0-0.7,0.5-1.2,1.1-1.2c0.7,0,1.1,0.5,1.1,1.2c0,0.7-0.4,1.2-1.1,1.2C335.4,417.4,335,416.9,335,416.2z"/>
	<path d="M339.8,404.5c0.8-0.2,2-0.3,3.2-0.3c1.8,0,2.9,0.3,3.7,1c0.6,0.6,1,1.4,1,2.4c0,1.7-1.1,2.8-2.4,3.3v0.1
		c1,0.3,1.6,1.3,1.9,2.6c0.4,1.8,0.7,3,1,3.5h-1.7c-0.2-0.4-0.5-1.5-0.9-3.1c-0.4-1.8-1.1-2.4-2.6-2.5h-1.6v5.5h-1.7V404.5z
		 M341.5,410.4h1.7c1.8,0,2.9-1,2.9-2.4c0-1.7-1.2-2.4-2.9-2.4c-0.8,0-1.4,0.1-1.6,0.2V410.4z"/>
	<path d="M351.4,412.9c0,2.3,1.5,3.2,3.2,3.2c1.2,0,1.9-0.2,2.5-0.5l0.3,1.2c-0.6,0.3-1.6,0.6-3.1,0.6c-2.8,0-4.5-1.9-4.5-4.6
		s1.6-5,4.3-5c3,0,3.8,2.6,3.8,4.3c0,0.3,0,0.6-0.1,0.8H351.4z M356.3,411.7c0-1.1-0.4-2.7-2.3-2.7c-1.7,0-2.4,1.6-2.6,2.7H356.3z"
		/>
	<path d="M360.2,415.5c0.5,0.3,1.4,0.7,2.2,0.7c1.2,0,1.8-0.6,1.8-1.4c0-0.8-0.5-1.2-1.7-1.7c-1.7-0.6-2.4-1.5-2.4-2.6
		c0-1.5,1.2-2.7,3.2-2.7c0.9,0,1.7,0.3,2.3,0.6l-0.4,1.2c-0.4-0.2-1-0.5-1.9-0.5c-1,0-1.5,0.6-1.5,1.3c0,0.8,0.6,1.1,1.7,1.6
		c1.6,0.6,2.4,1.4,2.4,2.8c0,1.6-1.3,2.8-3.4,2.8c-1,0-1.9-0.2-2.6-0.6L360.2,415.5z"/>
	<path d="M376.8,412.5c0,3.4-2.4,4.9-4.6,4.9c-2.5,0-4.4-1.8-4.4-4.7c0-3.1,2-4.9,4.6-4.9C375,407.8,376.8,409.7,376.8,412.5z
		 M369.5,412.6c0,2,1.2,3.5,2.8,3.5c1.6,0,2.8-1.5,2.8-3.6c0-1.6-0.8-3.5-2.8-3.5S369.5,410.8,369.5,412.6z"/>
	<path d="M387.1,414.7c0,1,0,1.8,0.1,2.5h-1.5l-0.1-1.5h0c-0.4,0.7-1.4,1.7-3,1.7c-1.4,0-3.2-0.8-3.2-4V408h1.7v5.1
		c0,1.7,0.5,2.9,2.1,2.9c1.1,0,1.9-0.8,2.2-1.5c0.1-0.2,0.2-0.6,0.2-0.9V408h1.7V414.7z"/>
	<path d="M390.3,410.8c0-1.1,0-2-0.1-2.9h1.5l0.1,1.8h0.1c0.4-1.2,1.4-2,2.5-2c0.2,0,0.3,0,0.5,0.1v1.6c-0.2,0-0.3-0.1-0.6-0.1
		c-1.2,0-2,0.9-2.2,2.1c0,0.2-0.1,0.5-0.1,0.8v4.9h-1.7V410.8z"/>
	<path d="M403.5,416.8c-0.4,0.2-1.4,0.5-2.6,0.5c-2.8,0-4.6-1.9-4.6-4.7c0-2.8,1.9-4.9,4.9-4.9c1,0,1.9,0.2,2.3,0.5l-0.4,1.3
		c-0.4-0.2-1-0.4-1.9-0.4c-2.1,0-3.2,1.6-3.2,3.5c0,2.1,1.4,3.4,3.2,3.4c0.9,0,1.6-0.2,2.1-0.5L403.5,416.8z"/>
	<path d="M406.9,412.9c0,2.3,1.5,3.2,3.2,3.2c1.2,0,1.9-0.2,2.5-0.5l0.3,1.2c-0.6,0.3-1.6,0.6-3.1,0.6c-2.8,0-4.5-1.9-4.5-4.6
		s1.6-5,4.3-5c3,0,3.8,2.6,3.8,4.3c0,0.3,0,0.6-0.1,0.8H406.9z M411.8,411.7c0-1.1-0.4-2.7-2.3-2.7c-1.7,0-2.4,1.6-2.6,2.7H411.8z"
		/>
</g>
<g>
	<path d="M317.2,471.9c0-1.1,0-2-0.1-2.9h1.5l0.1,1.8h0.1c0.4-1.2,1.4-2,2.5-2c0.2,0,0.3,0,0.5,0.1v1.6c-0.2,0-0.3-0.1-0.6-0.1
		c-1.2,0-2,0.9-2.2,2.1c0,0.2-0.1,0.5-0.1,0.8v4.9h-1.7V471.9z"/>
	<path d="M331.8,464.7v11.1c0,0.8,0,1.7,0.1,2.4h-1.5l-0.1-1.6h0c-0.5,1-1.6,1.8-3.1,1.8c-2.2,0-3.9-1.9-3.9-4.7
		c0-3.1,1.9-4.9,4.1-4.9c1.4,0,2.4,0.7,2.8,1.4h0v-5.5H331.8z M330.2,472.8c0-0.2,0-0.5-0.1-0.7c-0.2-1.1-1.2-1.9-2.4-1.9
		c-1.7,0-2.8,1.5-2.8,3.6c0,1.9,0.9,3.4,2.7,3.4c1.1,0,2.1-0.7,2.5-2c0.1-0.2,0.1-0.5,0.1-0.7V472.8z"/>
	<path d="M335.3,478.2v-7.9H334V469h1.3v-0.4c0-1.3,0.3-2.5,1.1-3.2c0.6-0.6,1.5-0.9,2.2-0.9c0.6,0,1.1,0.1,1.4,0.3l-0.2,1.3
		c-0.2-0.1-0.6-0.2-1.1-0.2c-1.4,0-1.8,1.3-1.8,2.7v0.5h2.2v1.3h-2.2v7.9H335.3z"/>
	<path d="M340.9,476.5c0.5,0.3,1.4,0.7,2.2,0.7c1.2,0,1.8-0.6,1.8-1.4c0-0.8-0.5-1.2-1.7-1.7c-1.7-0.6-2.4-1.5-2.4-2.6
		c0-1.5,1.2-2.7,3.2-2.7c0.9,0,1.7,0.3,2.3,0.6l-0.4,1.2c-0.4-0.2-1-0.5-1.9-0.5c-1,0-1.5,0.6-1.5,1.3c0,0.8,0.6,1.1,1.7,1.6
		c1.6,0.6,2.4,1.4,2.4,2.8c0,1.6-1.3,2.8-3.4,2.8c-1,0-1.9-0.2-2.6-0.6L340.9,476.5z"/>
	<path d="M348.7,470.5c0-0.7,0.5-1.2,1.1-1.2c0.7,0,1.1,0.5,1.1,1.2c0,0.7-0.4,1.2-1.1,1.2C349.2,471.7,348.7,471.2,348.7,470.5z
		 M348.7,477.3c0-0.7,0.5-1.2,1.1-1.2c0.7,0,1.1,0.5,1.1,1.2c0,0.7-0.4,1.2-1.1,1.2C349.2,478.4,348.7,477.9,348.7,477.3z"/>
	<path d="M353.6,465.4h1.7v11.4h5.5v1.4h-7.1V465.4z"/>
	<path d="M364.8,466.4c0,0.6-0.4,1-1.1,1c-0.6,0-1-0.5-1-1c0-0.6,0.4-1,1-1C364.4,465.4,364.8,465.9,364.8,466.4z M362.9,478.2V469
		h1.7v9.2H362.9z"/>
	<path d="M369.9,466.4v2.6h2.4v1.3h-2.4v5c0,1.1,0.3,1.8,1.3,1.8c0.4,0,0.8-0.1,1-0.1l0.1,1.3c-0.3,0.1-0.8,0.2-1.5,0.2
		c-0.8,0-1.4-0.2-1.8-0.7c-0.5-0.5-0.6-1.3-0.6-2.4v-5h-1.4V469h1.4v-2.2L369.9,466.4z"/>
	<path d="M375.6,473.9c0,2.3,1.5,3.2,3.2,3.2c1.2,0,1.9-0.2,2.5-0.5l0.3,1.2c-0.6,0.3-1.6,0.6-3.1,0.6c-2.8,0-4.5-1.9-4.5-4.6
		s1.6-5,4.3-5c3,0,3.8,2.6,3.8,4.3c0,0.3,0,0.6-0.1,0.8H375.6z M380.5,472.7c0-1.1-0.4-2.7-2.3-2.7c-1.7,0-2.4,1.6-2.6,2.7H380.5z"
		/>
	<path d="M384.6,471.9c0-1.1,0-2-0.1-2.9h1.5l0.1,1.8h0.1c0.4-1.2,1.4-2,2.5-2c0.2,0,0.3,0,0.5,0.1v1.6c-0.2,0-0.3-0.1-0.6-0.1
		c-1.2,0-2,0.9-2.2,2.1c0,0.2-0.1,0.5-0.1,0.8v4.9h-1.7V471.9z"/>
	<path d="M396.4,478.2l-0.1-1.2h-0.1c-0.5,0.7-1.5,1.4-2.8,1.4c-1.9,0-2.8-1.3-2.8-2.6c0-2.2,2-3.4,5.5-3.4v-0.2
		c0-0.8-0.2-2.1-2.1-2.1c-0.9,0-1.7,0.3-2.4,0.7l-0.4-1.1c0.8-0.5,1.9-0.8,3-0.8c2.8,0,3.5,1.9,3.5,3.8v3.4c0,0.8,0,1.6,0.2,2.2
		H396.4z M396.1,473.5c-1.8,0-3.9,0.3-3.9,2.1c0,1.1,0.7,1.6,1.6,1.6c1.2,0,2-0.8,2.2-1.5c0.1-0.2,0.1-0.4,0.1-0.5V473.5z"/>
	<path d="M400.9,464.7h1.7v13.5h-1.7V464.7z"/>
</g>
<path class="st4" d="M251.9,61.1c0,0,22.2-19.7,57.6-19.7"/>
<polygon class="st3" points="248.6,64.1 257.1,64.3 249.4,55.6 "/>
<path class="st4" d="M555.2,60.1c0,0-22.2-19.7-57.6-19.7"/>
<polygon class="st3" points="558.5,63.1 550,63.3 557.7,54.6 "/>
<line class="st4" x1="117.5" y1="160.6" x2="170.6" y2="120.8"/>
<polygon class="st3" points="113.9,163.3 122.4,164.2 115.4,154.9 "/>
<line class="st4" x1="212.4" y1="124.9" x2="237.2" y2="170"/>
<polygon class="st3" points="210.3,121 208.2,129.3 218.4,123.7 "/>
<line class="st4" x1="669.4" y1="111.2" x2="700.7" y2="163.5"/>
<polygon class="st3" points="667.1,107.4 665.3,115.7 675.3,109.7 "/>
<line class="st4" x1="604.7" y1="125" x2="580.9" y2="173.3"/>
<polygon class="st3" points="606.7,121 598.7,124 609.2,129.2 "/>
<line class="st4" x1="272.6" y1="119.9" x2="297.4" y2="165"/>
<polygon class="st3" points="270.5,116 268.4,124.3 278.6,118.7 "/>
<line class="st4" x1="300.6" y1="105.4" x2="307.8" y2="120"/>
<polygon class="st3" points="298.6,101.4 296.2,109.5 306.6,104.4 "/>
<line class="st4" x1="265.3" y1="396.7" x2="101.1" y2="222.8"/>
<polygon class="st3" points="268.4,400 268.3,391.5 259.9,399.4 "/>
<path class="st4" d="M274.1,388c0,0-4.7-76.3,26.4-86.2"/>
<polygon class="st3" points="274.3,392.5 279.8,385.9 268.1,386.6 "/>
<line class="st4" x1="559.1" y1="298.8" x2="485.6" y2="298.8"/>
<polygon class="st3" points="563.6,298.8 557.3,293 557.3,304.6 "/>
<path class="st4" d="M582.7,278.8c0,0-14.9-27.3-97.1-27.3"/>
<polygon class="st3" points="584.8,282.8 586.9,274.5 576.7,280.1 "/>
<path class="st4" d="M582.7,322.8c0,0-14.9,27.3-97.1,27.3"/>
<polygon class="st3" points="584.8,318.9 586.9,327.2 576.7,321.6 "/>
<path class="st4" d="M566.1,124.5c0,0-4.4,10.5-15.3,30.7c-19.8,36.9-51,19.8-65.2,43.9c-14.2,24.1-22.7,34-22.7,34"/>
<polygon class="st3" points="567.8,120.4 560,123.9 570.7,128.4 "/>
<path class="st4" d="M498.6,104.5c-9.9,9.5,4.6,9.2-6.7,21"/>
<polygon class="st3" points="501.9,101.4 493.3,101.5 501.4,109.9 "/>
<path class="st4" d="M258.3,409.8c0,0-45.4-1.3-87.1,12.9"/>
<polygon class="st3" points="262.7,409.9 256.6,403.9 256.3,415.5 "/>
<path class="st4" d="M457,408.8c0,0,45.4-1.3,87.1,12.9"/>
<polygon class="st3" points="456.6,408.9 462.7,402.9 463,414.5 "/>
<path class="st4" d="M258.3,475.9c0,0-45.4,1.3-87.1-12.9"/>
<polygon class="st3" points="262.7,475.8 256.6,481.8 256.3,470.2 "/>
<path class="st4" d="M457,474.9c0,0,45.4,1.3,87.1-12.9"/>
<polygon class="st3" points="457.6,474.8 463.7,480.8 464,469.2 "/>
<g>
	<path class="st5" d="M25.2,333.2c0-0.9,0-1.7-0.1-2.4h1.2l0,1.5h0.1c0.4-1,1.2-1.7,2.1-1.7c0.2,0,0.3,0,0.4,0v1.3
		c-0.1,0-0.3,0-0.5,0c-1,0-1.7,0.8-1.9,1.8c0,0.2-0.1,0.4-0.1,0.7v4.1h-1.4V333.2z"/>
	<path class="st5" d="M33.3,333.2v-1h8.3v1H33.3z M33.3,336.3v-1h8.3v1H33.3z"/>
	<path class="st5" d="M46.7,333.2c0-0.9,0-1.7-0.1-2.4h1.2l0,1.5H48c0.4-1,1.2-1.7,2.1-1.7c0.2,0,0.3,0,0.4,0v1.3
		c-0.1,0-0.3,0-0.5,0c-1,0-1.7,0.8-1.9,1.8c0,0.2-0.1,0.4-0.1,0.7v4.1h-1.4V333.2z"/>
	<path class="st5" d="M58.6,327.2v9.4c0,0.7,0,1.5,0.1,2h-1.3l-0.1-1.3h0c-0.4,0.9-1.4,1.5-2.6,1.5c-1.9,0-3.3-1.6-3.3-3.9
		c0-2.6,1.6-4.2,3.5-4.2c1.2,0,2,0.6,2.3,1.2h0v-4.6H58.6z M57.2,334c0-0.2,0-0.4-0.1-0.6c-0.2-0.9-1-1.6-2-1.6
		c-1.5,0-2.3,1.3-2.3,3c0,1.6,0.8,2.9,2.3,2.9c0.9,0,1.8-0.6,2.1-1.7c0-0.2,0.1-0.4,0.1-0.6V334z"/>
	<path class="st5" d="M61.1,338.6v-6.7H60v-1.1h1.1v-0.4c0-1.1,0.2-2.1,0.9-2.7c0.5-0.5,1.2-0.7,1.9-0.7c0.5,0,0.9,0.1,1.2,0.2
		l-0.2,1.1c-0.2-0.1-0.5-0.2-0.9-0.2c-1.2,0-1.5,1.1-1.5,2.2v0.4h1.9v1.1h-1.9v6.7H61.1z"/>
	<path class="st5" d="M65.4,337.1c0.4,0.3,1.2,0.6,1.9,0.6c1,0,1.5-0.5,1.5-1.2c0-0.7-0.4-1-1.4-1.4c-1.4-0.5-2-1.3-2-2.2
		c0-1.2,1-2.3,2.7-2.3c0.8,0,1.5,0.2,1.9,0.5l-0.4,1c-0.3-0.2-0.9-0.4-1.6-0.4c-0.8,0-1.3,0.5-1.3,1.1c0,0.6,0.5,0.9,1.5,1.3
		c1.3,0.5,2,1.2,2,2.3c0,1.4-1.1,2.3-2.9,2.3c-0.8,0-1.6-0.2-2.2-0.5L65.4,337.1z"/>
	<path class="st5" d="M71.6,332.1c0-0.6,0.4-1,1-1c0.6,0,0.9,0.4,0.9,1c0,0.6-0.4,1-1,1C72,333.1,71.6,332.7,71.6,332.1z
		 M71.6,337.8c0-0.6,0.4-1,1-1c0.6,0,0.9,0.4,0.9,1c0,0.6-0.4,1-1,1C72,338.7,71.6,338.3,71.6,337.8z"/>
	<path class="st5" d="M75.3,333.2c0-0.9,0-1.7-0.1-2.4h1.2l0,1.5h0.1c0.4-1,1.2-1.7,2.1-1.7c0.2,0,0.3,0,0.4,0v1.3
		c-0.1,0-0.3,0-0.5,0c-1,0-1.7,0.8-1.9,1.8c0,0.2-0.1,0.4-0.1,0.7v4.1h-1.4V333.2z"/>
	<path class="st5" d="M84.8,338.6l-0.1-1h0c-0.4,0.6-1.3,1.2-2.4,1.2c-1.6,0-2.4-1.1-2.4-2.2c0-1.9,1.7-2.9,4.7-2.9v-0.2
		c0-0.6-0.2-1.8-1.8-1.8c-0.7,0-1.5,0.2-2,0.6l-0.3-0.9c0.6-0.4,1.6-0.7,2.5-0.7c2.4,0,2.9,1.6,2.9,3.2v2.9c0,0.7,0,1.3,0.1,1.9
		H84.8z M84.6,334.6c-1.5,0-3.3,0.2-3.3,1.7c0,0.9,0.6,1.3,1.3,1.3c1,0,1.6-0.6,1.9-1.3c0-0.1,0.1-0.3,0.1-0.4V334.6z"/>
	<path class="st5" d="M88.2,332.9c0-0.8,0-1.5-0.1-2.1h1.2l0.1,1.3h0c0.4-0.7,1.3-1.5,2.6-1.5c1.1,0,2.7,0.6,2.7,3.3v4.6h-1.4v-4.5
		c0-1.2-0.5-2.3-1.8-2.3c-0.9,0-1.6,0.7-1.9,1.4c-0.1,0.2-0.1,0.4-0.1,0.7v4.7h-1.4V332.9z"/>
	<path class="st5" d="M103.8,330.8c0,0.6-0.1,1.2-0.1,2.1v4.5c0,1.8-0.4,2.9-1.1,3.5c-0.8,0.7-1.8,0.9-2.8,0.9c-0.9,0-2-0.2-2.6-0.6
		l0.4-1.1c0.5,0.3,1.3,0.6,2.3,0.6c1.4,0,2.5-0.8,2.5-2.7v-0.9h0c-0.4,0.7-1.3,1.3-2.5,1.3c-1.9,0-3.3-1.6-3.3-3.8
		c0-2.6,1.7-4.1,3.5-4.1c1.3,0,2.1,0.7,2.4,1.3h0l0.1-1.2H103.8z M102.3,333.9c0-0.2,0-0.4-0.1-0.6c-0.3-0.8-0.9-1.5-2-1.5
		c-1.3,0-2.3,1.1-2.3,2.9c0,1.5,0.8,2.8,2.3,2.8c0.9,0,1.6-0.5,2-1.4c0.1-0.2,0.1-0.5,0.1-0.8V333.9z"/>
	<path class="st5" d="M106.8,335c0,1.9,1.2,2.7,2.7,2.7c1,0,1.6-0.2,2.1-0.4l0.2,1c-0.5,0.2-1.3,0.5-2.6,0.5c-2.4,0-3.8-1.6-3.8-3.9
		s1.4-4.2,3.6-4.2c2.5,0,3.2,2.2,3.2,3.6c0,0.3,0,0.5,0,0.7H106.8z M111,333.9c0-0.9-0.4-2.3-2-2.3c-1.4,0-2,1.3-2.2,2.3H111z"/>
</g>
<g>
	<path class="st5" d="M31.9,344.5v9.4c0,0.7,0,1.5,0.1,2h-1.3l-0.1-1.3h0c-0.4,0.9-1.4,1.5-2.6,1.5c-1.9,0-3.3-1.6-3.3-3.9
		c0-2.6,1.6-4.2,3.5-4.2c1.2,0,2,0.6,2.3,1.2h0v-4.6H31.9z M30.4,351.3c0-0.2,0-0.4-0.1-0.6c-0.2-0.9-1-1.6-2-1.6
		c-1.5,0-2.3,1.3-2.3,3c0,1.6,0.8,2.9,2.3,2.9c0.9,0,1.8-0.6,2.1-1.7c0-0.2,0.1-0.4,0.1-0.6V351.3z"/>
	<path class="st5" d="M37,350.5v-1h8.3v1H37z M37,353.6v-1h8.3v1H37z"/>
	<path class="st5" d="M50.5,350.6c0-0.9,0-1.7-0.1-2.4h1.2l0,1.5h0.1c0.4-1,1.2-1.7,2.1-1.7c0.2,0,0.3,0,0.4,0v1.3
		c-0.1,0-0.3,0-0.5,0c-1,0-1.7,0.8-1.9,1.8c0,0.2-0.1,0.4-0.1,0.7v4.1h-1.4V350.6z"/>
	<path class="st5" d="M62.4,344.5v9.4c0,0.7,0,1.5,0.1,2h-1.3l-0.1-1.3h0c-0.4,0.9-1.4,1.5-2.6,1.5c-1.9,0-3.3-1.6-3.3-3.9
		c0-2.6,1.6-4.2,3.5-4.2c1.2,0,2,0.6,2.3,1.2h0v-4.6H62.4z M61,351.3c0-0.2,0-0.4-0.1-0.6c-0.2-0.9-1-1.6-2-1.6
		c-1.5,0-2.3,1.3-2.3,3c0,1.6,0.8,2.9,2.3,2.9c0.9,0,1.8-0.6,2.1-1.7c0-0.2,0.1-0.4,0.1-0.6V351.3z"/>
	<path class="st5" d="M64.9,355.9v-6.7h-1.1v-1.1h1.1v-0.4c0-1.1,0.2-2.1,0.9-2.7c0.5-0.5,1.2-0.7,1.9-0.7c0.5,0,0.9,0.1,1.2,0.2
		l-0.2,1.1c-0.2-0.1-0.5-0.2-0.9-0.2c-1.2,0-1.5,1.1-1.5,2.2v0.4h1.9v1.1h-1.9v6.7H64.9z"/>
	<path class="st5" d="M69.2,354.4c0.4,0.3,1.2,0.6,1.9,0.6c1,0,1.5-0.5,1.5-1.2c0-0.7-0.4-1-1.4-1.4c-1.4-0.5-2-1.3-2-2.2
		c0-1.2,1-2.3,2.7-2.3c0.8,0,1.5,0.2,1.9,0.5l-0.4,1c-0.3-0.2-0.9-0.4-1.6-0.4c-0.8,0-1.3,0.5-1.3,1.1c0,0.6,0.5,0.9,1.5,1.3
		c1.3,0.5,2,1.2,2,2.3c0,1.4-1.1,2.3-2.9,2.3c-0.8,0-1.6-0.2-2.2-0.5L69.2,354.4z"/>
	<path class="st5" d="M75.4,349.4c0-0.6,0.4-1,1-1c0.6,0,0.9,0.4,0.9,1c0,0.6-0.4,1-1,1C75.8,350.4,75.4,350,75.4,349.4z
		 M75.4,355.1c0-0.6,0.4-1,1-1c0.6,0,0.9,0.4,0.9,1c0,0.6-0.4,1-1,1C75.8,356.1,75.4,355.6,75.4,355.1z"/>
	<path class="st5" d="M85.8,344.5v9.4c0,0.7,0,1.5,0.1,2h-1.3l-0.1-1.3h0c-0.4,0.9-1.4,1.5-2.6,1.5c-1.9,0-3.3-1.6-3.3-3.9
		c0-2.6,1.6-4.2,3.5-4.2c1.2,0,2,0.6,2.3,1.2h0v-4.6H85.8z M84.4,351.3c0-0.2,0-0.4-0.1-0.6c-0.2-0.9-1-1.6-2-1.6
		c-1.5,0-2.3,1.3-2.3,3c0,1.6,0.8,2.9,2.3,2.9c0.9,0,1.8-0.6,2.1-1.7c0-0.2,0.1-0.4,0.1-0.6V351.3z"/>
	<path class="st5" d="M95.1,351.9c0,2.9-2,4.1-3.9,4.1c-2.1,0-3.7-1.5-3.7-4c0-2.6,1.7-4.1,3.8-4.1C93.6,348,95.1,349.6,95.1,351.9z
		 M89,352c0,1.7,1,3,2.4,3c1.3,0,2.4-1.3,2.4-3c0-1.3-0.7-3-2.3-3C89.7,349,89,350.6,89,352z"/>
	<path class="st5" d="M96.9,350.2c0-0.8,0-1.5-0.1-2.1h1.2l0.1,1.2h0c0.4-0.7,1.2-1.4,2.4-1.4c1.1,0,1.9,0.6,2.2,1.6h0
		c0.2-0.4,0.5-0.8,0.9-1c0.5-0.4,1-0.5,1.7-0.5c1,0,2.5,0.7,2.5,3.4v4.6h-1.4v-4.4c0-1.5-0.5-2.4-1.7-2.4c-0.8,0-1.4,0.6-1.7,1.3
		c-0.1,0.2-0.1,0.4-0.1,0.7v4.8h-1.4v-4.6c0-1.2-0.5-2.1-1.6-2.1c-0.9,0-1.5,0.7-1.7,1.4c-0.1,0.2-0.1,0.4-0.1,0.7v4.7h-1.4V350.2z"
		/>
	<path class="st5" d="M114.5,355.9l-0.1-1h0c-0.4,0.6-1.3,1.2-2.4,1.2c-1.6,0-2.4-1.1-2.4-2.2c0-1.9,1.7-2.9,4.7-2.9v-0.2
		c0-0.6-0.2-1.8-1.8-1.8c-0.7,0-1.5,0.2-2,0.6l-0.3-0.9c0.6-0.4,1.6-0.7,2.5-0.7c2.4,0,2.9,1.6,2.9,3.2v2.9c0,0.7,0,1.3,0.1,1.9
		H114.5z M114.3,351.9c-1.5,0-3.3,0.2-3.3,1.7c0,0.9,0.6,1.3,1.3,1.3c1,0,1.6-0.6,1.9-1.3c0-0.1,0.1-0.3,0.1-0.4V351.9z"/>
	<path class="st5" d="M119.5,346c0,0.5-0.3,0.9-0.9,0.9c-0.5,0-0.8-0.4-0.8-0.9c0-0.5,0.4-0.9,0.9-0.9
		C119.2,345.1,119.5,345.5,119.5,346z M117.9,355.9v-7.7h1.4v7.7H117.9z"/>
	<path class="st5" d="M121.7,350.2c0-0.8,0-1.5-0.1-2.1h1.2l0.1,1.3h0c0.4-0.7,1.3-1.5,2.6-1.5c1.1,0,2.7,0.6,2.7,3.3v4.6h-1.4v-4.5
		c0-1.2-0.5-2.3-1.8-2.3c-0.9,0-1.6,0.7-1.9,1.4c-0.1,0.2-0.1,0.4-0.1,0.7v4.7h-1.4V350.2z"/>
</g>
</svg>
