<?xml version="1.0" encoding="utf-8"?>
<!-- Generator: Adobe Illustrator 19.0.1, SVG Export Plug-In . SVG Version: 6.00 Build 0)  -->
<svg version="1.1" id="Camada_1" xmlns="http://www.w3.org/2000/svg" xmlns:xlink="http://www.w3.org/1999/xlink" x="0px" y="0px"
	 viewBox="0 0 637.4 454" style="enable-background:new 0 0 637.4 454;" xml:space="preserve">
<style type="text/css">
	.st0{fill:#FAF9ED;}
	.st1{fill:#305D5F;}
	.st2{fill:#75A93A;}
	.st3{fill:#3D8D8B;}
	.st4{fill:#A1C173;}
	.st5{fill:#6B933E;}
	.st6{fill:#A0CBDA;}
	.st7{fill:#95601E;}
	.st8{fill:#B97F15;}
	.st9{fill:#E9C06B;}
	.st10{fill:#828EC1;}
</style>
<rect class="st0" width="637.4" height="454"/>
<polygon class="st1" points="114.5,207.5 41.5,207.5 27.2,221.8 27.2,311.1 114.5,311.1 "/>
<polygon class="st0" points="109.8,212.2 43.4,212.2 31.9,223.7 31.9,305.6 109.8,305.6 "/>
<polygon class="st1" points="46.2,228.4 27.2,228.4 30.6,223.7 46.2,223.7 "/>
<rect x="43.5" y="207.5" class="st1" width="4.7" height="21"/>
<rect x="18" y="379.8" class="st2" width="300.7" height="60.3"/>
<path class="st1" d="M19.6,438.4h297.4v-56.9H19.6V438.4z M318.7,441.7H18c-0.9,0-1.7-0.7-1.7-1.7v-60.3c0-0.9,0.7-1.7,1.7-1.7
	h300.7c0.9,0,1.7,0.7,1.7,1.7V440C320.4,441,319.6,441.7,318.7,441.7"/>
<rect x="18" y="319.5" class="st3" width="601.5" height="60.3"/>
<path class="st1" d="M19.6,378.1h598.1v-56.9H19.6V378.1z M619.4,381.4H18c-0.9,0-1.7-0.7-1.7-1.7v-60.3c0-0.9,0.7-1.7,1.7-1.7
	h601.5c0.9,0,1.7,0.7,1.7,1.7v60.3C621.1,380.7,620.3,381.4,619.4,381.4"/>
<rect x="123.7" y="259.3" class="st4" width="435.5" height="60.3"/>
<path class="st1" d="M125.4,317.9h432.2v-56.9H125.4V317.9z M559.2,321.2H123.7c-0.9,0-1.7-0.7-1.7-1.7v-60.3c0-0.9,0.7-1.7,1.7-1.7
	h435.5c0.9,0,1.7,0.7,1.7,1.7v60.3C560.8,320.5,560.1,321.2,559.2,321.2"/>
<rect x="318.7" y="379.8" class="st5" width="300.7" height="60.3"/>
<path class="st1" d="M320.4,438.4h297.4v-56.9H320.4V438.4z M619.4,441.7H318.7c-0.9,0-1.7-0.7-1.7-1.7v-60.3c0-0.9,0.7-1.7,1.7-1.7
	h300.7c0.9,0,1.7,0.7,1.7,1.7V440C621.1,441,620.3,441.7,619.4,441.7"/>
<rect x="559.2" y="78.7" class="st6" width="60.3" height="240.8"/>
<path class="st1" d="M560.8,317.9h56.9V80.4h-56.9V317.9z M619.4,321.2h-60.3c-0.9,0-1.7-0.7-1.7-1.7V78.7c0-0.9,0.7-1.7,1.7-1.7
	h60.3c0.9,0,1.7,0.7,1.7,1.7v240.8C621.1,320.5,620.3,321.2,619.4,321.2"/>
<rect x="229.4" y="199" class="st7" width="329.7" height="60.3"/>
<path class="st1" d="M231.1,257.6h326.4v-56.9H231.1V257.6z M559.2,260.9H229.4c-0.9,0-1.7-0.7-1.7-1.7V199c0-0.9,0.7-1.7,1.7-1.7
	h329.7c0.9,0,1.7,0.7,1.7,1.7v60.3C560.8,260.2,560.1,260.9,559.2,260.9"/>
<rect x="335.2" y="138.9" class="st8" width="224" height="60.3"/>
<path class="st1" d="M336.8,197.5h220.7v-56.9H336.8V197.5z M559.2,200.9h-224c-0.9,0-1.7-0.7-1.7-1.7v-60.3c0-0.9,0.7-1.7,1.7-1.7
	h224c0.9,0,1.7,0.7,1.7,1.7v60.3C560.8,200.1,560.1,200.9,559.2,200.9"/>
<rect x="440.9" y="78.7" class="st9" width="118.3" height="60.3"/>
<rect x="495.6" y="19.2" class="st10" width="123.8" height="60.3"/>
<path class="st1" d="M442.6,137.3h115V80.3h-115V137.3z M559.2,140.6H440.9c-0.9,0-1.7-0.7-1.7-1.7V78.7c0-0.9,0.7-1.7,1.7-1.7
	h118.3c0.9,0,1.7,0.7,1.7,1.7v60.3C560.8,139.9,560.1,140.6,559.2,140.6"/>
<path class="st1" d="M497.6,77.1h120.2V20.1H497.6V77.1z M619.4,80.4H495.9c-0.9,0-1.7-0.7-1.7-1.7V18.5c0-0.9,0.7-1.7,1.7-1.7
	h123.5c0.9,0,1.7,0.7,1.7,1.7v60.3C621.1,79.6,620.3,80.4,619.4,80.4"/>
<polygon class="st1" points="220.3,146.4 147.3,146.4 132.9,160.7 132.9,250.1 220.3,250.1 "/>
<polygon class="st0" points="215.6,151.2 149.2,151.2 137.6,162.7 137.6,244.6 215.6,244.6 "/>
<polygon class="st1" points="152,167.4 132.9,167.4 136.4,162.7 152,162.7 "/>
<rect x="149.2" y="146.4" class="st1" width="4.7" height="21"/>
<polygon class="st1" points="326,87 253,87 238.6,101.3 238.6,190.7 326,190.7 "/>
<polygon class="st0" points="321.3,91.7 254.9,91.7 243.3,103.3 243.3,185.2 321.3,185.2 "/>
<polygon class="st1" points="257.7,108 238.6,108 242.1,103.3 257.7,103.3 "/>
<rect x="254.9" y="87" class="st1" width="4.7" height="21"/>
<polygon class="st1" points="431.6,27.6 358.6,27.6 344.2,41.9 344.2,131.3 431.6,131.3 "/>
<polygon class="st0" points="426.9,32.3 360.5,32.3 348.9,43.9 348.9,125.8 426.9,125.8 "/>
<polygon class="st1" points="363.3,48.6 344.2,48.6 347.7,43.9 363.3,43.9 "/>
<rect x="360.5" y="27.6" class="st1" width="4.7" height="21"/>
<g>
	<path d="M50.2,232.6c1.3-0.2,2.8-0.3,4.4-0.3c3,0,5.1,0.7,6.6,2c1.4,1.3,2.3,3.2,2.3,5.8c0,2.6-0.8,4.8-2.3,6.3
		c-1.5,1.5-4,2.3-7.2,2.3c-1.5,0-2.7-0.1-3.8-0.2V232.6z M52.3,247c0.5,0.1,1.3,0.1,2.1,0.1c4.5,0,6.9-2.5,6.9-6.9
		c0-3.8-2.1-6.2-6.6-6.2c-1.1,0-1.9,0.1-2.4,0.2V247z"/>
	<path d="M76.7,242.7c0,4.3-3,6.2-5.8,6.2c-3.1,0-5.6-2.3-5.6-6c0-3.9,2.5-6.2,5.8-6.2C74.4,236.7,76.7,239.1,76.7,242.7z
		 M67.4,242.8c0,2.5,1.5,4.5,3.5,4.5c2,0,3.5-1.9,3.5-4.5c0-2-1-4.5-3.5-4.5S67.4,240.6,67.4,242.8z"/>
	<path d="M87.6,248.2c-0.6,0.3-1.8,0.7-3.3,0.7c-3.5,0-5.8-2.4-5.8-5.9c0-3.6,2.4-6.2,6.2-6.2c1.2,0,2.4,0.3,2.9,0.6l-0.5,1.6
		c-0.5-0.3-1.3-0.6-2.4-0.6c-2.7,0-4.1,2-4.1,4.4c0,2.7,1.7,4.3,4,4.3c1.2,0,2-0.3,2.6-0.6L87.6,248.2z"/>
	<path d="M89.6,247.4c0-0.9,0.6-1.5,1.4-1.5c0.8,0,1.4,0.6,1.4,1.5c0,0.9-0.6,1.5-1.4,1.5C90.1,248.9,89.6,248.2,89.6,247.4z"/>
</g>
<g>
	<path d="M50.9,264.2l-1.7,5.1H47l5.5-16.2H55l5.5,16.2h-2.2l-1.7-5.1H50.9z M56.2,262.6l-1.6-4.7c-0.4-1.1-0.6-2-0.8-3h0
		c-0.2,1-0.5,1.9-0.8,2.9l-1.6,4.7H56.2z"/>
	<path d="M62.9,252.3H65v17h-2.1V252.3z"/>
	<path d="M71.1,254.4v3.3h3v1.6h-3v6.3c0,1.4,0.4,2.3,1.6,2.3c0.6,0,1-0.1,1.2-0.1l0.1,1.6c-0.4,0.2-1.1,0.3-1.9,0.3
		c-1,0-1.8-0.3-2.3-0.9c-0.6-0.6-0.8-1.7-0.8-3v-6.3h-1.8v-1.6H69v-2.8L71.1,254.4z"/>
	<path d="M87,263.4c0,4.3-3,6.2-5.8,6.2c-3.1,0-5.6-2.3-5.6-6c0-3.9,2.5-6.2,5.8-6.2C84.7,257.5,87,259.9,87,263.4z M77.8,263.5
		c0,2.5,1.5,4.5,3.5,4.5c2,0,3.5-1.9,3.5-4.5c0-2-1-4.5-3.5-4.5S77.8,261.3,77.8,263.5z"/>
	<path d="M94.5,262.1v1.6h-5.9v-1.6H94.5z"/>
</g>
<g>
</g>
<g>
	<path d="M57.2,270v14c0,1,0,2.2,0.1,3h-1.9l-0.1-2h0c-0.6,1.3-2.1,2.3-4,2.3c-2.8,0-5-2.4-5-5.9c0-3.9,2.4-6.2,5.2-6.2
		c1.8,0,3,0.8,3.5,1.8h0V270H57.2z M55.1,280.2c0-0.3,0-0.6-0.1-0.9c-0.3-1.3-1.5-2.4-3-2.4c-2.2,0-3.5,1.9-3.5,4.5
		c0,2.4,1.2,4.3,3.4,4.3c1.4,0,2.7-0.9,3.1-2.5c0.1-0.3,0.1-0.6,0.1-0.9V280.2z"/>
	<path d="M61.9,281.6c0,2.9,1.9,4,4,4c1.5,0,2.4-0.3,3.2-0.6l0.4,1.5c-0.7,0.3-2,0.7-3.9,0.7c-3.6,0-5.7-2.4-5.7-5.9
		c0-3.5,2.1-6.3,5.4-6.3c3.8,0,4.8,3.3,4.8,5.5c0,0.4,0,0.8-0.1,1H61.9z M68.1,280.1c0-1.3-0.6-3.4-2.9-3.4c-2.1,0-3.1,2-3.2,3.4
		H68.1z"/>
	<path d="M72.5,284.9c0.6,0.4,1.7,0.8,2.8,0.8c1.5,0,2.3-0.8,2.3-1.7c0-1-0.6-1.6-2.2-2.1c-2.1-0.7-3.1-1.9-3.1-3.3
		c0-1.9,1.5-3.4,4-3.4c1.2,0,2.2,0.3,2.9,0.7l-0.5,1.5c-0.5-0.3-1.3-0.7-2.4-0.7c-1.2,0-1.9,0.7-1.9,1.6c0,1,0.7,1.4,2.2,2
		c2,0.8,3,1.8,3,3.5c0,2-1.6,3.5-4.3,3.5c-1.3,0-2.4-0.3-3.3-0.8L72.5,284.9z"/>
	<path d="M90.6,286.6c-0.6,0.3-1.8,0.7-3.3,0.7c-3.5,0-5.8-2.4-5.8-5.9c0-3.6,2.4-6.2,6.2-6.2c1.2,0,2.4,0.3,2.9,0.6l-0.5,1.6
		c-0.5-0.3-1.3-0.6-2.4-0.6c-2.7,0-4.1,2-4.1,4.4c0,2.7,1.7,4.3,4,4.3c1.2,0,2-0.3,2.6-0.6L90.6,286.6z"/>
	<path d="M92.5,285.8c0-0.9,0.6-1.5,1.4-1.5c0.8,0,1.4,0.6,1.4,1.5c0,0.9-0.6,1.5-1.4,1.5C93.1,287.3,92.5,286.7,92.5,285.8z"/>
</g>
<g>
	<path d="M148.1,189c1.3-0.2,2.8-0.3,4.4-0.3c3,0,5.1,0.7,6.6,2c1.4,1.3,2.3,3.2,2.3,5.8c0,2.6-0.8,4.8-2.3,6.3
		c-1.5,1.5-4,2.3-7.2,2.3c-1.5,0-2.7-0.1-3.8-0.2V189z M150.2,203.3c0.5,0.1,1.3,0.1,2.1,0.1c4.5,0,6.9-2.5,6.9-6.9
		c0-3.8-2.1-6.2-6.6-6.2c-1.1,0-1.9,0.1-2.4,0.2V203.3z"/>
	<path d="M170.4,205l-0.2-1.5h-0.1c-0.6,0.9-1.9,1.7-3.6,1.7c-2.4,0-3.6-1.7-3.6-3.3c0-2.8,2.5-4.3,7-4.3v-0.2c0-1-0.3-2.7-2.6-2.7
		c-1.1,0-2.2,0.3-3,0.9l-0.5-1.4c1-0.6,2.4-1,3.8-1c3.6,0,4.4,2.4,4.4,4.8v4.3c0,1,0,2,0.2,2.8H170.4z M170.1,199
		c-2.3,0-4.9,0.4-4.9,2.6c0,1.4,0.9,2,2,2c1.5,0,2.5-1,2.8-1.9c0.1-0.2,0.1-0.5,0.1-0.7V199z"/>
	<path d="M185.6,187.9v14c0,1,0,2.2,0.1,3h-1.9l-0.1-2h0c-0.6,1.3-2.1,2.3-4,2.3c-2.8,0-5-2.4-5-5.9c0-3.9,2.4-6.2,5.2-6.2
		c1.8,0,3,0.8,3.5,1.8h0v-6.9H185.6z M183.5,198.1c0-0.3,0-0.6-0.1-0.9c-0.3-1.3-1.5-2.4-3-2.4c-2.2,0-3.5,1.9-3.5,4.5
		c0,2.4,1.2,4.3,3.4,4.3c1.4,0,2.7-0.9,3.1-2.5c0.1-0.3,0.1-0.6,0.1-0.9V198.1z"/>
	<path d="M199.6,199.1c0,4.3-3,6.2-5.8,6.2c-3.1,0-5.6-2.3-5.6-6c0-3.9,2.5-6.2,5.8-6.2C197.4,193.1,199.6,195.5,199.6,199.1z
		 M190.4,199.2c0,2.5,1.5,4.5,3.5,4.5c2,0,3.5-1.9,3.5-4.5c0-2-1-4.5-3.5-4.5S190.4,197,190.4,199.2z"/>
	<path d="M202,202.8c0.6,0.4,1.7,0.8,2.8,0.8c1.5,0,2.3-0.8,2.3-1.7c0-1-0.6-1.6-2.2-2.1c-2.1-0.7-3.1-1.9-3.1-3.3
		c0-1.9,1.5-3.4,4-3.4c1.2,0,2.2,0.3,2.9,0.7l-0.5,1.5c-0.5-0.3-1.3-0.7-2.4-0.7c-1.2,0-1.9,0.7-1.9,1.6c0,1,0.7,1.4,2.2,2
		c2,0.8,3,1.8,3,3.5c0,2-1.6,3.5-4.3,3.5c-1.3,0-2.4-0.3-3.3-0.8L202,202.8z"/>
</g>
<g>
	<path d="M253,128.4c1.3-0.2,2.8-0.3,4.4-0.3c3,0,5.1,0.7,6.6,2c1.4,1.3,2.3,3.2,2.3,5.8c0,2.6-0.8,4.8-2.3,6.3
		c-1.5,1.5-4,2.3-7.2,2.3c-1.5,0-2.7-0.1-3.8-0.2V128.4z M255.1,142.7c0.5,0.1,1.3,0.1,2.1,0.1c4.5,0,6.9-2.5,6.9-6.9
		c0-3.8-2.1-6.2-6.6-6.2c-1.1,0-1.9,0.1-2.4,0.2V142.7z"/>
	<path d="M275.3,144.4l-0.2-1.5h-0.1c-0.6,0.9-1.9,1.7-3.6,1.7c-2.4,0-3.6-1.7-3.6-3.3c0-2.8,2.5-4.3,7-4.3v-0.2
		c0-1-0.3-2.7-2.6-2.7c-1.1,0-2.2,0.3-3,0.9l-0.5-1.4c1-0.6,2.4-1,3.8-1c3.6,0,4.4,2.4,4.4,4.8v4.3c0,1,0,2,0.2,2.8H275.3z
		 M275,138.5c-2.3,0-4.9,0.4-4.9,2.6c0,1.4,0.9,2,2,2c1.5,0,2.5-1,2.8-1.9c0.1-0.2,0.1-0.5,0.1-0.7V138.5z"/>
	<path d="M290.5,127.4v14c0,1,0,2.2,0.1,3h-1.9l-0.1-2h0c-0.6,1.3-2.1,2.3-4,2.3c-2.8,0-5-2.4-5-5.9c0-3.9,2.4-6.2,5.2-6.2
		c1.8,0,3,0.8,3.5,1.8h0v-6.9H290.5z M288.4,137.5c0-0.3,0-0.6-0.1-0.9c-0.3-1.3-1.5-2.4-3-2.4c-2.2,0-3.5,1.9-3.5,4.5
		c0,2.4,1.2,4.3,3.4,4.3c1.4,0,2.7-0.9,3.1-2.5c0.1-0.3,0.1-0.6,0.1-0.9V137.5z"/>
	<path d="M304.5,138.5c0,4.3-3,6.2-5.8,6.2c-3.1,0-5.6-2.3-5.6-6c0-3.9,2.5-6.2,5.8-6.2C302.3,132.5,304.5,134.9,304.5,138.5z
		 M295.3,138.6c0,2.5,1.5,4.5,3.5,4.5c2,0,3.5-1.9,3.5-4.5c0-2-1-4.5-3.5-4.5S295.3,136.4,295.3,138.6z"/>
	<path d="M306.9,142.2c0.6,0.4,1.7,0.8,2.8,0.8c1.5,0,2.3-0.8,2.3-1.7c0-1-0.6-1.6-2.2-2.1c-2.1-0.7-3.1-1.9-3.1-3.3
		c0-1.9,1.5-3.4,4-3.4c1.2,0,2.2,0.3,2.9,0.7l-0.5,1.5c-0.5-0.3-1.3-0.7-2.4-0.7c-1.2,0-1.9,0.7-1.9,1.6c0,1,0.7,1.4,2.2,2
		c2,0.8,3,1.8,3,3.5c0,2-1.6,3.5-4.3,3.5c-1.3,0-2.4-0.3-3.3-0.8L306.9,142.2z"/>
</g>
<g>
	<path d="M357.5,68.9c1.1-0.2,2.6-0.3,4-0.3c2.2,0,3.7,0.4,4.7,1.3c0.8,0.7,1.3,1.8,1.3,3.1c0,2.1-1.3,3.6-3,4.1v0.1
		c1.2,0.4,2,1.6,2.4,3.3c0.5,2.3,0.9,3.8,1.2,4.4h-2.2c-0.3-0.5-0.6-1.8-1.1-3.9c-0.5-2.2-1.3-3.1-3.2-3.1h-2v7h-2.1V68.9z
		 M359.6,76.3h2.1c2.2,0,3.6-1.2,3.6-3.1c0-2.1-1.5-3-3.7-3c-1,0-1.7,0.1-2.1,0.2V76.3z"/>
	<path d="M371.5,79.4c0,2.9,1.9,4,4,4c1.5,0,2.4-0.3,3.2-0.6l0.4,1.5c-0.7,0.3-2,0.7-3.9,0.7c-3.6,0-5.7-2.4-5.7-5.9
		c0-3.5,2.1-6.3,5.4-6.3c3.8,0,4.8,3.3,4.8,5.5c0,0.4,0,0.8-0.1,1H371.5z M377.7,77.9c0-1.3-0.6-3.4-2.9-3.4c-2.1,0-3.1,2-3.2,3.4
		H377.7z"/>
	<path d="M392.4,73.3c0,0.8-0.1,1.8-0.1,3.2v6.7c0,2.7-0.5,4.3-1.7,5.3c-1.1,1.1-2.8,1.4-4.2,1.4c-1.4,0-2.9-0.3-3.9-1l0.5-1.6
		c0.8,0.5,2,0.9,3.4,0.9c2.2,0,3.7-1.1,3.7-4.1v-1.3h0c-0.6,1.1-1.9,1.9-3.7,1.9c-2.9,0-4.9-2.4-4.9-5.7c0-3.9,2.6-6.2,5.2-6.2
		c2,0,3.1,1.1,3.6,2h0l0.1-1.8H392.4z M390.2,77.8c0-0.4,0-0.7-0.1-1c-0.4-1.2-1.4-2.2-3-2.2c-2,0-3.5,1.7-3.5,4.4
		c0,2.3,1.2,4.2,3.4,4.2c1.3,0,2.5-0.8,2.9-2.2c0.1-0.4,0.2-0.8,0.2-1.1V77.8z"/>
	<path d="M395.8,76.9c0-1.4,0-2.5-0.1-3.6h1.8l0.1,2.3h0.1c0.5-1.6,1.8-2.5,3.2-2.5c0.2,0,0.4,0,0.6,0.1v2c-0.2,0-0.4-0.1-0.7-0.1
		c-1.5,0-2.5,1.1-2.8,2.7c0,0.3-0.1,0.6-0.1,1v6.2h-2.1V76.9z"/>
	<path d="M410,84.9l-0.2-1.5h-0.1c-0.6,0.9-1.9,1.7-3.6,1.7c-2.4,0-3.6-1.7-3.6-3.3c0-2.8,2.5-4.3,7-4.3v-0.2c0-1-0.3-2.7-2.6-2.7
		c-1.1,0-2.2,0.3-3,0.9l-0.5-1.4c1-0.6,2.4-1,3.8-1c3.6,0,4.4,2.4,4.4,4.8v4.3c0,1,0,2,0.2,2.8H410z M409.7,78.9
		c-2.3,0-4.9,0.4-4.9,2.6c0,1.4,0.9,2,2,2c1.5,0,2.5-1,2.8-1.9c0.1-0.2,0.1-0.5,0.1-0.7V78.9z"/>
	<path d="M414.9,82.7c0.6,0.4,1.7,0.8,2.8,0.8c1.5,0,2.3-0.8,2.3-1.7c0-1-0.6-1.6-2.2-2.1c-2.1-0.7-3.1-1.9-3.1-3.3
		c0-1.9,1.5-3.4,4-3.4c1.2,0,2.2,0.3,2.9,0.7l-0.5,1.5c-0.5-0.3-1.3-0.7-2.4-0.7c-1.2,0-1.9,0.7-1.9,1.6c0,1,0.7,1.4,2.2,2
		c2,0.8,3,1.8,3,3.5c0,2-1.6,3.5-4.3,3.5c-1.3,0-2.4-0.3-3.3-0.8L414.9,82.7z"/>
</g>
<g>
	<path d="M472.2,98.4c1-0.2,2.3-0.3,4-0.3c2.1,0,3.6,0.5,4.5,1.3c0.9,0.8,1.4,1.9,1.4,3.4c0,1.5-0.4,2.6-1.2,3.5
		c-1.1,1.2-2.9,1.8-4.9,1.8c-0.6,0-1.2,0-1.7-0.1v6.5h-2.1V98.4z M474.3,106.2c0.5,0.1,1,0.2,1.7,0.2c2.5,0,4.1-1.2,4.1-3.5
		c0-2.1-1.5-3.2-3.8-3.2c-0.9,0-1.6,0.1-2,0.2V106.2z"/>
	<path d="M484.9,106.4c0-1.4,0-2.5-0.1-3.6h1.8l0.1,2.3h0.1c0.5-1.6,1.8-2.5,3.2-2.5c0.2,0,0.4,0,0.6,0.1v2c-0.2,0-0.4-0.1-0.7-0.1
		c-1.5,0-2.5,1.1-2.8,2.7c0,0.3-0.1,0.6-0.1,1v6.2h-2.1V106.4z"/>
	<path d="M503.2,108.4c0,4.3-3,6.2-5.8,6.2c-3.1,0-5.6-2.3-5.6-6c0-3.9,2.5-6.2,5.8-6.2C501,102.5,503.2,104.9,503.2,108.4z
		 M494,108.6c0,2.5,1.5,4.5,3.5,4.5c2,0,3.5-1.9,3.5-4.5c0-2-1-4.5-3.5-4.5C495.1,104.1,494,106.4,494,108.6z"/>
	<path d="M506.7,102.7l2.3,6.5c0.4,1.1,0.7,2,0.9,3h0.1c0.3-1,0.6-1.9,1-3l2.3-6.5h2.2l-4.6,11.6h-2l-4.4-11.6H506.7z"/>
	<path d="M523.9,114.4l-0.2-1.5h-0.1c-0.6,0.9-1.9,1.7-3.6,1.7c-2.4,0-3.6-1.7-3.6-3.3c0-2.8,2.5-4.3,7-4.3v-0.2
		c0-1-0.3-2.7-2.6-2.7c-1.1,0-2.2,0.3-3,0.9l-0.5-1.4c1-0.6,2.4-1,3.8-1c3.6,0,4.4,2.4,4.4,4.8v4.3c0,1,0,2,0.2,2.8H523.9z
		 M523.6,108.4c-2.3,0-4.9,0.4-4.9,2.6c0,1.4,0.9,2,2,2c1.5,0,2.5-1,2.8-1.9c0.1-0.2,0.1-0.5,0.1-0.7V108.4z"/>
</g>
<g>
	<path d="M520.6,55.6c-0.8,0.4-2.3,0.8-4.3,0.8c-4.6,0-8-2.9-8-8.2c0-5.1,3.4-8.5,8.4-8.5c2,0,3.3,0.4,3.8,0.7l-0.5,1.7
		c-0.8-0.4-1.9-0.7-3.3-0.7c-3.8,0-6.3,2.4-6.3,6.7c0,4,2.3,6.5,6.2,6.5c1.3,0,2.6-0.3,3.4-0.7L520.6,55.6z"/>
	<path d="M533.6,50.2c0,4.3-3,6.2-5.8,6.2c-3.1,0-5.6-2.3-5.6-6c0-3.9,2.5-6.2,5.8-6.2C531.4,44.3,533.6,46.7,533.6,50.2z
		 M524.4,50.4c0,2.5,1.5,4.5,3.5,4.5c2,0,3.5-1.9,3.5-4.5c0-2-1-4.5-3.5-4.5C525.5,45.8,524.4,48.1,524.4,50.4z"/>
	<path d="M536.3,47.7c0-1.2,0-2.2-0.1-3.1h1.9l0.1,1.9h0c0.6-1.1,1.9-2.2,3.8-2.2c1.6,0,4.1,1,4.1,4.9v6.9h-2.1v-6.7
		c0-1.9-0.7-3.4-2.7-3.4c-1.4,0-2.5,1-2.8,2.2c-0.1,0.3-0.1,0.6-0.1,1v7h-2.1V47.7z"/>
	<path d="M549.8,56.1v-10h-1.6v-1.6h1.6v-0.6c0-3.1,1.8-5.1,5.1-5.1c1.1,0,2.4,0.3,3,0.8l-0.6,1.6c-0.5-0.4-1.4-0.7-2.4-0.7
		c-2.2,0-2.9,1.6-2.9,3.4v0.6h6.7v11.6h-2.1v-10h-4.7v10H549.8z"/>
	<path d="M568.6,56.1l-0.2-1.5h-0.1c-0.6,0.9-1.9,1.7-3.6,1.7c-2.4,0-3.6-1.7-3.6-3.3c0-2.8,2.5-4.3,7-4.3v-0.2c0-1-0.3-2.7-2.6-2.7
		c-1.1,0-2.2,0.3-3,0.9l-0.5-1.4c1-0.6,2.4-1,3.8-1c3.6,0,4.4,2.4,4.4,4.8v4.3c0,1,0,2,0.2,2.8H568.6z M568.3,50.2
		c-2.3,0-4.9,0.4-4.9,2.6c0,1.4,0.9,2,2,2c1.5,0,2.5-1,2.8-1.9c0.1-0.2,0.1-0.5,0.1-0.7V50.2z"/>
	<path d="M573.7,47.7c0-1.2,0-2.2-0.1-3.1h1.9l0.1,1.9h0c0.6-1.1,1.9-2.2,3.8-2.2c1.6,0,4.1,1,4.1,4.9v6.9h-2.1v-6.7
		c0-1.9-0.7-3.4-2.7-3.4c-1.4,0-2.5,1-2.8,2.2c-0.1,0.3-0.1,0.6-0.1,1v7h-2.1V47.7z"/>
	<path d="M595.3,55.7c-0.5,0.3-1.6,0.6-3,0.7l-0.6,1c0.9,0.1,1.7,0.7,1.7,1.7c0,1.4-1.2,1.9-2.5,1.9c-0.6,0-1.2-0.2-1.6-0.4l0.4-1
		c0.4,0.2,0.9,0.4,1.3,0.4c0.5,0,1-0.2,1-0.8c0-0.6-0.7-0.9-1.9-1l1-1.8c-3-0.4-4.9-2.6-4.9-5.9c0-3.6,2.4-6.2,6.2-6.2
		c1.2,0,2.4,0.3,2.9,0.6l-0.5,1.6c-0.5-0.3-1.3-0.6-2.4-0.6c-2.7,0-4.1,2-4.1,4.4c0,2.7,1.7,4.3,4,4.3c1.2,0,2-0.3,2.6-0.6
		L595.3,55.7z"/>
	<path d="M604.2,56.1l-0.2-1.5H604c-0.6,0.9-1.9,1.7-3.6,1.7c-2.4,0-3.6-1.7-3.6-3.3c0-2.8,2.5-4.3,7-4.3v-0.2c0-1-0.3-2.7-2.6-2.7
		c-1.1,0-2.2,0.3-3,0.9l-0.5-1.4c1-0.6,2.4-1,3.8-1c3.6,0,4.4,2.4,4.4,4.8v4.3c0,1,0,2,0.2,2.8H604.2z M603.9,50.2
		c-2.3,0-4.9,0.4-4.9,2.6c0,1.4,0.9,2,2,2c1.5,0,2.5-1,2.8-1.9c0.1-0.2,0.1-0.5,0.1-0.7V50.2z"/>
</g>
<g>
	<path d="M591.7,284.5l5.1,1.7v2.2l-16.2-5.5v-2.5l16.2-5.5v2.2l-5.1,1.7V284.5z M590,279.2l-4.7,1.6c-1.1,0.4-2,0.6-3,0.8v0
		c1,0.2,1.9,0.5,2.9,0.8l4.7,1.6V279.2z"/>
	<path d="M594.6,272.8c0.4-0.6,0.8-1.7,0.8-2.8c0-1.5-0.8-2.3-1.7-2.3c-1,0-1.6,0.6-2.1,2.2c-0.7,2.1-1.9,3.1-3.3,3.1
		c-1.9,0-3.4-1.5-3.4-4c0-1.2,0.3-2.2,0.7-2.9l1.5,0.5c-0.3,0.5-0.7,1.3-0.7,2.4c0,1.2,0.7,1.9,1.6,1.9c1,0,1.4-0.7,2-2.2
		c0.8-2,1.8-3,3.5-3c2,0,3.5,1.6,3.5,4.3c0,1.3-0.3,2.4-0.8,3.3L594.6,272.8z"/>
	<path d="M594.6,263.3c0.4-0.6,0.8-1.7,0.8-2.8c0-1.5-0.8-2.3-1.7-2.3c-1,0-1.6,0.6-2.1,2.2c-0.7,2.1-1.9,3.1-3.3,3.1
		c-1.9,0-3.4-1.5-3.4-4c0-1.2,0.3-2.2,0.7-2.9l1.5,0.5c-0.3,0.5-0.7,1.3-0.7,2.4c0,1.2,0.7,1.9,1.6,1.9c1,0,1.4-0.7,2-2.2
		c0.8-2,1.8-3,3.5-3c2,0,3.5,1.6,3.5,4.3c0,1.3-0.3,2.4-0.8,3.3L594.6,263.3z"/>
	<path d="M581.9,251.2c0.7,0,1.3,0.5,1.3,1.3c0,0.7-0.6,1.3-1.3,1.3c-0.7,0-1.3-0.6-1.3-1.3C580.6,251.7,581.1,251.2,581.9,251.2z
		 M596.8,253.5h-11.6v-2.1h11.6V253.5z"/>
	<path d="M588.3,247.9c-1.2,0-2.2,0-3.1,0.1v-1.9l1.9-0.1v0c-1.1-0.6-2.2-1.9-2.2-3.8c0-1.6,1-4.1,4.9-4.1h6.9v2.1h-6.7
		c-1.9,0-3.4,0.7-3.4,2.7c0,1.4,1,2.5,2.2,2.8c0.3,0.1,0.6,0.1,1,0.1h7v2.1H588.3z"/>
	<path d="M596.8,228.1l-1.5,0.2v0.1c0.9,0.6,1.7,1.9,1.7,3.6c0,2.4-1.7,3.6-3.3,3.6c-2.8,0-4.3-2.5-4.3-7h-0.2c-1,0-2.7,0.3-2.7,2.6
		c0,1.1,0.3,2.2,0.9,3l-1.4,0.5c-0.6-1-1-2.4-1-3.8c0-3.6,2.4-4.4,4.8-4.4h4.3c1,0,2,0,2.8-0.2V228.1z M590.8,228.5
		c0,2.3,0.4,4.9,2.6,4.9c1.4,0,2-0.9,2-2c0-1.5-1-2.5-1.9-2.8c-0.2-0.1-0.5-0.1-0.7-0.1H590.8z"/>
	<path d="M581.8,220.5h3.3v-3h1.6v3h6.3c1.4,0,2.3-0.4,2.3-1.6c0-0.6-0.1-1-0.1-1.2l1.6-0.1c0.2,0.4,0.3,1.1,0.3,1.9
		c0,1-0.3,1.8-0.9,2.3c-0.6,0.6-1.7,0.8-3,0.8h-6.3v1.8h-1.6v-1.8h-2.8L581.8,220.5z"/>
	<path d="M593.6,205.3c1.2,0,2.3,0,3.2-0.1v1.9l-1.9,0.1v0c0.9,0.6,2.2,1.8,2.2,3.8c0,1.8-1,4-5.1,4h-6.8V213h6.4
		c2.2,0,3.7-0.7,3.7-2.6c0-1.4-1-2.4-1.9-2.8c-0.3-0.1-0.7-0.2-1.1-0.2h-7.1v-2.1H593.6z"/>
	<path d="M588.8,201.8c-1.4,0-2.5,0-3.6,0.1v-1.8l2.3-0.1v-0.1c-1.6-0.5-2.5-1.8-2.5-3.2c0-0.2,0-0.4,0.1-0.6h2
		c0,0.2-0.1,0.4-0.1,0.7c0,1.5,1.1,2.5,2.7,2.8c0.3,0,0.6,0.1,1,0.1h6.2v2.1H588.8z"/>
	<path d="M596.8,187.6l-1.5,0.2v0.1c0.9,0.6,1.7,1.9,1.7,3.6c0,2.4-1.7,3.6-3.3,3.6c-2.8,0-4.3-2.5-4.3-7h-0.2c-1,0-2.7,0.3-2.7,2.6
		c0,1.1,0.3,2.2,0.9,3l-1.4,0.5c-0.6-1-1-2.4-1-3.8c0-3.6,2.4-4.4,4.8-4.4h4.3c1,0,2,0,2.8-0.2V187.6z M590.8,187.9
		c0,2.3,0.4,4.9,2.6,4.9c1.4,0,2-0.9,2-2c0-1.5-1-2.5-1.9-2.8c-0.2-0.1-0.5-0.1-0.7-0.1H590.8z"/>
	<path d="M580.8,177.3c-0.2-1.3-0.3-2.8-0.3-4.4c0-3,0.7-5.1,2-6.6c1.3-1.4,3.2-2.3,5.8-2.3c2.6,0,4.8,0.8,6.3,2.3
		c1.5,1.5,2.3,4,2.3,7.2c0,1.5-0.1,2.7-0.2,3.8H580.8z M595.1,175.2c0.1-0.5,0.1-1.3,0.1-2.1c0-4.5-2.5-6.9-6.9-6.9
		c-3.8,0-6.2,2.1-6.2,6.6c0,1.1,0.1,1.9,0.2,2.4H595.1z"/>
	<path d="M581.9,159c0.7,0,1.3,0.5,1.3,1.3c0,0.7-0.6,1.3-1.3,1.3c-0.7,0-1.3-0.6-1.3-1.3C580.6,159.5,581.1,159,581.9,159z
		 M596.8,161.4h-11.6v-2.1h11.6V161.4z"/>
	<path d="M585.1,145.7c0.8,0,1.8,0.1,3.2,0.1h6.7c2.7,0,4.3,0.5,5.3,1.7c1.1,1.1,1.4,2.8,1.4,4.2c0,1.4-0.3,2.9-1,3.9l-1.6-0.5
		c0.5-0.8,0.9-2,0.9-3.4c0-2.2-1.1-3.7-4.1-3.7h-1.3v0c1.1,0.6,1.9,1.9,1.9,3.7c0,2.9-2.4,4.9-5.7,4.9c-3.9,0-6.2-2.6-6.2-5.2
		c0-2,1.1-3.1,2-3.6v0l-1.8-0.1V145.7z M589.7,147.9c-0.4,0-0.7,0-1,0.1c-1.2,0.4-2.2,1.4-2.2,3c0,2,1.7,3.5,4.4,3.5
		c2.3,0,4.2-1.2,4.2-3.4c0-1.3-0.8-2.5-2.2-2.9c-0.4-0.1-0.8-0.2-1.1-0.2H589.7z"/>
	<path d="M581.9,140c0.7,0,1.3,0.5,1.3,1.3c0,0.7-0.6,1.3-1.3,1.3c-0.7,0-1.3-0.6-1.3-1.3C580.6,140.5,581.1,140,581.9,140z
		 M596.8,142.3h-11.6v-2.1h11.6V142.3z"/>
	<path d="M581.8,134.2h3.3v-3h1.6v3h6.3c1.4,0,2.3-0.4,2.3-1.6c0-0.6-0.1-1-0.1-1.2l1.6-0.1c0.2,0.4,0.3,1.1,0.3,1.9
		c0,1-0.3,1.8-0.9,2.3c-0.6,0.6-1.7,0.8-3,0.8h-6.3v1.8h-1.6v-1.8h-2.8L581.8,134.2z"/>
	<path d="M596.8,122.3l-1.5,0.2v0.1c0.9,0.6,1.7,1.9,1.7,3.6c0,2.4-1.7,3.6-3.3,3.6c-2.8,0-4.3-2.5-4.3-7h-0.2c-1,0-2.7,0.3-2.7,2.6
		c0,1.1,0.3,2.2,0.9,3l-1.4,0.5c-0.6-1-1-2.4-1-3.8c0-3.6,2.4-4.4,4.8-4.4h4.3c1,0,2,0,2.8-0.2V122.3z M590.8,122.6
		c0,2.3,0.4,4.9,2.6,4.9c1.4,0,2-0.9,2-2c0-1.5-1-2.5-1.9-2.8c-0.2-0.1-0.5-0.1-0.7-0.1H590.8z"/>
	<path d="M579.7,117.2v-2.1h17v2.1H579.7z"/>
</g>
<g>
	<path d="M416.4,159.3h2.1v14.4h6.9v1.8h-9V159.3z"/>
	<path d="M438.2,169.6c0,4.3-3,6.2-5.8,6.2c-3.1,0-5.6-2.3-5.6-6c0-3.9,2.5-6.2,5.8-6.2C435.9,163.6,438.2,166,438.2,169.6z
		 M429,169.7c0,2.5,1.5,4.5,3.5,4.5c2,0,3.5-1.9,3.5-4.5c0-2-1-4.5-3.5-4.5C430,165.2,429,167.5,429,169.7z M435.7,158.9l-2.9,3.4
		h-1.5l2.1-3.4H435.7z"/>
	<path d="M450.9,163.9c0,0.8-0.1,1.8-0.1,3.2v6.7c0,2.7-0.5,4.3-1.7,5.3c-1.1,1.1-2.8,1.4-4.2,1.4c-1.4,0-2.9-0.3-3.9-1l0.5-1.6
		c0.8,0.5,2,0.9,3.4,0.9c2.2,0,3.7-1.1,3.7-4.1v-1.3h0c-0.6,1.1-1.9,1.9-3.7,1.9c-2.9,0-4.9-2.4-4.9-5.7c0-3.9,2.6-6.2,5.2-6.2
		c2,0,3.1,1.1,3.6,2h0l0.1-1.8H450.9z M448.7,168.5c0-0.4,0-0.7-0.1-1c-0.4-1.2-1.4-2.2-3-2.2c-2,0-3.5,1.7-3.5,4.4
		c0,2.3,1.2,4.2,3.4,4.2c1.3,0,2.5-0.8,2.9-2.2c0.1-0.4,0.2-0.8,0.2-1.1V168.5z"/>
	<path d="M456.6,160.6c0,0.7-0.5,1.3-1.3,1.3c-0.7,0-1.3-0.6-1.3-1.3c0-0.7,0.6-1.3,1.3-1.3C456.1,159.3,456.6,159.9,456.6,160.6z
		 M454.3,175.5v-11.6h2.1v11.6H454.3z"/>
	<path d="M468.2,175.1c-0.6,0.3-1.8,0.7-3.3,0.7c-3.5,0-5.8-2.4-5.8-5.9c0-3.6,2.4-6.2,6.2-6.2c1.2,0,2.4,0.3,2.9,0.6l-0.5,1.6
		c-0.5-0.3-1.3-0.6-2.4-0.6c-2.7,0-4.1,2-4.1,4.4c0,2.7,1.7,4.3,4,4.3c1.2,0,2-0.3,2.6-0.6L468.2,175.1z"/>
	<path d="M477.1,175.5l-0.2-1.5h-0.1c-0.6,0.9-1.9,1.7-3.6,1.7c-2.4,0-3.6-1.7-3.6-3.3c0-2.8,2.5-4.3,7-4.3v-0.2
		c0-1-0.3-2.7-2.6-2.7c-1.1,0-2.2,0.3-3,0.9l-0.5-1.4c1-0.6,2.4-1,3.8-1c3.6,0,4.4,2.4,4.4,4.8v4.3c0,1,0,2,0.2,2.8H477.1z
		 M476.8,169.6c-2.3,0-4.9,0.4-4.9,2.6c0,1.4,0.9,2,2,2c1.5,0,2.5-1,2.8-1.9c0.1-0.2,0.1-0.5,0.1-0.7V169.6z"/>
</g>
<g>
	<path d="M280.9,238.6l-5.3-16.2h2.3l2.5,8c0.7,2.2,1.3,4.2,1.7,6h0c0.5-1.9,1.1-3.9,1.8-6l2.7-8h2.2l-5.8,16.2H280.9z"/>
	<path d="M301.2,232.7c0,4.3-3,6.2-5.8,6.2c-3.1,0-5.6-2.3-5.6-6c0-3.9,2.5-6.2,5.8-6.2C299,226.7,301.2,229.2,301.2,232.7z
		 M292,232.8c0,2.5,1.5,4.5,3.5,4.5c2,0,3.5-1.9,3.5-4.5c0-2-1-4.5-3.5-4.5S292,230.6,292,232.8z"/>
	<path d="M312.2,238.2c-0.6,0.3-1.8,0.7-3.3,0.7c-3.5,0-5.8-2.4-5.8-5.9c0-3.6,2.4-6.2,6.2-6.2c1.2,0,2.4,0.3,2.9,0.6l-0.5,1.6
		c-0.5-0.3-1.3-0.6-2.4-0.6c-2.7,0-4.1,2-4.1,4.4c0,2.7,1.7,4.3,4,4.3c1.2,0,2-0.3,2.6-0.6L312.2,238.2z"/>
	<path d="M321.1,238.6l-0.2-1.5h-0.1c-0.6,0.9-1.9,1.7-3.6,1.7c-2.4,0-3.6-1.7-3.6-3.3c0-2.8,2.5-4.3,7-4.3V231c0-1-0.3-2.7-2.6-2.7
		c-1.1,0-2.2,0.3-3,0.9l-0.5-1.4c1-0.6,2.4-1,3.8-1c3.6,0,4.4,2.4,4.4,4.8v4.3c0,1,0,2,0.2,2.8H321.1z M320.8,232.7
		c-2.3,0-4.9,0.4-4.9,2.6c0,1.4,0.9,2,2,2c1.5,0,2.5-1,2.8-1.9c0.1-0.2,0.1-0.5,0.1-0.7V232.7z"/>
	<path d="M326.1,238.6c0-0.8,0.1-2,0.1-3v-14h2.1v7.3h0c0.7-1.3,2.1-2.1,4-2.1c2.9,0,4.9,2.4,4.9,5.9c0,4.2-2.6,6.2-5.2,6.2
		c-1.7,0-3-0.6-3.9-2.2H328l-0.1,1.9H326.1z M328.3,234c0,0.3,0,0.5,0.1,0.8c0.4,1.5,1.6,2.5,3.2,2.5c2.2,0,3.5-1.8,3.5-4.5
		c0-2.3-1.2-4.3-3.5-4.3c-1.4,0-2.8,1-3.2,2.6c0,0.2-0.1,0.5-0.1,0.9V234z"/>
	<path d="M349.6,235.4c0,1.2,0,2.3,0.1,3.2h-1.9l-0.1-1.9h0c-0.6,0.9-1.8,2.2-3.8,2.2c-1.8,0-4-1-4-5.1V227h2.1v6.4
		c0,2.2,0.7,3.7,2.6,3.7c1.4,0,2.4-1,2.8-1.9c0.1-0.3,0.2-0.7,0.2-1.1V227h2.1V235.4z"/>
	<path d="M353.1,221.6h2.1v17h-2.1V221.6z"/>
	<path d="M365.2,238.6l-0.2-1.5h-0.1c-0.6,0.9-1.9,1.7-3.6,1.7c-2.4,0-3.6-1.7-3.6-3.3c0-2.8,2.5-4.3,7-4.3V231c0-1-0.3-2.7-2.6-2.7
		c-1.1,0-2.2,0.3-3,0.9l-0.5-1.4c1-0.6,2.4-1,3.8-1c3.6,0,4.4,2.4,4.4,4.8v4.3c0,1,0,2,0.2,2.8H365.2z M364.9,232.7
		c-2.3,0-4.9,0.4-4.9,2.6c0,1.4,0.9,2,2,2c1.5,0,2.5-1,2.8-1.9c0.1-0.2,0.1-0.5,0.1-0.7V232.7z M365.9,222l-2.9,3.4h-1.5l2.1-3.4
		H365.9z"/>
	<path d="M370.3,230.6c0-1.4,0-2.5-0.1-3.6h1.8l0.1,2.3h0.1c0.5-1.6,1.8-2.5,3.2-2.5c0.2,0,0.4,0,0.6,0.1v2c-0.2,0-0.4-0.1-0.7-0.1
		c-1.5,0-2.5,1.1-2.8,2.7c0,0.3-0.1,0.6-0.1,1v6.2h-2.1V230.6z"/>
	<path d="M380.5,223.7c0,0.7-0.5,1.3-1.3,1.3c-0.7,0-1.3-0.6-1.3-1.3c0-0.7,0.6-1.3,1.3-1.3C380,222.4,380.5,223,380.5,223.7z
		 M378.2,238.6V227h2.1v11.6H378.2z"/>
	<path d="M394.3,232.7c0,4.3-3,6.2-5.8,6.2c-3.1,0-5.6-2.3-5.6-6c0-3.9,2.5-6.2,5.8-6.2C392,226.7,394.3,229.2,394.3,232.7z
		 M385.1,232.8c0,2.5,1.5,4.5,3.5,4.5c2,0,3.5-1.9,3.5-4.5c0-2-1-4.5-3.5-4.5S385.1,230.6,385.1,232.8z"/>
	<path d="M415.9,230.4c0,5.6-3.4,8.5-7.5,8.5c-4.3,0-7.3-3.3-7.3-8.2c0-5.1,3.2-8.5,7.5-8.5C413.1,222.2,415.9,225.6,415.9,230.4z
		 M403.4,230.6c0,3.5,1.9,6.6,5.2,6.6c3.3,0,5.2-3,5.2-6.7c0-3.2-1.7-6.6-5.2-6.6C405.1,223.9,403.4,227.1,403.4,230.6z"/>
	<path d="M418.6,230.1c0-1.2,0-2.2-0.1-3.1h1.9l0.1,1.9h0c0.6-1.1,1.9-2.2,3.8-2.2c1.6,0,4.1,1,4.1,4.9v6.9h-2.1v-6.7
		c0-1.9-0.7-3.4-2.7-3.4c-1.4,0-2.5,1-2.8,2.2c-0.1,0.3-0.1,0.6-0.1,1v7h-2.1V230.1z"/>
	<path d="M434.4,223.7v3.3h3v1.6h-3v6.3c0,1.4,0.4,2.3,1.6,2.3c0.6,0,1-0.1,1.2-0.1l0.1,1.6c-0.4,0.2-1.1,0.3-1.9,0.3
		c-1,0-1.8-0.3-2.3-0.9c-0.6-0.6-0.8-1.7-0.8-3v-6.3h-1.8V227h1.8v-2.8L434.4,223.7z"/>
	<path d="M450.4,232.7c0,4.3-3,6.2-5.8,6.2c-3.1,0-5.6-2.3-5.6-6c0-3.9,2.5-6.2,5.8-6.2C448.1,226.7,450.4,229.2,450.4,232.7z
		 M441.1,232.8c0,2.5,1.5,4.5,3.5,4.5c2,0,3.5-1.9,3.5-4.5c0-2-1-4.5-3.5-4.5C442.2,228.3,441.1,230.6,441.1,232.8z"/>
	<path d="M453,221.6h2.1v17H453V221.6z"/>
	<path d="M469.2,232.7c0,4.3-3,6.2-5.8,6.2c-3.1,0-5.6-2.3-5.6-6c0-3.9,2.5-6.2,5.8-6.2C466.9,226.7,469.2,229.2,469.2,232.7z
		 M460,232.8c0,2.5,1.5,4.5,3.5,4.5c2,0,3.5-1.9,3.5-4.5c0-2-1-4.5-3.5-4.5C461.1,228.3,460,230.6,460,232.8z M466.7,222l-2.9,3.4
		h-1.5l2.1-3.4H466.7z"/>
	<path d="M481.9,227c0,0.8-0.1,1.8-0.1,3.2v6.7c0,2.7-0.5,4.3-1.7,5.3c-1.1,1.1-2.8,1.4-4.2,1.4c-1.4,0-2.9-0.3-3.9-1l0.5-1.6
		c0.8,0.5,2,0.9,3.4,0.9c2.2,0,3.7-1.1,3.7-4.1v-1.3h0c-0.6,1.1-1.9,1.9-3.7,1.9c-2.9,0-4.9-2.4-4.9-5.7c0-3.9,2.6-6.2,5.2-6.2
		c2,0,3.1,1.1,3.6,2h0l0.1-1.8H481.9z M479.7,231.6c0-0.4,0-0.7-0.1-1c-0.4-1.2-1.4-2.2-3-2.2c-2,0-3.5,1.7-3.5,4.4
		c0,2.3,1.2,4.2,3.4,4.2c1.3,0,2.5-0.8,2.9-2.2c0.1-0.4,0.2-0.8,0.2-1.1V231.6z"/>
	<path d="M487.6,223.7c0,0.7-0.5,1.3-1.3,1.3c-0.7,0-1.3-0.6-1.3-1.3c0-0.7,0.6-1.3,1.3-1.3C487.1,222.4,487.6,223,487.6,223.7z
		 M485.3,238.6V227h2.1v11.6H485.3z"/>
	<path d="M499.2,238.2c-0.6,0.3-1.8,0.7-3.3,0.7c-3.5,0-5.8-2.4-5.8-5.9c0-3.6,2.4-6.2,6.2-6.2c1.2,0,2.4,0.3,2.9,0.6l-0.5,1.6
		c-0.5-0.3-1.3-0.6-2.4-0.6c-2.7,0-4.1,2-4.1,4.4c0,2.7,1.7,4.3,4,4.3c1.2,0,2-0.3,2.6-0.6L499.2,238.2z"/>
	<path d="M512.2,232.7c0,4.3-3,6.2-5.8,6.2c-3.1,0-5.6-2.3-5.6-6c0-3.9,2.5-6.2,5.8-6.2C509.9,226.7,512.2,229.2,512.2,232.7z
		 M502.9,232.8c0,2.5,1.5,4.5,3.5,4.5c2,0,3.5-1.9,3.5-4.5c0-2-1-4.5-3.5-4.5C504,228.3,502.9,230.6,502.9,232.8z"/>
</g>
<g>
	<path d="M258,280.6c1.1-0.2,2.6-0.3,4-0.3c2.2,0,3.7,0.4,4.7,1.3c0.8,0.7,1.3,1.8,1.3,3.1c0,2.1-1.3,3.6-3,4.1v0.1
		c1.2,0.4,2,1.6,2.4,3.3c0.5,2.3,0.9,3.8,1.2,4.4h-2.2c-0.3-0.5-0.6-1.8-1.1-3.9c-0.5-2.2-1.3-3.1-3.2-3.1h-2v7H258V280.6z
		 M260,287.9h2.1c2.2,0,3.6-1.2,3.6-3.1c0-2.1-1.5-3-3.7-3c-1,0-1.7,0.1-2.1,0.2V287.9z"/>
	<path d="M270.9,280.6c1.3-0.2,2.8-0.3,4.4-0.3c3,0,5.1,0.7,6.6,2c1.4,1.3,2.3,3.2,2.3,5.8c0,2.6-0.8,4.8-2.3,6.3
		c-1.5,1.5-4,2.3-7.2,2.3c-1.5,0-2.7-0.1-3.8-0.2V280.6z M273,294.9c0.5,0.1,1.3,0.1,2.1,0.1c4.5,0,6.9-2.5,6.9-6.9
		c0-3.8-2.1-6.2-6.6-6.2c-1.1,0-1.9,0.1-2.4,0.2V294.9z"/>
	<path d="M286.8,280.3h8.7v1.8h-6.6v5.4h6.1v1.7h-6.1v7.3h-2.1V280.3z"/>
	<path d="M309.7,283.8v5.6h5.4v1.4h-5.4v5.7h-1.5v-5.7h-5.4v-1.4h5.4v-5.6H309.7z"/>
	<path d="M322.9,288.5c0-1.4,0-2.5-0.1-3.6h1.8l0.1,2.3h0.1c0.5-1.6,1.8-2.5,3.2-2.5c0.2,0,0.4,0,0.6,0.1v2c-0.2,0-0.4-0.1-0.7-0.1
		c-1.5,0-2.5,1.1-2.8,2.7c0,0.3-0.1,0.6-0.1,1v6.2h-2.1V288.5z"/>
	<path d="M340.8,279.5v14c0,1,0,2.2,0.1,3H339l-0.1-2h0c-0.6,1.3-2.1,2.3-4,2.3c-2.8,0-5-2.4-5-5.9c0-3.9,2.4-6.2,5.2-6.2
		c1.8,0,3,0.8,3.5,1.8h0v-6.9H340.8z M338.7,289.6c0-0.3,0-0.6-0.1-0.9c-0.3-1.3-1.5-2.4-3-2.4c-2.2,0-3.5,1.9-3.5,4.5
		c0,2.4,1.2,4.3,3.4,4.3c1.4,0,2.7-0.9,3.1-2.5c0.1-0.3,0.1-0.6,0.1-0.9V289.6z"/>
	<path d="M344.5,296.5v-10h-1.6v-1.6h1.6v-0.6c0-1.6,0.4-3.1,1.3-4.1c0.8-0.8,1.8-1.1,2.8-1.1c0.7,0,1.4,0.2,1.8,0.3l-0.3,1.6
		c-0.3-0.1-0.7-0.3-1.3-0.3c-1.8,0-2.3,1.6-2.3,3.4v0.6h2.8v1.6h-2.8v10H344.5z"/>
	<path d="M351,294.4c0.6,0.4,1.7,0.8,2.8,0.8c1.5,0,2.3-0.8,2.3-1.7c0-1-0.6-1.6-2.2-2.1c-2.1-0.7-3.1-1.9-3.1-3.3
		c0-1.9,1.5-3.4,4-3.4c1.2,0,2.2,0.3,2.9,0.7l-0.5,1.5c-0.5-0.3-1.3-0.7-2.4-0.7c-1.2,0-1.9,0.7-1.9,1.6c0,1,0.7,1.4,2.2,2
		c2,0.8,3,1.8,3,3.5c0,2-1.6,3.5-4.3,3.5c-1.3,0-2.4-0.3-3.3-0.8L351,294.4z"/>
	<path d="M369.1,296.1c-0.6,0.3-1.8,0.7-3.3,0.7c-3.5,0-5.8-2.4-5.8-5.9c0-3.6,2.4-6.2,6.2-6.2c1.2,0,2.4,0.3,2.9,0.6l-0.5,1.6
		c-0.5-0.3-1.3-0.6-2.4-0.6c-2.7,0-4.1,2-4.1,4.4c0,2.7,1.7,4.3,4,4.3c1.2,0,2-0.3,2.6-0.6L369.1,296.1z"/>
	<path d="M371.6,279.5h2.1v7.2h0c0.3-0.6,0.9-1.1,1.5-1.5c0.6-0.4,1.4-0.6,2.2-0.6c1.6,0,4.1,1,4.1,5v6.9h-2.1v-6.7
		c0-1.9-0.7-3.5-2.7-3.5c-1.4,0-2.4,1-2.8,2.1c-0.1,0.3-0.1,0.6-0.1,1v7h-2.1V279.5z"/>
	<path d="M386.1,291.1c0,2.9,1.9,4,4,4c1.5,0,2.4-0.3,3.2-0.6l0.4,1.5c-0.7,0.3-2,0.7-3.9,0.7c-3.6,0-5.7-2.4-5.7-5.9
		c0-3.5,2.1-6.3,5.4-6.3c3.8,0,4.8,3.3,4.8,5.5c0,0.4,0,0.8-0.1,1H386.1z M392.3,289.6c0-1.3-0.6-3.4-2.9-3.4c-2.1,0-3.1,2-3.2,3.4
		H392.3z"/>
	<path d="M396.9,288c0-1.2,0-2.2-0.1-3.1h1.8l0.1,1.9h0.1c0.6-1.1,1.7-2.1,3.6-2.1c1.6,0,2.8,1,3.3,2.3h0c0.4-0.6,0.8-1.2,1.3-1.5
		c0.7-0.5,1.5-0.8,2.6-0.8c1.5,0,3.8,1,3.8,5v6.8h-2.1v-6.6c0-2.2-0.8-3.6-2.5-3.6c-1.2,0-2.1,0.9-2.5,1.9c-0.1,0.3-0.2,0.7-0.2,1.1
		v7.2h-2.1v-7c0-1.8-0.8-3.2-2.4-3.2c-1.3,0-2.3,1.1-2.6,2.1c-0.1,0.3-0.2,0.7-0.2,1v7h-2.1V288z"/>
	<path d="M423.4,296.5l-0.2-1.5h-0.1c-0.6,0.9-1.9,1.7-3.6,1.7c-2.4,0-3.6-1.7-3.6-3.3c0-2.8,2.5-4.3,7-4.3v-0.2
		c0-1-0.3-2.7-2.6-2.7c-1.1,0-2.2,0.3-3,0.9l-0.5-1.4c1-0.6,2.4-1,3.8-1c3.6,0,4.4,2.4,4.4,4.8v4.3c0,1,0,2,0.2,2.8H423.4z
		 M423.1,290.6c-2.3,0-4.9,0.4-4.9,2.6c0,1.4,0.9,2,2,2c1.5,0,2.5-1,2.8-1.9c0.1-0.2,0.1-0.5,0.1-0.7V290.6z"/>
</g>
<g>
	<path d="M130.3,403v9.6c0,3.6,1.6,5.2,3.8,5.2c2.4,0,3.9-1.6,3.9-5.2V403h2.1v9.4c0,5-2.6,7-6.1,7c-3.3,0-5.8-1.9-5.8-6.9V403
		H130.3z"/>
	<path d="M143.6,410.8c0-1.2,0-2.2-0.1-3.1h1.9l0.1,1.9h0c0.6-1.1,1.9-2.2,3.8-2.2c1.6,0,4.1,1,4.1,4.9v6.9h-2.1v-6.7
		c0-1.9-0.7-3.4-2.7-3.4c-1.4,0-2.5,1-2.8,2.2c-0.1,0.3-0.1,0.6-0.1,1v7h-2.1V410.8z"/>
	<path d="M159.3,404.3c0,0.7-0.5,1.3-1.3,1.3c-0.7,0-1.3-0.6-1.3-1.3c0-0.7,0.6-1.3,1.3-1.3C158.8,403,159.3,403.6,159.3,404.3z
		 M157,419.2v-11.6h2.1v11.6H157z"/>
	<path d="M170.9,418.8c-0.6,0.3-1.8,0.7-3.3,0.7c-3.5,0-5.8-2.4-5.8-5.9c0-3.6,2.4-6.2,6.2-6.2c1.2,0,2.4,0.3,2.9,0.6l-0.5,1.6
		c-0.5-0.3-1.3-0.6-2.4-0.6c-2.7,0-4.1,2-4.1,4.4c0,2.7,1.7,4.3,4,4.3c1.2,0,2-0.3,2.6-0.6L170.9,418.8z"/>
	<path d="M183.8,413.3c0,4.3-3,6.2-5.8,6.2c-3.1,0-5.6-2.3-5.6-6c0-3.9,2.5-6.2,5.8-6.2C181.6,407.3,183.8,409.8,183.8,413.3z
		 M174.6,413.4c0,2.5,1.5,4.5,3.5,4.5c2,0,3.5-1.9,3.5-4.5c0-2-1-4.5-3.5-4.5S174.6,411.2,174.6,413.4z"/>
	<path d="M196.5,402.2v14c0,1,0,2.2,0.1,3h-1.9l-0.1-2h0c-0.6,1.3-2.1,2.3-4,2.3c-2.8,0-5-2.4-5-5.9c0-3.9,2.4-6.2,5.2-6.2
		c1.8,0,3,0.8,3.5,1.8h0v-6.9H196.5z M194.4,412.3c0-0.3,0-0.6-0.1-0.9c-0.3-1.3-1.5-2.4-3-2.4c-2.2,0-3.5,1.9-3.5,4.5
		c0,2.4,1.2,4.3,3.4,4.3c1.4,0,2.7-0.9,3.1-2.5c0.1-0.3,0.1-0.6,0.1-0.9V412.3z"/>
	<path d="M201.2,413.8c0,2.9,1.9,4,4,4c1.5,0,2.4-0.3,3.2-0.6l0.4,1.5c-0.7,0.3-2,0.7-3.9,0.7c-3.6,0-5.7-2.4-5.7-5.9
		c0-3.5,2.1-6.3,5.4-6.3c3.8,0,4.8,3.3,4.8,5.5c0,0.4,0,0.8-0.1,1H201.2z M207.4,412.3c0-1.3-0.6-3.4-2.9-3.4c-2.1,0-3.1,2-3.2,3.4
		H207.4z"/>
</g>
<g>
	<path d="M466.9,403v9.6c0,3.6,1.6,5.2,3.8,5.2c2.4,0,3.9-1.6,3.9-5.2V403h2.1v9.4c0,5-2.6,7-6.1,7c-3.3,0-5.8-1.9-5.8-6.9V403
		H466.9z"/>
	<path d="M480.4,403.3c1.1-0.2,2.6-0.3,4-0.3c2.2,0,3.7,0.4,4.7,1.3c0.8,0.7,1.3,1.8,1.3,3.1c0,2.1-1.3,3.6-3,4.1v0.1
		c1.2,0.4,2,1.6,2.4,3.3c0.5,2.3,0.9,3.8,1.2,4.4h-2.2c-0.3-0.5-0.6-1.8-1.1-3.9c-0.5-2.2-1.3-3.1-3.2-3.1h-2v7h-2.1V403.3z
		 M482.5,410.6h2.1c2.2,0,3.6-1.2,3.6-3.1c0-2.1-1.5-3-3.7-3c-1,0-1.7,0.1-2.1,0.2V410.6z"/>
	<path d="M495.4,403v16.2h-2.1V403H495.4z"/>
</g>
<g>
	<path d="M211.9,357.9l-2.1-3.6c-0.8-1.4-1.4-2.3-1.9-3.2h0c-0.5,0.9-0.9,1.8-1.8,3.2l-1.9,3.6h-2.4l4.9-8.2l-4.8-8h2.4l2.1,3.8
		c0.6,1.1,1.1,1.9,1.5,2.7h0.1c0.5-1,0.9-1.7,1.5-2.7l2.2-3.8h2.4l-4.9,7.9l5,8.3H211.9z"/>
	<path d="M216.8,341.7h2.1v14.4h6.9v1.8h-9V341.7z"/>
	<path d="M241.8,350.8c-0.1-2.3-0.3-5-0.2-7h-0.1c-0.6,1.9-1.2,3.9-2,6.1l-2.9,7.8H235l-2.6-7.7c-0.8-2.3-1.4-4.4-1.9-6.3h0
		c0,2-0.2,4.7-0.3,7.2l-0.4,6.9h-2l1.1-16.2h2.7l2.8,7.8c0.7,2,1.2,3.8,1.6,5.4h0.1c0.4-1.6,1-3.4,1.7-5.4l2.9-7.8h2.7l1,16.2h-2
		L241.8,350.8z"/>
	<path d="M258.6,345.1v5.6h5.4v1.4h-5.4v5.7h-1.5v-5.7h-5.4v-1.4h5.4v-5.6H258.6z"/>
	<path d="M271.9,357.9v-16.2h2.3l5.2,8.2c1.2,1.9,2.1,3.6,2.9,5.3l0,0c-0.2-2.2-0.2-4.1-0.2-6.6v-6.8h2v16.2h-2.1l-5.1-8.2
		c-1.1-1.8-2.2-3.6-3-5.4l-0.1,0c0.1,2,0.2,4,0.2,6.7v6.9H271.9z"/>
	<path d="M287.4,355.3c0.9,0.6,2.3,1.1,3.7,1.1c2.1,0,3.4-1.1,3.4-2.8c0-1.5-0.9-2.4-3-3.2c-2.6-0.9-4.3-2.3-4.3-4.6
		c0-2.5,2.1-4.4,5.2-4.4c1.7,0,2.9,0.4,3.6,0.8l-0.6,1.7c-0.5-0.3-1.6-0.8-3.1-0.8c-2.2,0-3,1.3-3,2.4c0,1.5,1,2.3,3.2,3.1
		c2.7,1.1,4.1,2.4,4.1,4.8c0,2.5-1.8,4.7-5.7,4.7c-1.6,0-3.3-0.5-4.1-1L287.4,355.3z"/>
	<path d="M310.7,345.1v5.6h5.4v1.4h-5.4v5.7h-1.5v-5.7h-5.4v-1.4h5.4v-5.6H310.7z"/>
	<path d="M324.9,346.3l1.7,2.5c0.4,0.6,0.8,1.2,1.2,1.9h0.1c0.4-0.7,0.8-1.3,1.2-1.9l1.6-2.5h2.3l-4,5.6l4.1,6h-2.4l-1.7-2.6
		c-0.5-0.7-0.8-1.3-1.2-2h0c-0.4,0.7-0.8,1.3-1.2,2l-1.7,2.6h-2.3l4.1-5.9l-3.9-5.7H324.9z"/>
	<path d="M335,349.4c0-1.2,0-2.2-0.1-3.1h1.8l0.1,1.9h0.1c0.6-1.1,1.7-2.1,3.6-2.1c1.6,0,2.8,1,3.3,2.3h0c0.4-0.6,0.8-1.2,1.3-1.5
		c0.7-0.5,1.5-0.8,2.6-0.8c1.5,0,3.8,1,3.8,5v6.8h-2.1v-6.6c0-2.2-0.8-3.6-2.5-3.6c-1.2,0-2.1,0.9-2.5,1.9c-0.1,0.3-0.2,0.7-0.2,1.1
		v7.2h-2.1v-7c0-1.8-0.8-3.2-2.4-3.2c-1.3,0-2.3,1.1-2.6,2.1c-0.1,0.3-0.2,0.7-0.2,1v7H335V349.4z"/>
	<path d="M355.1,340.8h2.1v17h-2.1V340.8z"/>
	<path d="M360.4,355.7c0.6,0.4,1.7,0.8,2.8,0.8c1.5,0,2.3-0.8,2.3-1.7c0-1-0.6-1.6-2.2-2.1c-2.1-0.7-3.1-1.9-3.1-3.3
		c0-1.9,1.5-3.4,4-3.4c1.2,0,2.2,0.3,2.9,0.7l-0.5,1.5c-0.5-0.3-1.3-0.7-2.4-0.7c-1.2,0-1.9,0.7-1.9,1.6c0,1,0.7,1.4,2.2,2
		c2,0.8,3,1.8,3,3.5c0,2-1.6,3.5-4.3,3.5c-1.3,0-2.4-0.3-3.3-0.8L360.4,355.7z"/>
	<path d="M378.5,357.4c-0.6,0.3-1.8,0.7-3.3,0.7c-3.5,0-5.8-2.4-5.8-5.9c0-3.6,2.4-6.2,6.2-6.2c1.2,0,2.4,0.3,2.9,0.6l-0.5,1.6
		c-0.5-0.3-1.3-0.6-2.4-0.6c-2.7,0-4.1,2-4.1,4.4c0,2.7,1.7,4.3,4,4.3c1.2,0,2-0.3,2.6-0.6L378.5,357.4z"/>
	<path d="M381,340.8h2.1v7.2h0c0.3-0.6,0.9-1.1,1.5-1.5c0.6-0.4,1.4-0.6,2.2-0.6c1.6,0,4.1,1,4.1,5v6.9h-2.1v-6.7
		c0-1.9-0.7-3.5-2.7-3.5c-1.4,0-2.4,1-2.8,2.1c-0.1,0.3-0.1,0.6-0.1,1v7H381V340.8z"/>
	<path d="M395.5,352.4c0,2.9,1.9,4,4,4c1.5,0,2.4-0.3,3.2-0.6l0.4,1.5c-0.7,0.3-2,0.7-3.9,0.7c-3.6,0-5.7-2.4-5.7-5.9
		c0-3.5,2.1-6.3,5.4-6.3c3.8,0,4.8,3.3,4.8,5.5c0,0.4,0,0.8-0.1,1H395.5z M401.7,350.9c0-1.3-0.6-3.4-2.9-3.4c-2.1,0-3.1,2-3.2,3.4
		H401.7z"/>
	<path d="M406.3,349.4c0-1.2,0-2.2-0.1-3.1h1.8l0.1,1.9h0.1c0.6-1.1,1.7-2.1,3.6-2.1c1.6,0,2.8,1,3.3,2.3h0c0.4-0.6,0.8-1.2,1.3-1.5
		c0.7-0.5,1.5-0.8,2.6-0.8c1.5,0,3.8,1,3.8,5v6.8h-2.1v-6.6c0-2.2-0.8-3.6-2.5-3.6c-1.2,0-2.1,0.9-2.5,1.9c-0.1,0.3-0.2,0.7-0.2,1.1
		v7.2h-2.1v-7c0-1.8-0.8-3.2-2.4-3.2c-1.3,0-2.3,1.1-2.6,2.1c-0.1,0.3-0.2,0.7-0.2,1v7h-2.1V349.4z"/>
	<path d="M432.8,357.9l-0.2-1.5h-0.1c-0.6,0.9-1.9,1.7-3.6,1.7c-2.4,0-3.6-1.7-3.6-3.3c0-2.8,2.5-4.3,7-4.3v-0.2
		c0-1-0.3-2.7-2.6-2.7c-1.1,0-2.2,0.3-3,0.9l-0.5-1.4c1-0.6,2.4-1,3.8-1c3.6,0,4.4,2.4,4.4,4.8v4.3c0,1,0,2,0.2,2.8H432.8z
		 M432.5,351.9c-2.3,0-4.9,0.4-4.9,2.6c0,1.4,0.9,2,2,2c1.5,0,2.5-1,2.8-1.9c0.1-0.2,0.1-0.5,0.1-0.7V351.9z"/>
</g>
</svg>
